ArefRuqaa-Regular.sfdir
StartChar: exclam
Encoding: 33 33 1
Width: 253
GlyphClass: 2
LayerCount: 2
Back
SplineSet
49.31640625 84.9609375 m 2,0,-1
 138.18359375 176.7578125 l 2,1,2
 141.11328125 180.17578125 141.11328125 180.17578125 144.53125 180.17578125 c 0,3,4
 147.4609375 180.17578125 147.4609375 180.17578125 150.390625 177.24609375 c 2,5,-1
 223.14453125 106.93359375 l 2,6,7
 226.5625 103.515625 226.5625 103.515625 226.5625 100.5859375 c 256,8,9
 226.5625 97.65625 226.5625 97.65625 223.6328125 94.7265625 c 2,10,-1
 134.765625 2.9296875 l 2,11,12
 131.34765625 0 131.34765625 0 128.41796875 0 c 256,13,14
 125.48828125 0 125.48828125 0 122.55859375 2.44140625 c 2,15,-1
 49.8046875 72.75390625 l 2,16,17
 46.38671875 76.171875 46.38671875 76.171875 46.38671875 79.1015625 c 256,18,19
 46.38671875 82.03125 46.38671875 82.03125 49.31640625 84.9609375 c 2,0,-1
203.61328125 464.35546875 m 0,20,21
 205.078125 445.3125 205.078125 445.3125 205.078125 427.24609375 c 0,22,23
 205.078125 375.9765625 205.078125 375.9765625 194.82421875 335.9375 c 0,24,25
 180.6640625 281.25 180.6640625 281.25 159.1796875 237.79296875 c 0,26,27
 153.3203125 226.07421875 153.3203125 226.07421875 147.4609375 213.37890625 c 128,-1,28
 141.6015625 200.68359375 141.6015625 200.68359375 132.32421875 193.359375 c 0,29,30
 129.39453125 190.91796875 129.39453125 190.91796875 127.44140625 190.91796875 c 0,31,32
 125 190.91796875 125 190.91796875 125 194.3359375 c 1,33,34
 124.0234375 200.1953125 124.0234375 200.1953125 124.0234375 201.66015625 c 0,35,36
 133.7890625 260.7421875 133.7890625 260.7421875 133.7890625 315.91796875 c 0,37,38
 133.7890625 385.25390625 133.7890625 385.25390625 118.1640625 447.265625 c 0,39,40
 89.35546875 558.10546875 89.35546875 558.10546875 47.8515625 639.6484375 c 0,41,42
 44.43359375 645.99609375 44.43359375 645.99609375 34.66796875 662.109375 c 0,43,44
 25.87890625 676.26953125 25.87890625 676.26953125 25.87890625 682.6171875 c 2,45,-1
 25.87890625 684.08203125 l 1,46,47
 39.0625 719.23828125 39.0625 719.23828125 55.17578125 753.90625 c 128,-1,48
 71.2890625 788.57421875 71.2890625 788.57421875 86.42578125 824.70703125 c 1,49,50
 124.51171875 744.140625 124.51171875 744.140625 159.912109375 661.376953125 c 128,-1,51
 195.3125 578.61328125 195.3125 578.61328125 203.61328125 464.35546875 c 0,20,21
EndSplineSet
Fore
SplineSet
203 464 m 1
 203 464 l 1
 210 366 188 296 159 238 c 0
 151 222 145 204 132 194 c 0
 123 187 124 200 124 202 c 0
 154 382 104 531 48 639 c 0
 44 647 23 677 26 684 c 0
 44 731 66 776 86 824 c 1
 136 717 192 617 203 464 c 1
49 85 m 2
 138 177 l 2
 141 181 146 180 150 177 c 2
 223 107 l 2
 227 104 226 99 223 95 c 2
 135 3 l 2
 132 -1 126 0 122 3 c 2
 50 73 l 2
 46 76 46 81 49 85 c 2
EndSplineSet
EndChar
StartChar: comma-ar
Encoding: 1548 1548 11
Width: 278
GlyphClass: 2
LayerCount: 2
Back
SplineSet
134.755859375 0.9765625 m 1,1,2
 94.228515625 -6.8359375 94.228515625 -6.8359375 65.419921875 51.513671875 c 128,-1,3
 36.611328125 109.86328125 36.611328125 109.86328125 129.384765625 386.71875 c 1,4,-1
 129.873046875 388.671875 l 1,5,-1
 160.634765625 419.43359375 l 1,6,7
 158.193359375 403.80859375 158.193359375 403.80859375 132.802734375 308.10546875 c 128,-1,8
 107.412109375 212.40234375 107.412109375 212.40234375 123.76953125 151.123046875 c 128,-1,9
 140.126953125 89.84375 140.126953125 89.84375 205.068359375 149.90234375 c 1,10,11
 214.833984375 153.80859375 214.833984375 153.80859375 217.763671875 150.87890625 c 0,12,13
 220.205078125 148.4375 220.205078125 148.4375 219.716796875 143.06640625 c 0,14,0
 213.369140625 6.34765625 213.369140625 6.34765625 134.755859375 0.9765625 c 1,1,2
EndSplineSet
Fore
SplineSet
127 -0 m 0
 86 0 54 51 62 128 c 0
 69 200 97 295 130 389 c 1
 161 419 l 1
 159 409 150 372 133 308 c 128
 110 223 102 51 205 150 c 0
 212 157 220 151 220 143 c 0
 216 52 187 -0 127 -0 c 0
EndSplineSet
EndChar
StartChar: uni060C
Encoding: 1548 1548 11
Width: 570
GlyphClass: 2
LayerCount: 2
Back
SplineSet
275.979492188 2 m 1,1,2
 192.979492188 -14 192.979492188 -14 133.979492188 105.5 c 128,-1,3
 74.9794921875 225 74.9794921875 225 264.979492188 792 c 1,4,-1
 265.979492188 796 l 1,5,-1
 328.979492188 859 l 1,6,7
 323.979492188 827 323.979492188 827 271.979492188 631 c 128,-1,8
 219.979492188 435 219.979492188 435 253.479492188 309.5 c 128,-1,9
 286.979492188 184 286.979492188 184 419.979492188 307 c 1,10,11
 439.979492188 315 439.979492188 315 445.979492188 309 c 0,12,13
 450.979492188 304 450.979492188 304 449.979492188 293 c 0,14,0
 436.979492188 13 436.979492188 13 275.979492188 2 c 1,1,2
EndSplineSet
Fore
SplineSet
275.979492188 2 m 1
 220.646158855 -8.66666666667 173.312825521 25.8333333333 133.979492188 105.5 c 128
 94.6461588543 185.166666667 138.312825521 414 264.979492188 792 c 1
 265.979492188 796 l 1
 328.979492188 859 l 1
 325.646158855 837.666666667 306.646158855 761.666666667 271.979492188 631 c 128
 237.312825521 500.333333333 231.146158855 393.166666667 253.479492188 309.5 c 128
 275.812825521 225.833333333 331.312825521 225 419.979492188 307 c 1
 433.312825521 312.333333333 441.979492188 313 445.979492188 309 c 0
 449.312825521 305.666666667 450.646158855 300.333333333 449.979492188 293 c 0
 441.312825521 106.333333333 383.312825521 9.33333333333 275.979492188 2 c 1
EndSplineSet
EndChar
StartChar: semicolon-ar
Encoding: 1563 1563 12
Width: 570
GlyphClass: 2
LayerCount: 2
Back
SplineSet
116 174 m 2,0,-1
 297 362 l 2,1,2
 303 369 303 369 310 369 c 0,3,4
 316 369 316 369 323 363 c 2,5,-1
 472 219 l 2,6,7
 479 212 479 212 479 206 c 256,8,9
 479 200 479 200 473 194 c 2,10,-1
 291 6 l 2,11,12
 285 0 285 0 278 0 c 0,13,14
 272 0 272 0 265 5 c 1,15,-1
 117 149 l 2,16,17
 110 155 110 155 110 162 c 0,18,19
 110 168 110 168 116 174 c 2,0,-1
EndSplineSet
Refer: 11 1548 N 1 0 0 1 0 469 3
Fore
SplineSet
116 174 m 2
 298 362 l 2
 305.654296875 370.930664062 314.665039062 371.334960938 323 363 c 2
 472 219 l 2
 480.685546875 210.314453125 481.654296875 202.654296875 473 194 c 2
 291 6 l 2
 282.34375 -1.419921875 274.708984375 -2.2578125 266 5 c 2
 117 149 l 2
 108.314453125 157.685546875 107.345703125 165.345703125 116 174 c 2
EndSplineSet
Refer: 11 1548 N 1 0 0 1 0 469 3
EndChar
StartChar: uni061B
Encoding: 1563 1563 12
Width: 570
GlyphClass: 2
LayerCount: 2
Back
SplineSet
116 174 m 2,0,-1
 297 362 l 2,1,2
 303 369 303 369 310 369 c 0,3,4
 316 369 316 369 323 363 c 2,5,-1
 472 219 l 2,6,7
 479 212 479 212 479 206 c 256,8,9
 479 200 479 200 473 194 c 2,10,-1
 291 6 l 2,11,12
 285 0 285 0 278 0 c 0,13,14
 272 0 272 0 265 5 c 1,15,-1
 117 149 l 2,16,17
 110 155 110 155 110 162 c 0,18,19
 110 168 110 168 116 174 c 2,0,-1
EndSplineSet
Refer: 11 1548 N 1 0 0 1 0 469 3
Fore
SplineSet
116 174 m 2
 297 362 l 2
 301 366.666666667 305.333333333 369 310 369 c 0
 314 369 318.333333333 367 323 363 c 2
 472 219 l 2
 476.666666667 214.333333333 479 210 479 206 c 256
 479 202 477 198 473 194 c 2
 291 6 l 2
 287 2 282.666666667 0 278 0 c 0
 274 0 269.666666667 1.66666666667 265 5 c 1
 117 149 l 2
 112.333333333 153 110 157.333333333 110 162 c 0
 110 166 112 170 116 174 c 2
EndSplineSet
Refer: 11 1548 N 1 0 0 1 0 469 3
EndChar
StartChar: question-ar
Encoding: 1567 1567 13
Width: 345
GlyphClass: 2
LayerCount: 2
Back
SplineSet
320.80078125 755.859375 m 1,0,1
 312.01171875 723.6328125 312.01171875 723.6328125 301.513671875 691.89453125 c 128,-1,2
 291.015625 660.15625 291.015625 660.15625 277.83203125 629.8828125 c 0,3,4
 274.90234375 623.53515625 274.90234375 623.53515625 265.13671875 619.62890625 c 0,5,6
 262.20703125 618.1640625 262.20703125 618.1640625 260.25390625 618.1640625 c 0,7,8
 255.37109375 618.1640625 255.37109375 618.1640625 254.8828125 625.48828125 c 0,9,10
 249.0234375 695.80078125 249.0234375 695.80078125 172.8515625 699.21875 c 1,11,-1
 166.50390625 699.21875 l 2,12,13
 122.0703125 699.21875 122.0703125 699.21875 89.35546875 674.31640625 c 1,14,15
 96.6796875 636.71875 96.6796875 636.71875 119.62890625 611.81640625 c 128,-1,16
 142.578125 586.9140625 142.578125 586.9140625 165.52734375 563.96484375 c 0,17,18
 200.1953125 528.3203125 200.1953125 528.3203125 229.00390625 485.83984375 c 128,-1,19
 257.8125 443.359375 257.8125 443.359375 264.16015625 380.37109375 c 1,20,21
 261.71875 321.2890625 261.71875 321.2890625 241.943359375 278.564453125 c 128,-1,22
 222.16796875 235.83984375 222.16796875 235.83984375 201.66015625 195.3125 c 0,23,24
 199.70703125 192.3828125 199.70703125 192.3828125 194.82421875 191.89453125 c 0,25,26
 193.84765625 191.40625 193.84765625 191.40625 193.359375 191.40625 c 0,27,28
 190.91796875 191.40625 190.91796875 191.40625 190.91796875 193.84765625 c 0,29,30
 190.91796875 195.3125 190.91796875 195.3125 191.40625 196.77734375 c 0,31,32
 202.1484375 231.93359375 202.1484375 231.93359375 202.1484375 264.16015625 c 0,33,34
 202.1484375 301.7578125 202.1484375 301.7578125 187.98828125 334.9609375 c 0,35,36
 161.1328125 396.484375 161.1328125 396.484375 121.58203125 433.10546875 c 0,37,38
 96.19140625 456.0546875 96.19140625 456.0546875 74.462890625 483.154296875 c 128,-1,39
 52.734375 510.25390625 52.734375 510.25390625 39.0625 544.43359375 c 1,40,41
 35.64453125 562.5 35.64453125 562.5 35.64453125 581.54296875 c 0,42,43
 35.64453125 647.94921875 35.64453125 647.94921875 75.68359375 728.02734375 c 1,44,45
 123.046875 824.70703125 123.046875 824.70703125 219.23828125 824.70703125 c 0,46,47
 225.5859375 824.70703125 225.5859375 824.70703125 231.93359375 824.21875 c 0,48,49
 261.71875 822.265625 261.71875 822.265625 281.005859375 805.908203125 c 128,-1,50
 300.29296875 789.55078125 300.29296875 789.55078125 312.98828125 769.04296875 c 0,51,52
 314.453125 766.11328125 314.453125 766.11328125 315.185546875 762.6953125 c 128,-1,53
 315.91796875 759.27734375 315.91796875 759.27734375 320.80078125 755.859375 c 1,0,1
106.4453125 84.9609375 m 2,54,-1
 194.82421875 176.7578125 l 2,55,56
 197.75390625 180.17578125 197.75390625 180.17578125 201.171875 180.17578125 c 0,57,58
 204.1015625 180.17578125 204.1015625 180.17578125 207.51953125 177.24609375 c 2,59,-1
 280.2734375 106.93359375 l 2,60,61
 283.69140625 103.515625 283.69140625 103.515625 283.69140625 100.5859375 c 256,62,63
 283.69140625 97.65625 283.69140625 97.65625 280.76171875 94.7265625 c 2,64,-1
 191.89453125 2.9296875 l 2,65,66
 188.96484375 0 188.96484375 0 185.546875 0 c 0,67,68
 182.6171875 0 182.6171875 0 179.19921875 2.44140625 c 1,69,-1
 106.93359375 72.75390625 l 2,70,71
 103.515625 75.68359375 103.515625 75.68359375 103.515625 79.1015625 c 0,72,73
 103.515625 82.03125 103.515625 82.03125 106.4453125 84.9609375 c 2,54,-1
EndSplineSet
Fore
SplineSet
320 755 m 1
 308 712 296 669 278 629 c 0
 274 621 256 612 255 625 c 0
 252 669 218 697 173 699 c 0
 140 700 111 691 89 674 c 1
 99 624 135 594 165 563 c 0
 211 516 255 464 264 380 c 1
 261 302 229 249 201 195 c 0
 199 191 189 190 191 197 c 0
 222 298 175 385 122 433 c 0
 88 464 58 499 39 544 c 1
 20 651 92 833 232 824 c 0
 272 821 297 796 313 768 c 0
 315 765 314 760 320 755 c 1
106 85 m 2
 195 177 l 2
 198 181 203 180 207 177 c 2
 280 107 l 2
 284 104 283 99 280 95 c 2
 192 3 l 2
 189 -1 183 0 179 3 c 2
 107 73 l 2
 103 76 103 81 106 85 c 2
EndSplineSet
EndChar
StartChar: uni061F
Encoding: 1567 1567 13
Width: 707
GlyphClass: 2
LayerCount: 2
Back
SplineSet
657 1548 m 1,0,1
 639 1482 639 1482 617.5 1417 c 128,-1,2
 596 1352 596 1352 569 1290 c 0,3,4
 563 1277 563 1277 543 1269 c 0,5,6
 537 1266 537 1266 533 1266 c 0,7,8
 523 1266 523 1266 522 1281 c 0,9,10
 510 1425 510 1425 354 1432 c 1,11,-1
 341 1432 l 2,12,13
 250 1432 250 1432 183 1381 c 1,14,15
 198 1304 198 1304 245 1253 c 128,-1,16
 292 1202 292 1202 339 1155 c 0,17,18
 410 1082 410 1082 469 995 c 128,-1,19
 528 908 528 908 541 779 c 1,20,21
 536 658 536 658 495.5 570.5 c 128,-1,22
 455 483 455 483 413 400 c 0,23,24
 409 394 409 394 399 393 c 0,25,26
 397 392 397 392 396 392 c 0,27,28
 391 392 391 392 391 397 c 0,29,30
 391 400 391 400 392 403 c 0,31,32
 414 475 414 475 414 541 c 0,33,34
 414 618 414 618 385 686 c 0,35,36
 330 812 330 812 249 887 c 0,37,38
 197 934 197 934 152.5 989.5 c 128,-1,39
 108 1045 108 1045 80 1115 c 1,40,41
 73 1152 73 1152 73 1191 c 0,42,43
 73 1327 73 1327 155 1491 c 1,44,45
 252 1689 252 1689 449 1689 c 0,46,47
 462 1689 462 1689 475 1688 c 0,48,49
 536 1684 536 1684 575.5 1650.5 c 128,-1,50
 615 1617 615 1617 641 1575 c 0,51,52
 644 1569 644 1569 645.5 1562 c 128,-1,53
 647 1555 647 1555 657 1548 c 1,0,1
218 174 m 2,54,-1
 399 362 l 2,55,56
 405 369 405 369 412 369 c 0,57,58
 418 369 418 369 425 363 c 2,59,-1
 574 219 l 2,60,61
 581 212 581 212 581 206 c 256,62,63
 581 200 581 200 575 194 c 2,64,-1
 393 6 l 2,65,66
 387 0 387 0 380 0 c 0,67,68
 374 0 374 0 367 5 c 1,69,-1
 219 149 l 2,70,71
 212 155 212 155 212 162 c 0,72,73
 212 168 212 168 218 174 c 2,54,-1
EndSplineSet
Fore
SplineSet
218 174 m 2
 400 362 l 2
 407.654296875 370.930664062 416.665039062 371.334960938 425 363 c 2
 574 219 l 2
 582.685546875 210.314453125 583.654296875 202.654296875 575 194 c 2
 393 6 l 1
 384.34375 -1.419921875 376.708984375 -2.2578125 368 5 c 2
 219 149 l 2
 210.314453125 157.685546875 209.345703125 165.345703125 218 174 c 2
654.069504325 1537.33334551 m 0
 635.787549204 1470.77767249 578.184570312 1265.4765625 542 1264 c 0
 522.5234375 1263.20507812 522.83203125 1277.01269531 522 1287 c 0
 514 1383 449.496013231 1429.07492235 354 1432 c 0
 284.439914616 1434.13065074 232.022167931 1418.31538156 183 1381 c 1
 203.212151867 1277.24428709 276.899203665 1217.10079633 339 1155 c 0
 386.333333333 1106.33333333 429.666666667 1053 469 995 c 128
 601.817666133 799.150221125 525.818847656 588 413 400 c 0
 410.593984426 395.990643964 404.461726971 387.265751837 397.999023438 388.668945312 c 0
 390.333333333 390.333333333 390.52284673 398.165680206 392 403 c 0
 406.666666667 451 414 497 414 541 c 0
 414 690.661775048 323.460617181 811.054984091 249 887 c 0
 175.425602966 962.041128649 73 1045.9925952 73 1191 c 0
 73 1281.66666667 100.333333333 1381.66666667 155 1491 c 0
 219.666666667 1623 317.666666667 1689 449 1689 c 0
 581.235978518 1689 646.5 1575.5 654.5 1558.5 c 0
 657.688063035 1551.72536605 656.052898347 1544.55391482 654.069504325 1537.33334551 c 0
EndSplineSet
EndChar
StartChar: hamza-ar
Encoding: 1569 1569 54
Width: 431
GlyphClass: 2
AnchorPoint: "bottom" 119 -189 basechar 0
AnchorPoint: "bottom.mark" 149 -189 basechar 0
AnchorPoint: "top" 272 584 basechar 0
AnchorPoint: "top.mark" 294 576 basechar 0
LayerCount: 2
Back
SplineSet
325.1953125 325.68359375 m 1,0,1
 299.8046875 318.84765625 299.8046875 318.84765625 279.052734375 311.03515625 c 128,-1,2
 258.30078125 303.22265625 258.30078125 303.22265625 236.328125 284.1796875 c 1,3,4
 249.0234375 262.6953125 249.0234375 262.6953125 273.92578125 254.39453125 c 128,-1,5
 298.828125 246.09375 298.828125 246.09375 317.138671875 236.083984375 c 128,-1,6
 335.44921875 226.07421875 335.44921875 226.07421875 338.37890625 207.03125 c 0,7,8
 338.8671875 205.078125 338.8671875 205.078125 338.8671875 203.125 c 0,9,10
 338.8671875 183.59375 338.8671875 183.59375 310.05859375 144.53125 c 0,11,12
 284.1796875 109.375 284.1796875 109.375 258.544921875 74.21875 c 128,-1,13
 232.91015625 39.0625 232.91015625 39.0625 194.3359375 18.06640625 c 0,14,15
 170.8984375 4.8828125 170.8984375 4.8828125 126.953125 1.953125 c 0,16,17
 103.02734375 0.48828125 103.02734375 0.48828125 84.47265625 0.48828125 c 0,18,19
 69.3359375 0.48828125 69.3359375 0.48828125 57.6171875 1.46484375 c 0,20,21
 48.828125 2.44140625 48.828125 2.44140625 48.828125 5.859375 c 0,22,23
 48.828125 10.25390625 48.828125 10.25390625 62.01171875 18.5546875 c 0,24,25
 85.9375 33.69140625 85.9375 33.69140625 123.291015625 51.025390625 c 128,-1,26
 160.64453125 68.359375 160.64453125 68.359375 195.80078125 83.0078125 c 128,-1,27
 230.95703125 97.65625 230.95703125 97.65625 233.3984375 98.6328125 c 0,28,29
 245.60546875 104.00390625 245.60546875 104.00390625 247.0703125 108.88671875 c 1,30,-1
 247.0703125 110.83984375 l 2,31,32
 247.0703125 120.1171875 247.0703125 120.1171875 228.515625 124.51171875 c 0,33,34
 194.82421875 132.32421875 194.82421875 132.32421875 175.78125 149.90234375 c 1,35,36
 151.3671875 170.8984375 151.3671875 170.8984375 151.3671875 192.3828125 c 0,37,38
 151.3671875 197.265625 151.3671875 197.265625 152.83203125 202.63671875 c 0,39,40
 159.66796875 229.00390625 159.66796875 229.00390625 177.24609375 257.32421875 c 0,41,42
 209.9609375 310.05859375 209.9609375 310.05859375 264.892578125 359.86328125 c 128,-1,43
 319.82421875 409.66796875 319.82421875 409.66796875 365.234375 425.29296875 c 0,44,45
 372.0703125 427.734375 372.0703125 427.734375 375.9765625 427.734375 c 0,46,47
 382.32421875 427.734375 382.32421875 427.734375 382.32421875 422.36328125 c 0,48,49
 382.32421875 420.8984375 382.32421875 420.8984375 381.8359375 419.921875 c 0,50,51
 379.39453125 407.2265625 379.39453125 407.2265625 368.1640625 388.18359375 c 128,-1,52
 356.93359375 369.140625 356.93359375 369.140625 342.7734375 350.341796875 c 128,-1,53
 328.61328125 331.54296875 328.61328125 331.54296875 325.1953125 325.68359375 c 1,0,1
EndSplineSet
Fore
SplineSet
84 0 m 0
 54 0 36 3 61 19 c 0
 105 47 185 75 233 99 c 0
 257 111 246 121 229 125 c 0
 194 133 167 152 156 171 c 0
 130 216 221 334 312 397 c 0
 327 408 362 428 376 428 c 0
 390 428 378 405 368 388 c 128
 358 371 333 341 325 326 c 1
 287 316 264 308 236 284 c 1
 262 238 334 254 339 203 c 0
 341 184 315 152 287 113 c 0
 257 72 228 34 194 18 c 0
 169 6 123 0 84 0 c 0
EndSplineSet
EndChar
StartChar: uni0621
Encoding: 1569 1569 54
Width: 883
GlyphClass: 2
AnchorPoint: "Dots Below" 243 -387 basechar 0
AnchorPoint: "Tashkil Below" 306 -387 basechar 0
AnchorPoint: "Dots Above" 558 1197 basechar 0
AnchorPoint: "Tashkil Above" 603 1179 basechar 0
LayerCount: 2
Back
SplineSet
666 667 m 1,0,1
 614 653 614 653 571.5 637 c 128,-1,2
 529 621 529 621 484 582 c 1,3,4
 510 538 510 538 561 521 c 128,-1,5
 612 504 612 504 649.5 483.5 c 128,-1,6
 687 463 687 463 693 424 c 0,7,8
 694 420 694 420 694 416 c 0,9,10
 694 376 694 376 635 296 c 0,11,12
 582 224 582 224 529.5 152 c 128,-1,13
 477 80 477 80 398 37 c 0,14,15
 350 10 350 10 260 4 c 0,16,17
 211 1 211 1 173 1 c 0,18,19
 142 1 142 1 118 3 c 0,20,21
 100 5 100 5 100 12 c 0,22,23
 100 21 100 21 127 38 c 0,24,25
 176 69 176 69 252.5 104.5 c 128,-1,26
 329 140 329 140 401 170 c 128,-1,27
 473 200 473 200 478 202 c 0,28,29
 503 213 503 213 506 223 c 1,30,-1
 506 227 l 2,31,32
 506 246 506 246 468 255 c 0,33,34
 399 271 399 271 360 307 c 1,35,36
 310 350 310 350 310 394 c 0,37,38
 310 404 310 404 313 415 c 0,39,40
 327 469 327 469 363 527 c 0,41,42
 430 635 430 635 542.5 737 c 128,-1,43
 655 839 655 839 748 871 c 0,44,45
 762 876 762 876 770 876 c 0,46,47
 783 876 783 876 783 865 c 0,48,49
 783 862 783 862 782 860 c 0,50,51
 777 834 777 834 754 795 c 128,-1,52
 731 756 731 756 702 717.5 c 128,-1,53
 673 679 673 679 666 667 c 1,0,1
EndSplineSet
Fore
SplineSet
666 667 m 1
 631.333333333 657.666666667 599.833333333 647.666666667 571.5 637 c 128
 543.166666667 626.333333333 514 608 484 582 c 1
 501.333333333 552.666666667 527 532.333333333 561 521 c 128
 595 509.666666667 624.5 497.166666667 649.5 483.5 c 128
 674.5 469.833333333 689 450 693 424 c 0
 693.666666667 421.333333333 694 418.666666667 694 416 c 0
 694 389.333333333 674.333333333 349.333333333 635 296 c 0
 599.666666667 248 564.5 200 529.5 152 c 128
 494.5 104 450.666666667 65.6666666667 398 37 c 0
 366 19 320 8 260 4 c 0
 227.333333333 2 198.333333333 1 173 1 c 0
 152.333333333 1 134 1.66666666667 118 3 c 0
 106 4.33333333333 100 7.33333333333 100 12 c 0
 100 18 109 26.6666666667 127 38 c 0
 159.666666667 58.6666666667 201.5 80.8333333333 252.5 104.5 c 128
 303.5 128.166666667 353 150 401 170 c 128
 449 190 474.666666667 200.666666667 478 202 c 0
 494.666666667 209.333333333 504 216.333333333 506 223 c 1
 506 227 l 2
 506 239.666666667 493.333333333 249 468 255 c 0
 422 265.666666667 386 283 360 307 c 1
 326.666666667 335.666666667 310 364.666666667 310 394 c 0
 310 400.666666667 311 407.666666667 313 415 c 0
 322.333333333 451 339 488.333333333 363 527 c 0
 407.666666667 599 467.5 669 542.5 737 c 128
 617.5 805 686 849.666666667 748 871 c 0
 757.333333333 874.333333333 764.666666667 876 770 876 c 0
 778.666666667 876 783 872.333333333 783 865 c 0
 783 863 782.666666667 861.333333333 782 860 c 0
 778.666666667 842.666666667 769.333333333 821 754 795 c 128
 738.666666667 769 721.333333333 743.166666667 702 717.5 c 128
 682.666666667 691.833333333 670.666666667 675 666 667 c 1
EndSplineSet
EndChar
StartChar: alef-ar
Encoding: 1575 1575 55
Width: 248
GlyphClass: 2
AnchorPoint: "top" 121 791 basechar 0
AnchorPoint: "bottom" 128 -22 basechar 0
AnchorPoint: "top.mark" 129 835 basechar 0
AnchorPoint: "bottom.mark" 145 -31 basechar 0
LayerCount: 2
Back
SplineSet
73.2421875 568.84765625 m 1,0,-1
 146.97265625 686.03515625 l 1,1,-1
 175.29296875 261.23046875 l 1,2,-1
 101.5625 144.04296875 l 1,3,-1
 73.2421875 568.84765625 l 1,0,-1
EndSplineSet
Fore
SplineSet
73 569 m 1
 147 686 l 1
 175 261 l 1
 102 144 l 1
 73 569 l 1
EndSplineSet
EndChar
StartChar: hah-ar
Encoding: 1581 1581 61
Width: 683
GlyphClass: 2
AnchorPoint: "bottom.mark" 294 -545 basechar 0
AnchorPoint: "top" 308 739 basechar 0
AnchorPoint: "top.mark" 325 738 basechar 0
AnchorPoint: "bottom" 382 24 basechar 0
AnchorPoint: "center" 382 73 basechar 0
LayerCount: 2
Back
SplineSet
386.71875 397.94921875 m 1,0,1
 374.0234375 435.546875 374.0234375 435.546875 319.3359375 435.546875 c 0,2,3
 309.5703125 435.546875 309.5703125 435.546875 298.33984375 434.5703125 c 0,4,5
 224.609375 426.26953125 224.609375 426.26953125 202.63671875 408.203125 c 1,6,7
 213.37890625 379.8828125 213.37890625 379.8828125 230.95703125 355.224609375 c 128,-1,8
 248.53515625 330.56640625 248.53515625 330.56640625 260.25390625 304.19921875 c 1,9,10
 290.52734375 326.171875 290.52734375 326.171875 325.68359375 350.09765625 c 128,-1,11
 360.83984375 374.0234375 360.83984375 374.0234375 386.71875 397.94921875 c 1,0,1
647.94921875 -185.05859375 m 0,12,13
 586.9140625 -258.7890625 586.9140625 -258.7890625 486.572265625 -305.419921875 c 128,-1,14
 386.23046875 -352.05078125 386.23046875 -352.05078125 286.1328125 -358.88671875 c 0,15,16
 270.99609375 -359.86328125 270.99609375 -359.86328125 256.8359375 -359.86328125 c 0,17,18
 173.828125 -359.86328125 173.828125 -359.86328125 105.46875 -326.171875 c 0,19,20
 25.390625 -287.109375 25.390625 -287.109375 4.8828125 -189.453125 c 0,21,22
 -0.48828125 -162.59765625 -0.48828125 -162.59765625 -0.48828125 -134.765625 c 0,23,24
 -0.48828125 -49.8046875 -0.48828125 -49.8046875 48.828125 48.828125 c 0,25,26
 114.2578125 180.6640625 114.2578125 180.6640625 181.640625 242.67578125 c 1,27,28
 139.6484375 289.55078125 139.6484375 289.55078125 139.6484375 353.02734375 c 0,29,30
 139.6484375 374.0234375 139.6484375 374.0234375 144.53125 396.97265625 c 0,31,32
 162.59765625 489.2578125 162.59765625 489.2578125 212.40234375 524.90234375 c 0,33,34
 245.1171875 547.8515625 245.1171875 547.8515625 312.5 558.59375 c 0,35,36
 335.44921875 562.01171875 335.44921875 562.01171875 356.4453125 562.01171875 c 0,37,38
 396.484375 562.01171875 396.484375 562.01171875 428.22265625 548.828125 c 256,39,40
 459.9609375 535.64453125 459.9609375 535.64453125 459.9609375 499.0234375 c 0,41,42
 459.9609375 479.00390625 459.9609375 479.00390625 450.1953125 451.66015625 c 0,43,44
 422.8515625 374.51171875 422.8515625 374.51171875 403.3203125 346.19140625 c 1,45,46
 378.41796875 312.01171875 378.41796875 312.01171875 348.14453125 283.69140625 c 128,-1,47
 317.87109375 255.37109375 317.87109375 255.37109375 288.57421875 229.4921875 c 0,48,49
 267.578125 210.9375 267.578125 210.9375 218.994140625 166.9921875 c 128,-1,50
 170.41015625 123.046875 170.41015625 123.046875 126.46484375 71.044921875 c 128,-1,51
 82.51953125 19.04296875 82.51953125 19.04296875 59.08203125 -32.2265625 c 0,52,53
 48.33984375 -55.17578125 48.33984375 -55.17578125 48.33984375 -74.70703125 c 0,54,55
 48.33984375 -98.14453125 48.33984375 -98.14453125 64.453125 -116.69921875 c 0,56,57
 115.234375 -173.828125 115.234375 -173.828125 186.279296875 -198.2421875 c 128,-1,58
 257.32421875 -222.65625 257.32421875 -222.65625 334.9609375 -225.09765625 c 0,59,60
 348.14453125 -225.5859375 348.14453125 -225.5859375 361.328125 -225.5859375 c 0,61,62
 425.78125 -225.5859375 425.78125 -225.5859375 490.72265625 -214.84375 c 0,63,64
 568.84765625 -201.66015625 568.84765625 -201.66015625 634.27734375 -185.05859375 c 0,65,66
 643.06640625 -182.6171875 643.06640625 -182.6171875 646.484375 -182.6171875 c 0,67,68
 648.4375 -182.6171875 648.4375 -182.6171875 648.4375 -183.59375 c 0,69,70
 648.4375 -184.08203125 648.4375 -184.08203125 647.94921875 -185.05859375 c 0,12,13
EndSplineSet
Fore
SplineSet
387 398 m 1
 387 398 l 1
 367 457 231 433 202 408 c 1
 217 370 244 340 260 304 c 1
 301 334 353 366 387 398 c 1
648 -186 m 1
 485 -384 59 -451 4 -190 c 0
 -26 -49 92 160 182 242 c 1
 107 325 146 478 212 525 c 0
 256 556 364 576 428 549 c 0
 494 522 430 384 403 346 c 0
 371 300 328 264 288 229 c 0
 233 181 -14 -30 64 -118 c 0
 200 -271 460 -232 635 -186 c 0
 640 -185 652 -182 648 -186 c 2
 648 -186 l 1
EndSplineSet
EndChar
StartChar: reh-ar
Encoding: 1585 1585 67
Width: 469
GlyphClass: 2
AnchorPoint: "Dots Below" 233 -224 basechar 0
AnchorPoint: "Tashkil Below" 242 -193 basechar 0
AnchorPoint: "Tashkil Above" 277 431 basechar 0
AnchorPoint: "Dots Above" 360 457 basechar 0
LayerCount: 2
Back
SplineSet
447.265625 271.97265625 m 1,0,1
 437.01171875 221.19140625 437.01171875 221.19140625 415.52734375 166.50390625 c 128,-1,2
 394.04296875 111.81640625 394.04296875 111.81640625 370.60546875 83.984375 c 0,3,4
 336.9140625 42.96875 336.9140625 42.96875 285.15625 20.99609375 c 0,5,6
 236.81640625 0 236.81640625 0 166.9921875 0 c 2,7,-1
 157.71484375 0 l 1,8,9
 99.12109375 1.46484375 99.12109375 1.46484375 56.15234375 6.103515625 c 128,-1,10
 13.18359375 10.7421875 13.18359375 10.7421875 2.9296875 20.99609375 c 0,11,12
 0.48828125 23.4375 0.48828125 23.4375 0.48828125 26.85546875 c 0,13,14
 0.48828125 35.64453125 0.48828125 35.64453125 22.94921875 48.828125 c 0,15,16
 53.22265625 65.91796875 53.22265625 65.91796875 142.08984375 93.75 c 0,17,18
 202.63671875 112.79296875 202.63671875 112.79296875 260.25390625 134.521484375 c 128,-1,19
 317.87109375 156.25 317.87109375 156.25 365.72265625 188.4765625 c 0,20,21
 411.62109375 219.7265625 411.62109375 219.7265625 435.05859375 271.97265625 c 0,22,23
 437.5 277.83203125 437.5 277.83203125 441.89453125 277.83203125 c 2,24,-1
 442.3828125 277.83203125 l 1,25,26
 446.77734375 277.34375 446.77734375 277.34375 447.265625 271.97265625 c 1,0,1
EndSplineSet
Fore
SplineSet
447 272 m 1
 435 211 403 122 371 84 c 0
 328 31 263 0 167 0 c 2
 158 0 l 1
 119 1 85 3 56 6 c 128
 28 9 0 13 0 27 c 0
 0 33 8 40 23 49 c 0
 65 73 198 112 260 135 c 128
 335 163 403 201 435 272 c 0
 437 276 439 278 442 278 c 2
 442 278 l 2
 445 278 447 276 447 272 c 1
EndSplineSet
EndChar
StartChar: sheen-ar
Encoding: 1588 1588 381
Width: 1000
GlyphClass: 2
AnchorPoint: "top.mark" 655 725 basechar 0
AnchorPoint: "bottom.mark" 602 26 basechar 0
LayerCount: 2
Back
SplineSet
973.14453125 503.90625 m 0,0,1
 943.84765625 440.91796875 943.84765625 440.91796875 912.59765625 379.8828125 c 128,-1,2
 881.34765625 318.84765625 881.34765625 318.84765625 845.703125 263.671875 c 1,3,4
 834.47265625 249.0234375 834.47265625 249.0234375 829.345703125 252.685546875 c 128,-1,5
 824.21875 256.34765625 824.21875 256.34765625 826.66015625 261.23046875 c 1,6,7
 836.42578125 286.1328125 836.42578125 286.1328125 847.65625 304.931640625 c 128,-1,8
 858.88671875 323.73046875 858.88671875 323.73046875 869.62890625 348.6328125 c 1,9,10
 793.45703125 304.19921875 793.45703125 304.19921875 707.51953125 276.123046875 c 128,-1,11
 621.58203125 248.046875 621.58203125 248.046875 528.3203125 221.6796875 c 1,12,13
 494.62890625 220.21484375 494.62890625 220.21484375 481.4453125 241.943359375 c 128,-1,14
 468.26171875 263.671875 468.26171875 263.671875 437.5 239.74609375 c 0,15,16
 384.27734375 197.75390625 384.27734375 197.75390625 342.7734375 108.642578125 c 128,-1,17
 301.26953125 19.53125 301.26953125 19.53125 239.2578125 0 c 1,18,19
 189.94140625 2.44140625 189.94140625 2.44140625 176.7578125 54.19921875 c 0,20,21
 168.9453125 83.49609375 168.9453125 83.49609375 166.259765625 130.126953125 c 128,-1,22
 163.57421875 176.7578125 163.57421875 176.7578125 150.390625 196.2890625 c 0,23,24
 144.04296875 205.078125 144.04296875 205.078125 133.30078125 212.40234375 c 128,-1,25
 122.55859375 219.7265625 122.55859375 219.7265625 107.91015625 214.84375 c 0,26,27
 75.1953125 204.1015625 75.1953125 204.1015625 54.6875 181.884765625 c 128,-1,28
 34.1796875 159.66796875 34.1796875 159.66796875 18.06640625 134.27734375 c 0,29,30
 8.30078125 118.65234375 8.30078125 118.65234375 0 111.81640625 c 1,31,32
 23.92578125 182.12890625 23.92578125 182.12890625 45.654296875 229.4921875 c 128,-1,33
 67.3828125 276.85546875 67.3828125 276.85546875 128.90625 322.265625 c 0,34,35
 169.43359375 352.05078125 169.43359375 352.05078125 187.5 341.30859375 c 0,36,37
 211.9140625 326.171875 211.9140625 326.171875 213.8671875 270.01953125 c 1,38,39
 214.35546875 234.86328125 214.35546875 234.86328125 212.646484375 209.47265625 c 128,-1,40
 210.9375 184.08203125 210.9375 184.08203125 227.05078125 153.3203125 c 1,41,42
 233.88671875 139.16015625 233.88671875 139.16015625 251.953125 136.23046875 c 128,-1,43
 270.01953125 133.30078125 270.01953125 133.30078125 283.69140625 143.06640625 c 0,44,45
 319.3359375 167.96875 319.3359375 167.96875 345.21484375 203.125 c 128,-1,46
 371.09375 238.28125 371.09375 238.28125 395.99609375 273.92578125 c 0,47,48
 432.12890625 326.66015625 432.12890625 326.66015625 466.30859375 355.224609375 c 128,-1,49
 500.48828125 383.7890625 500.48828125 383.7890625 568.359375 345.703125 c 1,50,51
 647.94921875 361.81640625 647.94921875 361.81640625 719.7265625 385.7421875 c 128,-1,52
 791.50390625 409.66796875 791.50390625 409.66796875 860.3515625 435.546875 c 0,53,54
 917.48046875 457.51953125 917.48046875 457.51953125 969.7265625 503.90625 c 1,55,56
 969.7265625 503.90625 969.7265625 503.90625 971.923828125 505.37109375 c 128,-1,57
 974.12109375 506.8359375 974.12109375 506.8359375 973.14453125 503.90625 c 0,0,1
EndSplineSet
Fore
SplineSet
973 504 m 0
 934 421 893 338 845 264 c 0
 830 245 823 255 826 262 c 0
 839 295 855 316 869 349 c 1
 768 290 653 258 528 222 c 1
 483 220 479 273 437 240 c 0
 366 184 321 26 238 -0 c 1
 203 2 184 24 176 54 c 0
 165 94 167 170 149 196 c 0
 141 208 127 222 107 215 c 0
 64 201 38 168 17 134 c 0
 12 126 8 119 0 112 c 1
 32 206 46 262 128 322 c 0
 150 338 172 350 186 342 c 0
 206 330 212 302 213 270 c 0
 214 224 205 194 226 153 c 0
 236 134 265 130 283 143 c 0
 331 176 362 226 395 274 c 0
 444 344 477 397 568 346 c 1
 675 367 768 401 860 436 c 0
 902 452 938 476 970 504 c 1
 970 504 975 508 973 504 c 0
EndSplineSet
EndChar
StartChar: sad-ar
Encoding: 1589 1589 73
Width: 881
GlyphClass: 2
AnchorPoint: "Dots Below" 558 92 basechar 0
AnchorPoint: "Tashkil Below" 589 97 basechar 0
AnchorPoint: "Dots Above" 610 781 basechar 0
AnchorPoint: "Tashkil Above" 633 791 basechar 0
LayerCount: 2
Back
SplineSet
349.609375 125.9765625 m 1,0,1
 294.43359375 46.875 294.43359375 46.875 210.9375 16.11328125 c 0,2,3
 167.48046875 0.48828125 167.48046875 0.48828125 130.859375 0.48828125 c 0,4,5
 96.6796875 0.48828125 96.6796875 0.48828125 67.87109375 14.6484375 c 0,6,7
 8.30078125 43.45703125 8.30078125 43.45703125 0 139.16015625 c 0,8,9
 -0.48828125 146.97265625 -0.48828125 146.97265625 -0.48828125 154.78515625 c 0,10,11
 -0.48828125 248.53515625 -0.48828125 248.53515625 87.40234375 409.1796875 c 0,12,13
 92.28515625 418.45703125 92.28515625 418.45703125 96.6796875 418.45703125 c 0,14,15
 98.14453125 418.45703125 98.14453125 418.45703125 99.609375 417.96875 c 0,16,17
 102.5390625 416.50390625 102.5390625 416.50390625 102.5390625 411.62109375 c 0,18,19
 102.5390625 406.25 102.5390625 406.25 99.12109375 397.4609375 c 1,20,21
 87.40234375 371.58203125 87.40234375 371.58203125 69.091796875 335.9375 c 128,-1,22
 50.78125 300.29296875 50.78125 300.29296875 41.50390625 264.6484375 c 0,23,24
 36.62109375 244.62890625 36.62109375 244.62890625 36.62109375 226.07421875 c 0,25,26
 36.62109375 211.42578125 36.62109375 211.42578125 40.0390625 197.265625 c 0,27,28
 47.36328125 166.015625 47.36328125 166.015625 87.40234375 148.92578125 c 1,29,30
 119.62890625 143.06640625 119.62890625 143.06640625 149.4140625 143.06640625 c 0,31,32
 201.66015625 143.06640625 201.66015625 143.06640625 248.046875 161.1328125 c 0,33,34
 320.3125 188.96484375 320.3125 188.96484375 368.1640625 232.91015625 c 1,35,-1
 368.1640625 241.69921875 l 2,36,37
 368.1640625 278.3203125 368.1640625 278.3203125 361.328125 309.5703125 c 1,38,39
 353.02734375 344.7265625 353.02734375 344.7265625 342.7734375 378.41796875 c 1,40,-1
 397.4609375 503.41796875 l 1,41,42
 422.36328125 448.2421875 422.36328125 448.2421875 432.6171875 424.8046875 c 0,43,44
 439.453125 408.203125 439.453125 408.203125 462.890625 408.203125 c 0,45,46
 473.14453125 408.203125 473.14453125 408.203125 486.328125 411.1328125 c 1,47,-1
 486.328125 411.62109375 l 1,48,-1
 487.3046875 412.59765625 l 1,49,50
 529.78515625 461.9140625 529.78515625 461.9140625 574.21875 509.521484375 c 128,-1,51
 618.65234375 557.12890625 618.65234375 557.12890625 666.50390625 601.5625 c 0,52,53
 689.94140625 623.53515625 689.94140625 623.53515625 736.81640625 632.32421875 c 0,54,55
 747.55859375 634.27734375 747.55859375 634.27734375 756.8359375 634.27734375 c 0,56,57
 789.55078125 634.27734375 789.55078125 634.27734375 809.08203125 611.328125 c 1,58,59
 827.1484375 588.8671875 827.1484375 588.8671875 827.1484375 565.4296875 c 0,60,61
 827.1484375 548.828125 827.1484375 548.828125 818.359375 532.2265625 c 0,62,63
 796.875 490.72265625 796.875 490.72265625 771.97265625 457.03125 c 0,64,65
 732.421875 403.3203125 732.421875 403.3203125 669.677734375 366.455078125 c 128,-1,66
 606.93359375 329.58984375 606.93359375 329.58984375 541.9921875 313.4765625 c 1,67,68
 478.515625 296.875 478.515625 296.875 420.41015625 288.57421875 c 1,69,70
 401.85546875 202.1484375 401.85546875 202.1484375 349.609375 125.9765625 c 1,0,1
721.6796875 498.53515625 m 0,71,72
 712.40234375 515.13671875 712.40234375 515.13671875 687.98828125 522.4609375 c 0,73,74
 678.22265625 525.390625 678.22265625 525.390625 669.43359375 525.390625 c 0,75,76
 654.78515625 525.390625 654.78515625 525.390625 642.08984375 518.06640625 c 0,77,78
 606.93359375 499.0234375 606.93359375 499.0234375 579.58984375 471.6796875 c 128,-1,79
 552.24609375 444.3359375 552.24609375 444.3359375 524.90234375 416.9921875 c 1,80,81
 577.63671875 427.24609375 577.63671875 427.24609375 627.44140625 439.453125 c 128,-1,82
 677.24609375 451.66015625 677.24609375 451.66015625 720.21484375 472.16796875 c 0,83,84
 727.05078125 475.5859375 727.05078125 475.5859375 727.05078125 482.91015625 c 0,85,86
 727.05078125 489.2578125 727.05078125 489.2578125 721.6796875 498.53515625 c 0,71,72
EndSplineSet
Fore
SplineSet
757 634 m 0
 796 634 827 602 827 565 c 0
 827 554 824 543 818 532 c 0
 781 460 740 407 670 366 c 128
 628 341 585 324 542 313 c 1
 500 302 459 295 420 289 c 1
 408 231 385 177 350 126 c 0
 313 73 267 37 211 16 c 0
 182 6 155 0 131 0 c 0
 108 0 87 6 68 15 c 0
 26 35 0 84 -0 155 c 0
 0 217 28 302 87 409 c 0
 90 415 94 418 97 418 c 0
 101 418 103 416 103 412 c 0
 103 408 101 403 99 397 c 0
 83 361 53 308 42 265 c 0
 39 252 37 238 37 226 c 0
 37 184 51 164 87 149 c 1
 108 145 129 143 149 143 c 0
 184 143 217 149 248 161 c 0
 296 180 336 204 368 233 c 1
 368 242 l 2
 368 296 356 336 343 378 c 1
 397 503 l 1
 414 466 426 441 433 425 c 0
 438 414 447 408 463 408 c 0
 470 408 477 409 486 411 c 1
 486 412 l 1
 487 413 l 1
 544 479 603 543 667 602 c 0
 684 618 719 634 757 634 c 0
722 499 m 0
 714 513 693 525 669 525 c 0
 659 525 650 523 642 518 c 0
 619 505 598 490 580 472 c 128
 553 445 552 444 525 417 c 1
 595 431 663 445 720 472 c 0
 725 474 727 478 727 483 c 0
 727 487 726 493 722 499 c 0
EndSplineSet
EndChar
StartChar: tah-ar
Encoding: 1591 1591 77
Width: 681
GlyphClass: 2
AnchorPoint: "bottom" 286 -207 basechar 0
AnchorPoint: "bottom.mark" 325 -145 basechar 0
AnchorPoint: "top.mark" 356 677 basechar 0
AnchorPoint: "top" 510 475 basechar 0
LayerCount: 2
Back
SplineSet
531.73828125 211.42578125 m 1,0,1
 522.4609375 227.5390625 522.4609375 227.5390625 497.55859375 234.86328125 c 0,2,3
 487.79296875 237.79296875 487.79296875 237.79296875 478.515625 237.79296875 c 0,4,5
 464.35546875 237.79296875 464.35546875 237.79296875 452.1484375 230.95703125 c 0,6,7
 416.9921875 211.9140625 416.9921875 211.9140625 389.6484375 184.5703125 c 128,-1,8
 362.3046875 157.2265625 362.3046875 157.2265625 334.9609375 129.39453125 c 1,9,10
 387.6953125 139.6484375 387.6953125 139.6484375 437.255859375 152.099609375 c 128,-1,11
 486.81640625 164.55078125 486.81640625 164.55078125 529.78515625 185.05859375 c 0,12,13
 536.1328125 187.98828125 536.1328125 187.98828125 536.1328125 195.80078125 c 0,14,15
 536.1328125 201.66015625 536.1328125 201.66015625 531.73828125 211.42578125 c 1,0,1
455.56640625 79.833984375 m 128,-1,17
 381.8359375 38.57421875 381.8359375 38.57421875 283.69140625 13.18359375 c 1,18,19
 234.86328125 0 234.86328125 0 196.77734375 0 c 0,20,21
 187.5 0 187.5 0 178.7109375 0.9765625 c 1,22,23
 76.66015625 22.4609375 76.66015625 22.4609375 2.9296875 89.84375 c 1,24,25
 0.9765625 90.8203125 0.9765625 90.8203125 1.953125 96.6796875 c 1,26,27
 3.41796875 101.5625 3.41796875 101.5625 7.8125 101.5625 c 0,28,29
 32.71484375 100.5859375 32.71484375 100.5859375 56.640625 100.5859375 c 0,30,31
 107.421875 100.5859375 107.421875 100.5859375 156.25 104.98046875 c 0,32,33
 228.515625 110.83984375 228.515625 110.83984375 294.43359375 122.0703125 c 1,34,35
 337.40234375 171.875 337.40234375 171.875 382.8125 220.458984375 c 128,-1,36
 428.22265625 269.04296875 428.22265625 269.04296875 476.5625 314.453125 c 1,37,38
 526.3671875 352.05078125 526.3671875 352.05078125 562.98828125 349.609375 c 128,-1,39
 599.609375 347.16796875 599.609375 347.16796875 619.140625 323.73046875 c 1,40,41
 648.92578125 277.83203125 648.92578125 277.83203125 589.111328125 199.462890625 c 128,-1,16
 529.296875 121.09375 529.296875 121.09375 455.56640625 79.833984375 c 128,-1,17
294.921875 479.00390625 m 1,42,-1
 368.65234375 596.19140625 l 1,43,-1
 390.13671875 275.390625 l 1,44,-1
 316.40625 158.203125 l 1,45,-1
 294.921875 479.00390625 l 1,42,-1
EndSplineSet
Fore
SplineSet
532 212 m 0
 520 234 480 246 452 231 c 0
 405 206 371 167 335 130 c 1
 405 144 473 158 530 185 c 0
 541 190 536 204 532 212 c 0
581 190 m 0
 514 100 415 47 284 13 c 0
 240 2 207 -2 179 1 c 0
 114 7 77 46 3 90 c 0
 -2 93 2 102 7 102 c 0
 109 99 206 107 294 122 c 1
 352 189 412 254 477 315 c 0
 508 344 585 364 619 324 c 0
 661 274 615 235 581 190 c 0
295 479 m 1
 369 597 l 1
 391 276 l 1
 317 158 l 1
 295 479 l 1
EndSplineSet
EndChar
StartChar: ain-ar
Encoding: 1593 1593 81
Width: 683
GlyphClass: 2
AnchorPoint: "top" 193 756 basechar 0
AnchorPoint: "top.mark" 224 765 basechar 0
AnchorPoint: "bottom" 299 -532 basechar 0
AnchorPoint: "bottom.mark" 303 -523 basechar 0
LayerCount: 2
Back
SplineSet
206.0546875 260.7421875 m 1,0,1
 192.87109375 272.4609375 192.87109375 272.4609375 175.78125 294.43359375 c 1,2,3
 141.6015625 336.42578125 141.6015625 336.42578125 133.7890625 391.6015625 c 0,4,5
 130.859375 413.57421875 130.859375 413.57421875 130.859375 434.5703125 c 0,6,7
 130.859375 466.30859375 130.859375 466.30859375 137.6953125 495.60546875 c 0,8,9
 149.4140625 544.43359375 149.4140625 544.43359375 177.24609375 578.125 c 0,10,11
 204.1015625 610.83984375 204.1015625 610.83984375 241.2109375 610.83984375 c 2,12,-1
 242.1875 610.83984375 l 1,13,14
 268.06640625 609.86328125 268.06640625 609.86328125 291.015625 604.4921875 c 128,-1,15
 313.96484375 599.12109375 313.96484375 599.12109375 338.8671875 593.75 c 1,16,-1
 296.875 463.8671875 l 1,17,18
 243.65234375 479.98046875 243.65234375 479.98046875 191.89453125 484.86328125 c 1,19,20
 197.75390625 448.2421875 197.75390625 448.2421875 210.693359375 426.513671875 c 128,-1,21
 223.6328125 404.78515625 223.6328125 404.78515625 247.55859375 384.27734375 c 1,22,23
 266.11328125 365.72265625 266.11328125 365.72265625 292.48046875 365.72265625 c 0,24,25
 315.4296875 365.72265625 315.4296875 365.72265625 344.7265625 379.8828125 c 0,26,27
 406.25 410.64453125 406.25 410.64453125 451.66015625 454.58984375 c 1,28,-1
 406.73828125 338.8671875 l 2,29,30
 395.99609375 312.01171875 395.99609375 312.01171875 357.177734375 282.2265625 c 128,-1,31
 318.359375 252.44140625 318.359375 252.44140625 288.57421875 226.5625 c 0,32,33
 267.578125 208.0078125 267.578125 208.0078125 218.994140625 164.0625 c 128,-1,34
 170.41015625 120.1171875 170.41015625 120.1171875 126.46484375 68.115234375 c 128,-1,35
 82.51953125 16.11328125 82.51953125 16.11328125 59.08203125 -35.15625 c 0,36,37
 48.33984375 -58.10546875 48.33984375 -58.10546875 48.33984375 -77.63671875 c 0,38,39
 48.33984375 -101.07421875 48.33984375 -101.07421875 64.453125 -119.62890625 c 0,40,41
 115.234375 -176.7578125 115.234375 -176.7578125 186.279296875 -201.171875 c 128,-1,42
 257.32421875 -225.5859375 257.32421875 -225.5859375 334.9609375 -228.02734375 c 0,43,44
 348.14453125 -228.515625 348.14453125 -228.515625 361.328125 -228.515625 c 0,45,46
 425.78125 -228.515625 425.78125 -228.515625 490.72265625 -217.7734375 c 0,47,48
 568.84765625 -204.58984375 568.84765625 -204.58984375 634.27734375 -187.98828125 c 0,49,50
 643.06640625 -185.546875 643.06640625 -185.546875 646.484375 -185.546875 c 0,51,52
 648.4375 -185.546875 648.4375 -185.546875 648.4375 -186.5234375 c 0,53,54
 648.4375 -187.01171875 648.4375 -187.01171875 647.94921875 -187.98828125 c 0,55,56
 586.9140625 -261.71875 586.9140625 -261.71875 486.572265625 -308.349609375 c 128,-1,57
 386.23046875 -354.98046875 386.23046875 -354.98046875 286.1328125 -361.81640625 c 0,58,59
 270.99609375 -362.79296875 270.99609375 -362.79296875 256.8359375 -362.79296875 c 0,60,61
 173.828125 -362.79296875 173.828125 -362.79296875 105.46875 -329.1015625 c 0,62,63
 25.390625 -290.0390625 25.390625 -290.0390625 4.8828125 -191.89453125 c 0,64,65
 -0.48828125 -166.015625 -0.48828125 -166.015625 -0.48828125 -137.6953125 c 0,66,67
 -0.48828125 -51.26953125 -0.48828125 -51.26953125 50.78125 53.22265625 c 0,68,69
 118.1640625 191.40625 118.1640625 191.40625 206.0546875 260.7421875 c 1,0,1
EndSplineSet
Fore
SplineSet
206 262 m 1
 195 272 185 283 176 295 c 0
 85 408 143 614 242 612 c 0
 277 611 306 603 339 595 c 1
 297 465 l 1
 266 475 232 482 192 486 c 1
 200 437 216 412 248 385 c 0
 295 339 392 398 452 456 c 1
 407 340 l 2
 393 304 328 262 288 227 c 0
 233 179 -14 -31 64 -119 c 0
 200 -272 460 -234 635 -188 c 0
 640 -187 652 -184 648 -188 c 0
 485 -386 60 -453 5 -192 c 0
 -25 -50 89 170 206 262 c 1
 206 262 l 1
EndSplineSet
EndChar
StartChar: qaf-ar
Encoding: 1602 1602 89
Width: 634
GlyphClass: 2
AnchorPoint: "bottom.mark" 321 -180 basechar 0
AnchorPoint: "bottom" 334 -167 basechar 0
AnchorPoint: "top" 365 637 basechar 0
AnchorPoint: "top.mark" 444 655 basechar 0
LayerCount: 2
Back
SplineSet
500.48828125 125 m 0,0,1
 455.56640625 60.546875 455.56640625 60.546875 389.6484375 28.076171875 c 128,-1,2
 323.73046875 -4.39453125 323.73046875 -4.39453125 265.869140625 0.9765625 c 128,-1,3
 208.0078125 6.34765625 208.0078125 6.34765625 173.095703125 52.978515625 c 128,-1,4
 138.18359375 99.609375 138.18359375 99.609375 156.25 194.3359375 c 0,5,6
 162.109375 224.609375 162.109375 224.609375 161.62109375 250.48828125 c 0,7,8
 161.1328125 256.8359375 161.1328125 256.8359375 159.1796875 266.6015625 c 128,-1,9
 157.2265625 276.3671875 157.2265625 276.3671875 148.92578125 274.90234375 c 0,10,11
 59.08203125 260.7421875 59.08203125 260.7421875 6.34765625 189.453125 c 1,12,13
 18.06640625 226.07421875 18.06640625 226.07421875 30.2734375 262.20703125 c 128,-1,14
 42.48046875 298.33984375 42.48046875 298.33984375 57.12890625 333.49609375 c 1,15,16
 84.47265625 358.3984375 84.47265625 358.3984375 117.67578125 377.44140625 c 128,-1,17
 150.87890625 396.484375 150.87890625 396.484375 196.2890625 403.80859375 c 1,18,19
 214.35546875 405.76171875 214.35546875 405.76171875 214.35546875 388.671875 c 1,20,21
 212.890625 354.4921875 212.890625 354.4921875 204.345703125 311.03515625 c 128,-1,22
 195.80078125 267.578125 195.80078125 267.578125 199.70703125 229.00390625 c 1,23,24
 205.078125 166.9921875 205.078125 166.9921875 245.60546875 150.390625 c 128,-1,25
 286.1328125 133.7890625 286.1328125 133.7890625 337.646484375 143.5546875 c 128,-1,26
 389.16015625 153.3203125 389.16015625 153.3203125 440.4296875 180.17578125 c 128,-1,27
 491.69921875 207.03125 491.69921875 207.03125 519.04296875 232.421875 c 1,28,29
 519.04296875 252.44140625 519.04296875 252.44140625 516.845703125 281.25 c 128,-1,30
 514.6484375 310.05859375 514.6484375 310.05859375 504.8828125 324.21875 c 1,31,32
 479.98046875 318.359375 479.98046875 318.359375 452.392578125 320.556640625 c 128,-1,33
 424.8046875 322.75390625 424.8046875 322.75390625 412.109375 337.40234375 c 1,34,35
 390.625 360.83984375 390.625 360.83984375 410.64453125 398.4375 c 1,36,37
 426.7578125 430.6640625 426.7578125 430.6640625 441.89453125 465.33203125 c 128,-1,38
 457.03125 500 457.03125 500 480.95703125 526.85546875 c 0,39,40
 492.67578125 540.0390625 492.67578125 540.0390625 509.521484375 533.69140625 c 128,-1,41
 526.3671875 527.34375 526.3671875 527.34375 535.64453125 518.5546875 c 0,42,43
 604.98046875 447.75390625 604.98046875 447.75390625 578.125 323.2421875 c 128,-1,44
 551.26953125 198.73046875 551.26953125 198.73046875 500.48828125 125 c 0,0,1
EndSplineSet
Fore
SplineSet
578 323 m 128
 548 182 497 81 390 28 c 128
 307 -13 222 -12 173 53 c 128
 150 84 144 131 156 194 c 0
 159 212 170 279 149 275 c 0
 89 266 41 237 6 189 c 1
 22 238 38 287 57 333 c 1
 94 366 135 394 196 404 c 1
 208 405 214 400 214 389 c 0
 212 344 195 278 200 229 c 1
 204 188 219 161 246 150 c 128
 273 139 304 137 338 144 c 128
 401 156 481 197 519 232 c 1
 519 260 516 307 505 324 c 1
 473 316 429 318 412 337 c 1
 398 353 398 373 411 398 c 1
 433 442 450 492 481 527 c 0
 497 545 525 530 536 519 c 0
 582 472 596 406 578 323 c 128
EndSplineSet
EndChar
StartChar: lam-ar
Encoding: 1604 1604 95
Width: 445
GlyphClass: 2
AnchorPoint: "bottom" 176 -189 basechar 0
AnchorPoint: "bottom.mark" 180 -163 basechar 0
AnchorPoint: "top" 198 844 basechar 0
AnchorPoint: "top.mark" 242 848 basechar 0
LayerCount: 2
Back
SplineSet
328.125 665.52734375 m 1,0,-1
 402.34375 783.203125 l 1,1,-1
 426.7578125 393.06640625 l 2,2,3
 427.734375 384.27734375 427.734375 384.27734375 427.734375 379.39453125 c 2,4,-1
 428.7109375 368.1640625 l 1,5,-1
 428.22265625 366.2109375 l 1,6,7
 428.22265625 302.24609375 428.22265625 302.24609375 407.2265625 240.478515625 c 128,-1,8
 386.23046875 178.7109375 386.23046875 178.7109375 349.609375 125.9765625 c 0,9,10
 294.43359375 46.875 294.43359375 46.875 210.9375 16.11328125 c 0,11,12
 167.48046875 0.48828125 167.48046875 0.48828125 130.859375 0.48828125 c 0,13,14
 96.6796875 0.48828125 96.6796875 0.48828125 67.87109375 14.6484375 c 0,15,16
 8.30078125 43.45703125 8.30078125 43.45703125 0 139.16015625 c 0,17,18
 -0.48828125 146.97265625 -0.48828125 146.97265625 -0.48828125 154.78515625 c 0,19,20
 -0.48828125 248.53515625 -0.48828125 248.53515625 87.40234375 409.1796875 c 0,21,22
 92.28515625 418.45703125 92.28515625 418.45703125 96.6796875 418.45703125 c 0,23,24
 98.14453125 418.45703125 98.14453125 418.45703125 99.609375 417.96875 c 0,25,26
 102.5390625 416.50390625 102.5390625 416.50390625 102.5390625 411.62109375 c 0,27,28
 102.5390625 406.25 102.5390625 406.25 99.12109375 397.4609375 c 1,29,30
 87.40234375 371.58203125 87.40234375 371.58203125 69.091796875 335.9375 c 128,-1,31
 50.78125 300.29296875 50.78125 300.29296875 41.50390625 264.6484375 c 0,32,33
 36.62109375 244.62890625 36.62109375 244.62890625 36.62109375 226.07421875 c 0,34,35
 36.62109375 211.42578125 36.62109375 211.42578125 40.0390625 197.265625 c 0,36,37
 47.36328125 166.015625 47.36328125 166.015625 87.40234375 148.92578125 c 1,38,39
 119.140625 143.5546875 119.140625 143.5546875 148.4375 143.5546875 c 0,40,41
 196.77734375 143.5546875 196.77734375 143.5546875 239.74609375 158.203125 c 0,42,43
 308.59375 182.12890625 308.59375 182.12890625 356.93359375 223.14453125 c 1,44,-1
 328.125 665.52734375 l 1,0,-1
EndSplineSet
Fore
SplineSet
328 666 m 1
 402 784 l 1
 407 706 428 366 428 366 c 1
 428 281 398 197 349 126 c 0
 203 -85 -169 -57 87 409 c 0
 95 425 107 422 98 398 c 0
 67 329 -21 195 86 149 c 1
 197 129 292 169 356 223 c 1
 328 666 l 1
EndSplineSet
EndChar
StartChar: meem-ar
Encoding: 1605 1605 99
Width: 505
GlyphClass: 2
AnchorPoint: "Dots Above" 166 586 basechar 0
AnchorPoint: "Tashkil Above" 225 625 basechar 0
AnchorPoint: "Dots Below" 299 -9 basechar 0
AnchorPoint: "Tashkil Below" 317 -24 basechar 0
LayerCount: 2
Back
SplineSet
474.609375 463.8671875 m 0,0,1
 457.03125 375.48828125 457.03125 375.48828125 417.236328125 331.54296875 c 128,-1,2
 377.44140625 287.59765625 377.44140625 287.59765625 305.6640625 251.46484375 c 0,3,4
 256.8359375 226.5625 256.8359375 226.5625 195.3125 213.8671875 c 128,-1,5
 133.7890625 201.171875 133.7890625 201.171875 85.44921875 174.8046875 c 0,6,7
 65.91796875 164.55078125 65.91796875 164.55078125 48.095703125 148.193359375 c 128,-1,8
 30.2734375 131.8359375 30.2734375 131.8359375 35.64453125 99.609375 c 2,9,-1
 76.66015625 -161.1328125 l 1,10,11
 89.84375 -267.08984375 89.84375 -267.08984375 63.4765625 -359.86328125 c 1,12,13
 49.31640625 -254.39453125 49.31640625 -254.39453125 24.90234375 -156.982421875 c 128,-1,14
 0.48828125 -59.5703125 0.48828125 -59.5703125 0 49.31640625 c 0,15,16
 0 103.515625 0 103.515625 11.23046875 155.2734375 c 128,-1,17
 22.4609375 207.03125 22.4609375 207.03125 41.50390625 249.51171875 c 1,18,19
 66.40625 288.0859375 66.40625 288.0859375 109.619140625 306.15234375 c 128,-1,20
 152.83203125 324.21875 152.83203125 324.21875 208.0078125 339.84375 c 2,21,-1
 280.76171875 360.3515625 l 1,22,23
 293.9453125 389.16015625 293.9453125 389.16015625 319.091796875 444.3359375 c 128,-1,24
 344.23828125 499.51171875 344.23828125 499.51171875 371.09375 499.51171875 c 1,25,26
 389.16015625 505.37109375 389.16015625 505.37109375 435.546875 503.662109375 c 128,-1,27
 481.93359375 501.953125 481.93359375 501.953125 474.609375 463.8671875 c 0,0,1
EndSplineSet
Fore
SplineSet
475 464 m 0
 463 405 444 361 417 332 c 128
 370 280 285 232 195 214 c 128
 137 202 85 182 48 148 c 128
 36 137 32 121 36 100 c 2
 77 -161 l 1
 86 -232 81 -298 63 -360 c 1
 54 -290 41 -222 25 -157 c 128
 9 -92 0 -24 0 49 c 0
 0 124 18 197 42 250 c 1
 59 276 81 294 110 306 c 128
 139 318 171 330 208 340 c 2
 281 360 l 1
 290 379 302 407 319 444 c 128
 336 481 353 500 371 500 c 1
 383 504 405 505 436 504 c 128
 467 503 480 489 475 464 c 0
EndSplineSet
EndChar
StartChar: noon-ar
Encoding: 1606 1606 103
Width: 463
GlyphClass: 2
AnchorPoint: "Dots Below" 185 -101 basechar 0
AnchorPoint: "Tashkil Below" 205 -171 basechar 0
AnchorPoint: "Dots Above" 237 664 basechar 0
AnchorPoint: "Tashkil Above" 277 650 basechar 0
LayerCount: 2
Back
SplineSet
97.65625 376.953125 m 1,0,-1
 94.7265625 370.60546875 l 1,1,2
 67.3828125 316.40625 67.3828125 316.40625 41.9921875 248.046875 c 0,3,4
 35.15625 229.98046875 35.15625 229.98046875 35.15625 214.35546875 c 0,5,6
 35.15625 171.38671875 35.15625 171.38671875 87.40234375 148.92578125 c 1,7,8
 119.62890625 143.06640625 119.62890625 143.06640625 149.4140625 143.06640625 c 0,9,10
 201.66015625 143.06640625 201.66015625 143.06640625 248.046875 161.1328125 c 0,11,12
 320.3125 188.96484375 320.3125 188.96484375 368.1640625 232.91015625 c 1,13,-1
 368.1640625 241.69921875 l 2,14,15
 368.1640625 278.3203125 368.1640625 278.3203125 361.328125 309.5703125 c 1,16,17
 353.02734375 344.7265625 353.02734375 344.7265625 342.7734375 378.41796875 c 1,18,-1
 397.4609375 503.41796875 l 1,19,20
 429.19921875 437.01171875 429.19921875 437.01171875 429.19921875 366.69921875 c 0,21,22
 429.19921875 337.890625 429.19921875 337.890625 423.828125 309.08203125 c 0,23,24
 405.76171875 207.51953125 405.76171875 207.51953125 349.609375 125.9765625 c 1,25,26
 294.43359375 46.875 294.43359375 46.875 210.9375 16.11328125 c 0,27,28
 167.48046875 0.48828125 167.48046875 0.48828125 130.859375 0.48828125 c 0,29,30
 96.6796875 0.48828125 96.6796875 0.48828125 67.87109375 14.6484375 c 0,31,32
 8.30078125 43.45703125 8.30078125 43.45703125 0 139.16015625 c 0,33,34
 -0.48828125 146.97265625 -0.48828125 146.97265625 -0.48828125 154.78515625 c 0,35,36
 -0.48828125 248.53515625 -0.48828125 248.53515625 87.40234375 409.1796875 c 0,37,38
 99.12109375 431.15234375 99.12109375 431.15234375 113.525390625 456.0546875 c 128,-1,39
 127.9296875 480.95703125 127.9296875 480.95703125 141.11328125 503.90625 c 1,40,-1
 156.25 495.60546875 l 1,41,-1
 157.71484375 494.62890625 l 1,42,-1
 236.328125 441.89453125 l 1,43,44
 220.21484375 412.109375 220.21484375 412.109375 204.1015625 383.7890625 c 128,-1,45
 187.98828125 355.46875 187.98828125 355.46875 171.875 327.1484375 c 1,46,-1
 97.65625 376.953125 l 1,0,-1
EndSplineSet
Fore
SplineSet
368 242 m 2
 368 296 356 336 343 378 c 1
 397 503 l 1
 418 459 429 414 429 367 c 0
 429 348 428 328 424 309 c 0
 412 241 387 180 350 126 c 0
 313 73 267 37 211 16 c 0
 182 6 155 0 131 0 c 0
 108 0 87 6 68 15 c 0
 26 35 0 84 -0 155 c 0
 0 217 28 302 87 409 c 0
 103 439 124 475 141 504 c 1
 156 496 l 1
 183 478 209 460 236 442 c 1
 225 422 215 403 204 384 c 128
 188 356 188 355 172 327 c 1
 98 377 l 1
 80 337 60 297 42 248 c 0
 37 236 35 224 35 214 c 0
 35 185 52 164 87 149 c 1
 108 145 129 143 149 143 c 0
 184 143 217 149 248 161 c 0
 296 180 336 204 368 233 c 1
 368 242 l 2
EndSplineSet
EndChar
StartChar: heh-ar
Encoding: 1607 1607 105
Width: 247
GlyphClass: 2
AnchorPoint: "bottom" 75 -132 basechar 0
AnchorPoint: "bottom.mark" 97 -167 basechar 0
AnchorPoint: "top" 145 558 basechar 0
AnchorPoint: "top.mark" 158 558 basechar 0
LayerCount: 2
Back
SplineSet
138.18359375 266.6015625 m 0,0,1
 127.44140625 273.92578125 127.44140625 273.92578125 117.1875 273.92578125 c 0,2,3
 93.75 273.92578125 93.75 273.92578125 74.21875 234.375 c 0,4,5
 45.8984375 176.7578125 45.8984375 176.7578125 43.45703125 165.52734375 c 0,6,7
 42.96875 164.0625 42.96875 164.0625 42.96875 163.0859375 c 0,8,9
 42.96875 157.2265625 42.96875 157.2265625 56.640625 150.87890625 c 0,10,11
 74.21875 143.06640625 74.21875 143.06640625 92.28515625 143.06640625 c 0,12,13
 104.98046875 143.06640625 104.98046875 143.06640625 117.67578125 146.97265625 c 1,14,15
 148.92578125 155.2734375 148.92578125 155.2734375 170.8984375 168.9453125 c 0,16,17
 176.26953125 172.36328125 176.26953125 172.36328125 176.26953125 181.15234375 c 0,18,19
 176.26953125 193.84765625 176.26953125 193.84765625 166.015625 218.26171875 c 0,20,21
 147.94921875 259.765625 147.94921875 259.765625 138.18359375 266.6015625 c 0,0,1
216.796875 168.45703125 m 0,22,23
 204.58984375 112.79296875 204.58984375 112.79296875 178.7109375 66.89453125 c 128,-1,24
 152.83203125 20.99609375 152.83203125 20.99609375 89.84375 4.8828125 c 0,25,26
 68.84765625 -0.48828125 68.84765625 -0.48828125 52.734375 -0.48828125 c 0,27,28
 0.9765625 -0.48828125 0.9765625 -0.48828125 0.9765625 56.640625 c 0,29,30
 0.9765625 57.6171875 0.9765625 57.6171875 1.46484375 58.10546875 c 0,31,32
 1.953125 134.765625 1.953125 134.765625 31.25 221.6796875 c 0,33,34
 73.73046875 346.19140625 73.73046875 346.19140625 115.234375 385.25390625 c 0,35,36
 142.08984375 411.1328125 142.08984375 411.1328125 164.0625 411.1328125 c 0,37,38
 175.29296875 411.1328125 175.29296875 411.1328125 185.05859375 404.296875 c 0,39,40
 213.8671875 384.27734375 213.8671875 384.27734375 224.609375 318.84765625 c 0,41,42
 228.515625 294.43359375 228.515625 294.43359375 228.515625 268.06640625 c 0,43,44
 228.515625 222.16796875 228.515625 222.16796875 216.796875 168.45703125 c 0,22,23
EndSplineSet
Fore
SplineSet
138 265 m 0
 90 298 48 179 44 164 c 0
 42 160 51 152 57 149 c 0
 96 132 142 149 171 167 c 0
 188 178 151 256 138 265 c 0
217 167 m 0
 201 93 174 25 90 3 c 0
 -30 -28 -9 104 31 220 c 0
 145 553 267 393 217 167 c 0
EndSplineSet
EndChar
StartChar: alefMaksura-ar
Encoding: 1609 1609 112
Width: 615
GlyphClass: 2
AnchorPoint: "bottom" 259 -97 basechar 0
AnchorPoint: "top" 286 620 basechar 0
AnchorPoint: "bottom.mark" 308 -141 basechar 0
AnchorPoint: "top.mark" 321 681 basechar 0
LayerCount: 2
Back
SplineSet
78.125 23.4375 m 0,0,1
 13.18359375 59.08203125 13.18359375 59.08203125 4.39453125 122.55859375 c 0,2,3
 1.46484375 142.08984375 1.46484375 142.08984375 1.46484375 162.59765625 c 0,4,5
 1.46484375 207.03125 1.46484375 207.03125 15.13671875 254.39453125 c 0,6,7
 34.66796875 323.2421875 34.66796875 323.2421875 70.556640625 386.474609375 c 128,-1,8
 106.4453125 449.70703125 106.4453125 449.70703125 131.8359375 484.86328125 c 0,9,10
 133.7890625 487.3046875 133.7890625 487.3046875 136.23046875 487.3046875 c 0,11,12
 137.20703125 487.3046875 137.20703125 487.3046875 138.671875 486.81640625 c 0,13,14
 140.625 486.328125 140.625 486.328125 140.625 483.88671875 c 0,15,16
 140.625 482.421875 140.625 482.421875 139.6484375 479.98046875 c 0,17,18
 125 449.21875 125 449.21875 102.5390625 407.958984375 c 128,-1,19
 80.078125 366.69921875 80.078125 366.69921875 66.40625 323.73046875 c 0,20,21
 56.15234375 290.52734375 56.15234375 290.52734375 56.15234375 258.30078125 c 0,22,23
 56.15234375 248.53515625 56.15234375 248.53515625 57.12890625 239.2578125 c 0,24,25
 61.03515625 197.75390625 61.03515625 197.75390625 99.609375 167.96875 c 0,26,27
 133.30078125 141.6015625 133.30078125 141.6015625 192.3828125 137.6953125 c 0,28,29
 208.49609375 136.71875 208.49609375 136.71875 224.609375 136.71875 c 0,30,31
 265.625 136.71875 265.625 136.71875 303.22265625 144.04296875 c 1,32,33
 419.921875 165.0390625 419.921875 165.0390625 515.625 227.05078125 c 1,34,35
 464.84375 231.93359375 464.84375 231.93359375 423.095703125 249.755859375 c 128,-1,36
 381.34765625 267.578125 381.34765625 267.578125 369.62890625 308.10546875 c 0,37,38
 367.1875 317.3828125 367.1875 317.3828125 367.1875 328.125 c 0,39,40
 367.1875 367.1875 367.1875 367.1875 401.85546875 429.19921875 c 0,41,42
 446.2890625 508.30078125 446.2890625 508.30078125 478.02734375 538.57421875 c 0,43,44
 491.69921875 552.24609375 491.69921875 552.24609375 512.939453125 568.603515625 c 128,-1,45
 534.1796875 584.9609375 534.1796875 584.9609375 560.546875 586.42578125 c 0,46,47
 563.4765625 586.42578125 563.4765625 586.42578125 570.3125 584.9609375 c 0,48,49
 575.1953125 583.984375 575.1953125 583.984375 575.1953125 580.078125 c 0,50,51
 575.1953125 578.125 575.1953125 578.125 574.21875 576.171875 c 0,52,53
 561.5234375 549.31640625 561.5234375 549.31640625 551.26953125 521.240234375 c 128,-1,54
 541.015625 493.1640625 541.015625 493.1640625 526.3671875 469.23828125 c 1,55,56
 519.04296875 471.19140625 519.04296875 471.19140625 511.23046875 471.19140625 c 0,57,58
 497.55859375 471.19140625 497.55859375 471.19140625 481.93359375 465.8203125 c 0,59,60
 456.0546875 456.54296875 456.0546875 456.54296875 444.82421875 439.94140625 c 0,61,62
 439.453125 432.12890625 439.453125 432.12890625 439.453125 423.828125 c 0,63,64
 439.453125 414.0625 439.453125 414.0625 446.77734375 403.3203125 c 0,65,66
 459.9609375 383.30078125 459.9609375 383.30078125 520.01953125 366.69921875 c 0,67,68
 540.52734375 360.83984375 540.52734375 360.83984375 562.98828125 357.666015625 c 128,-1,69
 585.44921875 354.4921875 585.44921875 354.4921875 598.6328125 340.33203125 c 0,70,71
 614.74609375 323.2421875 614.74609375 323.2421875 614.74609375 300.29296875 c 0,72,73
 614.74609375 272.94921875 614.74609375 272.94921875 591.30859375 236.81640625 c 0,74,75
 559.5703125 187.5 559.5703125 187.5 497.314453125 136.23046875 c 128,-1,76
 435.05859375 84.9609375 435.05859375 84.9609375 361.328125 49.072265625 c 128,-1,77
 287.59765625 13.18359375 287.59765625 13.18359375 212.40234375 2.44140625 c 0,78,79
 192.87109375 -0.48828125 192.87109375 -0.48828125 175.29296875 -0.48828125 c 0,80,81
 122.0703125 -0.48828125 122.0703125 -0.48828125 78.125 23.4375 c 0,0,1
EndSplineSet
Fore
SplineSet
78 24 m 0
 -95 119 65 391 132 485 c 0
 135 490 144 489 140 481 c 0
 101 400 -3 249 100 168 c 0
 145 133 235 131 304 144 c 0
 387 159 456 189 516 228 c 1
 449 235 385 255 370 309 c 0
 354 365 437 499 479 539 c 0
 498 557 526 586 561 587 c 0
 565 587 579 586 575 577 c 0
 558 541 547 502 527 470 c 1
 478 485 361 412 521 367 c 0
 549 359 582 360 600 341 c 0
 625 314 618 276 592 237 c 0
 508 107 235 -62 78 24 c 0
EndSplineSet
EndChar
StartChar: dammatan-ar
Encoding: 1612 1612 414
Width: 0
GlyphClass: 4
AnchorPoint: "Tashkil Above" 0 0 mark 0
AnchorPoint: "Mark Mark Above" 0 0 mark 0
LayerCount: 2
Back
SplineSet
46.7509765625 280.46875 m 0,0,1
 61.3994140625 284.86328125 61.3994140625 284.86328125 75.3154296875 286.81640625 c 0,2,3
 89.2314453125 288.76953125 89.2314453125 288.76953125 101.194335938 286.81640625 c 0,4,5
 113.157226562 284.86328125 113.157226562 284.86328125 122.678710938 279.248046875 c 0,6,7
 132.200195312 273.6328125 132.200195312 273.6328125 138.059570312 263.37890625 c 0,8,9
 143.918945312 254.1015625 143.918945312 254.1015625 145.383789062 242.87109375 c 0,10,11
 146.848632812 231.640625 146.848632812 231.640625 145.139648438 220.41015625 c 0,12,13
 143.430664062 209.1796875 143.430664062 209.1796875 138.791992188 198.681640625 c 0,14,15
 134.153320312 188.18359375 134.153320312 188.18359375 128.293945312 180.37109375 c 0,16,17
 125.364257812 175.9765625 125.364257812 175.9765625 121.946289062 172.0703125 c 0,18,19
 118.528320312 168.1640625 118.528320312 168.1640625 116.086914062 167.1875 c 0,20,21
 113.645507812 166.2109375 113.645507812 166.2109375 113.157226562 169.140625 c 0,22,23
 112.668945312 172.0703125 112.668945312 172.0703125 115.110351562 181.34765625 c 0,24,25
 123.899414062 219.43359375 123.899414062 219.43359375 108.274414062 232.373046875 c 0,26,27
 92.6494140625 245.3125 92.6494140625 245.3125 52.1220703125 237.01171875 c 0,28,29
 35.5205078125 233.59375 35.5205078125 233.59375 15.9892578125 224.072265625 c 0,30,31
 -3.5419921875 214.55078125 -3.5419921875 214.55078125 -22.8291015625 201.123046875 c 0,32,33
 -42.1162109375 187.6953125 -42.1162109375 187.6953125 -59.9384765625 171.826171875 c 0,34,35
 -77.7607421875 155.95703125 -77.7607421875 155.95703125 -90.4560546875 139.599609375 c 0,36,37
 -103.151367188 123.2421875 -103.151367188 123.2421875 -109.743164062 108.10546875 c 0,38,39
 -116.334960938 92.96875 -116.334960938 92.96875 -113.405273438 81.25 c 1,40,41
 -110.963867188 65.625 -110.963867188 65.625 -99.7333984375 60.7421875 c 0,42,43
 -88.5029296875 55.859375 -88.5029296875 55.859375 -74.5869140625 57.568359375 c 0,44,45
 -60.6708984375 59.27734375 -60.6708984375 59.27734375 -46.5107421875 64.6484375 c 0,46,47
 -32.3505859375 70.01953125 -32.3505859375 70.01953125 -23.5615234375 74.90234375 c 1,48,-1
 -46.5107421875 26.07421875 l 1,49,50
 -61.1591796875 16.30859375 -61.1591796875 16.30859375 -75.5634765625 12.646484375 c 0,51,52
 -89.9677734375 8.984375 -89.9677734375 8.984375 -102.663085938 11.42578125 c 0,53,54
 -115.358398438 13.8671875 -115.358398438 13.8671875 -125.368164062 22.16796875 c 0,55,56
 -135.377929688 30.46875 -135.377929688 30.46875 -141.237304688 45.1171875 c 0,57,58
 -149.049804688 65.625 -149.049804688 65.625 -145.387695312 88.57421875 c 0,59,60
 -141.725585938 111.5234375 -141.725585938 111.5234375 -130.006835938 131.0546875 c 1,61,62
 -105.104492188 185.7421875 -105.104492188 185.7421875 -58.7177734375 223.828125 c 0,63,64
 -12.3310546875 261.9140625 -12.3310546875 261.9140625 46.7509765625 280.46875 c 0,0,1
EndSplineSet
Refer: 19 1615 N 1 0 0 1 0 0 2
Fore
SplineSet
47 280 m 0
 98 295 155 283 145 220 c 0
 142 200 133 184 122 172 c 0
 120 169 114 164 113 169 c 0
 113 171 113 175 115 181 c 0
 127 233 104 248 52 237 c 0
 8 228 -31 198 -60 172 c 0
 -80 154 -99 132 -110 108 c 0
 -114 98 -115 89 -113 81 c 1
 -106 39 -46 63 -24 75 c 1
 -47 26 l 1
 -69 11 -101 2 -125 22 c 0
 -154 46 -149 99 -130 131 c 1
 -97 203 -32 255 47 280 c 0
EndSplineSet
Refer: 19 1615 N 1 0 0 1 0 0 2
EndChar
StartChar: uni064C
Encoding: 1612 1612 414
Width: 0
GlyphClass: 4
AnchorPoint: "Tashkil Above" 0 0 mark 0
AnchorPoint: "Mark Mark Above" 0 0 mark 0
LayerCount: 2
Back
SplineSet
95.7451171875 574.400390625 m 0,0,1
 125.745117188 583.400390625 125.745117188 583.400390625 154.245117188 587.400390625 c 0,2,3
 182.745117188 591.400390625 182.745117188 591.400390625 207.245117188 587.400390625 c 0,4,5
 231.745117188 583.400390625 231.745117188 583.400390625 251.245117188 571.900390625 c 0,6,7
 270.745117188 560.400390625 270.745117188 560.400390625 282.745117188 539.400390625 c 0,8,9
 294.745117188 520.400390625 294.745117188 520.400390625 297.745117188 497.400390625 c 0,10,11
 300.745117188 474.400390625 300.745117188 474.400390625 297.245117188 451.400390625 c 0,12,13
 293.745117188 428.400390625 293.745117188 428.400390625 284.245117188 406.900390625 c 0,14,15
 274.745117188 385.400390625 274.745117188 385.400390625 262.745117188 369.400390625 c 0,16,17
 256.745117188 360.400390625 256.745117188 360.400390625 249.745117188 352.400390625 c 0,18,19
 242.745117188 344.400390625 242.745117188 344.400390625 237.745117188 342.400390625 c 0,20,21
 232.745117188 340.400390625 232.745117188 340.400390625 231.745117188 346.400390625 c 0,22,23
 230.745117188 352.400390625 230.745117188 352.400390625 235.745117188 371.400390625 c 0,24,25
 253.745117188 449.400390625 253.745117188 449.400390625 221.745117188 475.900390625 c 0,26,27
 189.745117188 502.400390625 189.745117188 502.400390625 106.745117188 485.400390625 c 0,28,29
 72.7451171875 478.400390625 72.7451171875 478.400390625 32.7451171875 458.900390625 c 0,30,31
 -7.2548828125 439.400390625 -7.2548828125 439.400390625 -46.7548828125 411.900390625 c 0,32,33
 -86.2548828125 384.400390625 -86.2548828125 384.400390625 -122.754882812 351.900390625 c 0,34,35
 -159.254882812 319.400390625 -159.254882812 319.400390625 -185.254882812 285.900390625 c 0,36,37
 -211.254882812 252.400390625 -211.254882812 252.400390625 -224.754882812 221.400390625 c 0,38,39
 -238.254882812 190.400390625 -238.254882812 190.400390625 -232.254882812 166.400390625 c 1,40,41
 -227.254882812 134.400390625 -227.254882812 134.400390625 -204.254882812 124.400390625 c 0,42,43
 -181.254882812 114.400390625 -181.254882812 114.400390625 -152.754882812 117.900390625 c 0,44,45
 -124.254882812 121.400390625 -124.254882812 121.400390625 -95.2548828125 132.400390625 c 0,46,47
 -66.2548828125 143.400390625 -66.2548828125 143.400390625 -48.2548828125 153.400390625 c 1,48,-1
 -95.2548828125 53.400390625 l 1,49,50
 -125.254882812 33.400390625 -125.254882812 33.400390625 -154.754882812 25.900390625 c 0,51,52
 -184.254882812 18.400390625 -184.254882812 18.400390625 -210.254882812 23.400390625 c 0,53,54
 -236.254882812 28.400390625 -236.254882812 28.400390625 -256.754882812 45.400390625 c 0,55,56
 -277.254882812 62.400390625 -277.254882812 62.400390625 -289.254882812 92.400390625 c 0,57,58
 -305.254882812 134.400390625 -305.254882812 134.400390625 -297.754882812 181.400390625 c 0,59,60
 -290.254882812 228.400390625 -290.254882812 228.400390625 -266.254882812 268.400390625 c 1,61,62
 -215.254882812 380.400390625 -215.254882812 380.400390625 -120.254882812 458.400390625 c 0,63,64
 -25.2548828125 536.400390625 -25.2548828125 536.400390625 95.7451171875 574.400390625 c 0,0,1
EndSplineSet
Refer: 19 1615 N 1 0 0 1 0 0 2
Fore
SplineSet
95.7451171875 574.400390625 m 0
 115.745117188 580.400390625 135.245117188 584.733723958 154.245117188 587.400390625 c 0
 173.245117188 590.067057292 190.911783855 590.067057292 207.245117188 587.400390625 c 0
 223.578450521 584.733723958 238.245117188 579.567057292 251.245117188 571.900390625 c 0
 264.245117188 564.233723958 274.745117188 553.400390625 282.745117188 539.400390625 c 0
 290.745117188 526.733723958 295.745117188 512.733723958 297.745117188 497.400390625 c 0
 299.745117188 482.067057292 299.578450521 466.733723958 297.245117188 451.400390625 c 0
 294.911783855 436.067057292 290.578450521 421.233723958 284.245117188 406.900390625 c 0
 277.911783855 392.567057292 270.745117188 380.067057292 262.745117188 369.400390625 c 0
 258.745117188 363.400390625 254.411783855 357.733723958 249.745117188 352.400390625 c 0
 245.078450521 347.067057292 241.078450521 343.733723958 237.745117188 342.400390625 c 0
 234.411783855 341.067057292 232.411783855 342.400390625 231.745117188 346.400390625 c 0
 231.078450521 350.400390625 232.411783855 358.733723958 235.745117188 371.400390625 c 0
 247.745117188 423.400390625 243.078450521 458.233723958 221.745117188 475.900390625 c 0
 200.411783855 493.567057292 162.078450521 496.733723958 106.745117188 485.400390625 c 0
 84.078450521 480.733723958 59.4117838542 471.900390625 32.7451171875 458.900390625 c 0
 6.07845052083 445.900390625 -20.4215494792 430.233723958 -46.7548828125 411.900390625 c 0
 -73.0882161458 393.567057292 -98.421549479 373.567057292 -122.754882812 351.900390625 c 0
 -147.088216145 330.233723958 -167.921549479 308.233723958 -185.254882812 285.900390625 c 0
 -202.588216145 263.567057292 -215.754882812 242.067057292 -224.754882812 221.400390625 c 0
 -233.754882812 200.733723958 -236.254882812 182.400390625 -232.254882812 166.400390625 c 1
 -228.921549479 145.067057292 -219.588216145 131.067057292 -204.254882812 124.400390625 c 0
 -188.921549479 117.733723958 -171.754882812 115.567057292 -152.754882812 117.900390625 c 0
 -133.754882812 120.233723958 -114.588216145 125.067057292 -95.2548828125 132.400390625 c 0
 -75.9215494792 139.733723958 -60.2548828125 146.733723958 -48.2548828125 153.400390625 c 1
 -95.2548828125 53.400390625 l 1
 -115.254882812 40.0670572917 -135.088216145 30.900390625 -154.754882812 25.900390625 c 0
 -174.421549479 20.900390625 -192.921549479 20.0670572917 -210.254882812 23.400390625 c 0
 -227.588216145 26.7337239583 -243.088216145 34.0670572917 -256.754882812 45.400390625 c 0
 -270.421549479 56.7337239583 -281.254882812 72.400390625 -289.254882812 92.400390625 c 0
 -299.921549479 120.400390625 -302.754882812 150.067057292 -297.754882812 181.400390625 c 0
 -292.754882812 212.733723958 -282.254882812 241.733723958 -266.254882812 268.400390625 c 1
 -232.254882812 343.067057292 -183.588216145 406.400390625 -120.254882812 458.400390625 c 0
 -56.921549479 510.400390625 15.0784505208 549.067057292 95.7451171875 574.400390625 c 0
EndSplineSet
Refer: 19 1615 N 1 0 0 1 0 0 2
EndChar
StartChar: fatha-ar
Encoding: 1614 1614 18
Width: 0
GlyphClass: 4
AnchorPoint: "top.mkmk" -20 122 basemark 0
AnchorPoint: "top.mkmk" 0 0 mark 0
AnchorPoint: "top.mark" 0 0 mark 0
LayerCount: 2
Back
SplineSet
-99.12109375 -22.94921875 m 1,0,-1
 -98.6328125 -22.94921875 l 1,1,2
 -83.0078125 -16.6015625 -83.0078125 -16.6015625 -58.59375 -7.568359375 c 128,-1,3
 -34.1796875 1.46484375 -34.1796875 1.46484375 -6.103515625 11.962890625 c 128,-1,4
 21.97265625 22.4609375 21.97265625 22.4609375 51.7578125 33.203125 c 128,-1,5
 81.54296875 43.9453125 81.54296875 43.9453125 107.91015625 53.22265625 c 1,6,-1
 79.1015625 7.32421875 l 1,7,8
 25.390625 -11.71875 25.390625 -11.71875 -30.517578125 -32.2265625 c 128,-1,9
 -86.42578125 -52.734375 -86.42578125 -52.734375 -131.8359375 -75.1953125 c 1,10,-1
 -99.12109375 -22.94921875 l 1,0,-1
EndSplineSet
Fore
SplineSet
-99 -23 m 1
 -99 -23 l 1
 -35 3 41 29 108 53 c 1
 79 7 l 1
 10 -17 -71 -45 -132 -75 c 1
 -99 -23 l 1
EndSplineSet
EndChar
StartChar: uni064E
Encoding: 1614 1614 18
Width: 0
GlyphClass: 4
AnchorPoint: "Mark Mark Above" -40 250 basemark 0
AnchorPoint: "Mark Mark Above" 0 0 mark 0
AnchorPoint: "Tashkil Above" 0 0 mark 0
LayerCount: 2
Back
SplineSet
-203 -47 m 1,0,-1
 -202 -47 l 1,1,2
 -170 -34 -170 -34 -120 -15.5 c 128,-1,3
 -70 3 -70 3 -12.5 24.5 c 128,-1,4
 45 46 45 46 106 68 c 128,-1,5
 167 90 167 90 221 109 c 1,6,-1
 162 15 l 1,7,8
 52 -24 52 -24 -62.5 -66 c 128,-1,9
 -177 -108 -177 -108 -270 -154 c 1,10,-1
 -203 -47 l 1,0,-1
EndSplineSet
Fore
SplineSet
-203 -47 m 1
 -202 -47 l 1
 -180.666666667 -38.3333333333 -153.333333333 -27.8333333333 -120 -15.5 c 128
 -86.6666666667 -3.16666666667 -50.8333333333 10.1666666667 -12.5 24.5 c 128
 25.8333333333 38.8333333333 65.3333333333 53.3333333333 106 68 c 128
 146.666666667 82.6666666667 185 96.3333333333 221 109 c 1
 162 15 l 1
 88.6666666667 -11 13.8333333333 -38 -62.5 -66 c 128
 -138.833333333 -94 -208 -123.333333333 -270 -154 c 1
 -203 -47 l 1
EndSplineSet
EndChar
StartChar: damma-ar
Encoding: 1615 1615 19
Width: 0
GlyphClass: 4
AnchorPoint: "Mark Mark Above" 0 0 mark 0
AnchorPoint: "Tashkil Above" 0 0 mark 0
LayerCount: 2
Back
SplineSet
40.0390625 45.8984375 m 1,0,1
 25.87890625 54.19921875 25.87890625 54.19921875 13.916015625 62.98828125 c 128,-1,2
 1.953125 71.77734375 1.953125 71.77734375 -3.41796875 83.984375 c 1,3,4
 -7.32421875 91.30859375 -7.32421875 91.30859375 -7.32421875 99.609375 c 0,5,6
 -7.32421875 104.98046875 -7.32421875 104.98046875 -5.859375 110.83984375 c 0,7,8
 -2.44140625 125.48828125 -2.44140625 125.48828125 14.16015625 145.5078125 c 1,9,10
 30.76171875 164.55078125 30.76171875 164.55078125 47.36328125 171.38671875 c 0,11,12
 55.17578125 174.8046875 55.17578125 174.8046875 62.01171875 174.8046875 c 0,13,14
 69.3359375 174.8046875 69.3359375 174.8046875 75.68359375 170.8984375 c 0,15,16
 86.9140625 163.57421875 86.9140625 163.57421875 89.35546875 141.6015625 c 0,17,18
 89.84375 137.6953125 89.84375 137.6953125 89.84375 133.7890625 c 0,19,20
 89.84375 112.79296875 89.84375 112.79296875 78.61328125 79.58984375 c 1,21,22
 83.49609375 76.171875 83.49609375 76.171875 86.9140625 72.021484375 c 128,-1,23
 90.33203125 67.87109375 90.33203125 67.87109375 90.8203125 61.5234375 c 1,24,-1
 90.8203125 60.546875 l 2,25,26
 90.8203125 54.6875 90.8203125 54.6875 87.40234375 46.38671875 c 0,27,28
 83.984375 37.109375 83.984375 37.109375 75.68359375 23.92578125 c 1,29,30
 71.77734375 28.80859375 71.77734375 28.80859375 67.626953125 31.25 c 128,-1,31
 63.4765625 33.69140625 63.4765625 33.69140625 58.10546875 37.109375 c 1,32,33
 40.0390625 12.6953125 40.0390625 12.6953125 21.97265625 -3.41796875 c 128,-1,34
 3.90625 -19.53125 3.90625 -19.53125 -17.822265625 -31.005859375 c 128,-1,35
 -39.55078125 -42.48046875 -39.55078125 -42.48046875 -64.453125 -51.26953125 c 128,-1,36
 -89.35546875 -60.05859375 -89.35546875 -60.05859375 -120.60546875 -67.87109375 c 1,37,-1
 -127.44140625 -68.84765625 l 1,38,39
 -127.44140625 -67.3828125 -127.44140625 -67.3828125 -117.67578125 -61.5234375 c 0,40,41
 -107.91015625 -55.17578125 -107.91015625 -55.17578125 -92.28515625 -45.166015625 c 128,-1,42
 -76.66015625 -35.15625 -76.66015625 -35.15625 -57.12890625 -22.705078125 c 128,-1,43
 -37.59765625 -10.25390625 -37.59765625 -10.25390625 -18.5546875 2.44140625 c 128,-1,44
 0.48828125 15.13671875 0.48828125 15.13671875 16.11328125 26.3671875 c 128,-1,45
 31.73828125 37.59765625 31.73828125 37.59765625 40.0390625 45.8984375 c 1,0,1
59.5703125 88.8671875 m 1,46,47
 62.01171875 101.07421875 62.01171875 101.07421875 62.01171875 109.375 c 0,48,49
 62.01171875 113.76953125 62.01171875 113.76953125 61.5234375 117.1875 c 0,50,51
 59.5703125 126.953125 59.5703125 126.953125 54.19921875 130.859375 c 0,52,53
 49.8046875 133.7890625 49.8046875 133.7890625 44.921875 133.7890625 c 2,54,-1
 42.48046875 133.7890625 l 1,55,56
 36.1328125 132.8125 36.1328125 132.8125 31.005859375 129.39453125 c 128,-1,57
 25.87890625 125.9765625 25.87890625 125.9765625 23.92578125 121.09375 c 0,58,59
 22.94921875 119.140625 22.94921875 119.140625 22.94921875 117.67578125 c 0,60,61
 22.94921875 114.2578125 22.94921875 114.2578125 25.87890625 110.83984375 c 0,62,63
 32.71484375 103.515625 32.71484375 103.515625 41.259765625 98.6328125 c 128,-1,64
 49.8046875 93.75 49.8046875 93.75 59.5703125 88.8671875 c 1,46,47
EndSplineSet
Fore
SplineSet
79 80 m 1
 85 76 90 71 91 62 c 1
 91 61 l 2
 91 47 84 36 76 24 c 1
 71 31 65 32 58 37 c 1
 15 -21 -40 -48 -121 -68 c 1
 -127 -69 l 1
 -127 -68 -125 -66 -118 -62 c 0
 -76 -35 -25 -3 16 26 c 128
 26 33 34 40 40 46 c 1
 21 57 -7 72 -7 100 c 0
 -7 129 25 162 47 171 c 0
 52 173 57 175 62 175 c 0
 82 175 90 157 90 134 c 0
 90 120 86 102 79 80 c 1
42 134 m 1
 34 133 23 127 23 118 c 0
 23 104 50 94 60 89 c 1
 62 97 62 103 62 109 c 0
 62 123 57 134 45 134 c 2
 42 134 l 1
EndSplineSet
EndChar
StartChar: uni064F
Encoding: 1615 1615 19
Width: 0
GlyphClass: 4
Flags: W
AnchorPoint: "arMarkMark.above" 0 0 mark 0
AnchorPoint: "Anchor-14" 0 0 mark 0
LayerCount: 2
Fore
SplineSet
82 94 m 1,0,1
 53 111 53 111 28.5 129 c 128,-1,2
 4 147 4 147 -7 172 c 1,3,4
 -15 187 -15 187 -15 204 c 0,5,6
 -15 215 -15 215 -12 227 c 0,7,8
 -5 257 -5 257 29 298 c 1,9,10
 63 337 63 337 97 351 c 0,11,12
 113 358 113 358 127 358 c 0,13,14
 142 358 142 358 155 350 c 0,15,16
 178 335 178 335 183 290 c 0,17,18
 184 282 184 282 184 274 c 0,19,20
 184 231 184 231 161 163 c 1,21,22
 171 156 171 156 178 147.5 c 128,-1,23
 185 139 185 139 186 126 c 1,24,-1
 186 124 l 2,25,26
 186 112 186 112 179 95 c 0,27,28
 172 76 172 76 155 49 c 1,29,30
 147 59 147 59 138.5 64 c 128,-1,31
 130 69 130 69 119 76 c 1,32,33
 82 26 82 26 45 -7 c 128,-1,34
 8 -40 8 -40 -36.5 -63.5 c 128,-1,35
 -81 -87 -81 -87 -132 -105 c 128,-1,36
 -183 -123 -183 -123 -247 -139 c 1,37,-1
 -261 -141 l 1,38,39
 -261 -138 -261 -138 -241 -126 c 0,40,41
 -221 -113 -221 -113 -189 -92.5 c 128,-1,42
 -157 -72 -157 -72 -117 -46.5 c 128,-1,43
 -77 -21 -77 -21 -38 5 c 128,-1,44
 1 31 1 31 33 54 c 128,-1,45
 65 77 65 77 82 94 c 1,0,1
122 182 m 1,46,47
 127 207 127 207 127 224 c 0,48,49
 127 233 127 233 126 240 c 0,50,51
 122 260 122 260 111 268 c 0,52,53
 102 274 102 274 92 274 c 2,54,-1
 87 274 l 1,55,56
 74 272 74 272 63.5 265 c 128,-1,57
 53 258 53 258 49 248 c 0,58,59
 47 244 47 244 47 241 c 0,60,61
 47 234 47 234 53 227 c 0,62,63
 67 212 67 212 84.5 202 c 128,-1,64
 102 192 102 192 122 182 c 1,46,47
EndSplineSet
EndChar
StartChar: shadda-ar
Encoding: 1617 1617 21
Width: 0
GlyphClass: 4
AnchorPoint: "Mark Mark Below" -5 -195 basemark 0
AnchorPoint: "Mark Mark Above" -10 171 basemark 0
AnchorPoint: "Mark Mark Above" 0 0 mark 0
AnchorPoint: "Tashkil Above" 0 0 mark 0
LayerCount: 2
Back
SplineSet
-70.80078125 -72.265625 m 1,0,1
 -94.7265625 -70.80078125 -94.7265625 -70.80078125 -104.248046875 -57.6171875 c 128,-1,2
 -113.76953125 -44.43359375 -113.76953125 -44.43359375 -114.74609375 -26.85546875 c 0,3,4
 -115.234375 -22.94921875 -115.234375 -22.94921875 -115.234375 -19.04296875 c 0,5,6
 -115.234375 -5.37109375 -115.234375 -5.37109375 -111.81640625 9.27734375 c 0,7,8
 -107.421875 27.34375 -107.421875 27.34375 -103.515625 40.0390625 c 0,9,10
 -103.515625 40.52734375 -103.515625 40.52734375 -103.271484375 41.015625 c 128,-1,11
 -103.02734375 41.50390625 -103.02734375 41.50390625 -103.02734375 41.9921875 c 0,12,13
 -103.02734375 42.96875 -103.02734375 42.96875 -102.5390625 43.701171875 c 128,-1,14
 -102.05078125 44.43359375 -102.05078125 44.43359375 -102.05078125 44.921875 c 0,15,16
 -100.5859375 48.828125 -100.5859375 48.828125 -96.923828125 56.884765625 c 128,-1,17
 -93.26171875 64.94140625 -93.26171875 64.94140625 -87.40234375 64.94140625 c 1,18,-1
 -87.40234375 63.96484375 l 2,19,20
 -87.40234375 62.01171875 -87.40234375 62.01171875 -88.37890625 56.15234375 c 1,21,22
 -90.33203125 48.828125 -90.33203125 48.828125 -91.30859375 39.0625 c 0,23,24
 -92.28515625 31.73828125 -92.28515625 31.73828125 -92.28515625 24.4140625 c 2,25,-1
 -92.28515625 18.5546875 l 1,26,27
 -91.796875 8.30078125 -91.796875 8.30078125 -86.669921875 0.9765625 c 128,-1,28
 -81.54296875 -6.34765625 -81.54296875 -6.34765625 -70.80078125 -8.7890625 c 0,29,30
 -68.359375 -9.27734375 -68.359375 -9.27734375 -64.453125 -9.27734375 c 0,31,32
 -55.17578125 -9.27734375 -55.17578125 -9.27734375 -41.50390625 -4.8828125 c 0,33,34
 -33.203125 -2.44140625 -33.203125 -2.44140625 -27.34375 4.8828125 c 128,-1,35
 -21.484375 12.20703125 -21.484375 12.20703125 -17.578125 21.728515625 c 128,-1,36
 -13.671875 31.25 -13.671875 31.25 -10.986328125 41.015625 c 128,-1,37
 -8.30078125 50.78125 -8.30078125 50.78125 -7.8125 58.10546875 c 1,38,-1
 6.8359375 72.75390625 l 1,39,-1
 6.8359375 72.265625 l 2,40,41
 6.8359375 70.80078125 6.8359375 70.80078125 6.591796875 70.068359375 c 128,-1,42
 6.34765625 69.3359375 6.34765625 69.3359375 6.34765625 67.87109375 c 0,43,44
 5.859375 62.01171875 5.859375 62.01171875 5.859375 55.6640625 c 0,45,46
 5.859375 48.828125 5.859375 48.828125 6.8359375 41.9921875 c 0,47,48
 8.30078125 28.80859375 8.30078125 28.80859375 16.6015625 20.99609375 c 1,49,50
 28.80859375 8.30078125 28.80859375 8.30078125 39.0625 8.30078125 c 2,51,-1
 41.015625 8.30078125 l 1,52,53
 51.7578125 9.765625 51.7578125 9.765625 59.08203125 19.04296875 c 128,-1,54
 66.40625 28.3203125 66.40625 28.3203125 69.82421875 41.9921875 c 0,55,56
 72.265625 53.22265625 72.265625 53.22265625 72.265625 62.5 c 2,57,-1
 72.265625 66.40625 l 1,58,-1
 90.33203125 83.0078125 l 1,59,60
 88.8671875 66.40625 88.8671875 66.40625 86.669921875 40.283203125 c 128,-1,61
 84.47265625 14.16015625 84.47265625 14.16015625 76.904296875 -9.27734375 c 128,-1,62
 69.3359375 -32.71484375 69.3359375 -32.71484375 55.17578125 -46.38671875 c 0,63,64
 45.8984375 -55.17578125 45.8984375 -55.17578125 32.71484375 -55.17578125 c 0,65,66
 24.90234375 -55.17578125 24.90234375 -55.17578125 15.625 -52.24609375 c 1,67,68
 4.8828125 -46.38671875 4.8828125 -46.38671875 -1.708984375 -38.330078125 c 128,-1,69
 -8.30078125 -30.2734375 -8.30078125 -30.2734375 -12.20703125 -22.4609375 c 1,70,71
 -13.671875 -31.25 -13.671875 -31.25 -19.53125 -40.0390625 c 128,-1,72
 -25.390625 -48.828125 -25.390625 -48.828125 -33.69140625 -55.6640625 c 128,-1,73
 -41.9921875 -62.5 -41.9921875 -62.5 -52.001953125 -66.89453125 c 128,-1,74
 -62.01171875 -71.2890625 -62.01171875 -71.2890625 -70.80078125 -72.265625 c 1,0,1
EndSplineSet
Fore
SplineSet
-12 -22 m 1
 -16 -48 -44 -69 -71 -72 c 1
 -103 -70 -115 -50 -115 -19 c 0
 -115 1 -108 25 -104 40 c 0
 -104 41 -103 41 -103 42 c 0
 -103 43 -102 44 -102 45 c 0
 -100 50 -95 65 -87 65 c 1
 -87 64 l 2
 -87 52 -92 38 -92 24 c 2
 -92 19 l 1
 -91 3 -82 -9 -64 -9 c 0
 -51 -9 -34 -4 -27 5 c 128
 -17 17 -9 38 -8 58 c 1
 7 73 l 1
 7 72 l 2
 7 70 6 70 6 68 c 0
 6 64 6 60 6 56 c 0
 6 41 9 29 17 21 c 1
 25 13 32 8 39 8 c 2
 41 8 l 1
 62 11 72 37 72 62 c 2
 72 66 l 1
 90 83 l 1
 86 35 82 -20 55 -46 c 0
 49 -52 42 -55 33 -55 c 0
 9 -55 -4 -37 -12 -22 c 1
EndSplineSet
EndChar
StartChar: uni0651
Encoding: 1617 1617 21
Width: 0
GlyphClass: 4
AnchorPoint: "Mark Mark Below" -10 -400 basemark 0
AnchorPoint: "Mark Mark Above" -20 350 basemark 0
AnchorPoint: "Mark Mark Above" 0 0 mark 0
AnchorPoint: "Tashkil Above" 0 0 mark 0
LayerCount: 2
Back
SplineSet
-145 -148 m 1,0,1
 -194 -145 -194 -145 -213.5 -118 c 128,-1,2
 -233 -91 -233 -91 -235 -55 c 0,3,4
 -236 -47 -236 -47 -236 -39 c 0,5,6
 -236 -11 -236 -11 -229 19 c 0,7,8
 -220 56 -220 56 -212 82 c 0,9,10
 -212 83 -212 83 -211.5 84 c 128,-1,11
 -211 85 -211 85 -211 86 c 0,12,13
 -211 88 -211 88 -210 89.5 c 128,-1,14
 -209 91 -209 91 -209 92 c 0,15,16
 -206 100 -206 100 -198.5 116.5 c 128,-1,17
 -191 133 -191 133 -179 133 c 1,18,-1
 -179 131 l 2,19,20
 -179 127 -179 127 -181 115 c 1,21,22
 -185 100 -185 100 -187 80 c 0,23,24
 -189 65 -189 65 -189 50 c 2,25,-1
 -189 38 l 1,26,27
 -188 17 -188 17 -177.5 2 c 128,-1,28
 -167 -13 -167 -13 -145 -18 c 0,29,30
 -140 -19 -140 -19 -132 -19 c 0,31,32
 -113 -19 -113 -19 -85 -10 c 0,33,34
 -68 -5 -68 -5 -56 10 c 128,-1,35
 -44 25 -44 25 -36 44.5 c 128,-1,36
 -28 64 -28 64 -22.5 84 c 128,-1,37
 -17 104 -17 104 -16 119 c 1,38,-1
 14 149 l 1,39,-1
 14 148 l 2,40,41
 14 145 14 145 13.5 143.5 c 128,-1,42
 13 142 13 142 13 139 c 0,43,44
 12 127 12 127 12 114 c 0,45,46
 12 100 12 100 14 86 c 0,47,48
 17 59 17 59 34 43 c 1,49,50
 59 17 59 17 80 17 c 2,51,-1
 84 17 l 1,52,53
 106 20 106 20 121 39 c 128,-1,54
 136 58 136 58 143 86 c 0,55,56
 148 109 148 109 148 128 c 2,57,-1
 148 136 l 1,58,-1
 185 170 l 1,59,60
 182 136 182 136 177.5 82.5 c 128,-1,61
 173 29 173 29 157.5 -19 c 128,-1,62
 142 -67 142 -67 113 -95 c 0,63,64
 94 -113 94 -113 67 -113 c 0,65,66
 51 -113 51 -113 32 -107 c 1,67,68
 10 -95 10 -95 -3.5 -78.5 c 128,-1,69
 -17 -62 -17 -62 -25 -46 c 1,70,71
 -28 -64 -28 -64 -40 -82 c 128,-1,72
 -52 -100 -52 -100 -69 -114 c 128,-1,73
 -86 -128 -86 -128 -106.5 -137 c 128,-1,74
 -127 -146 -127 -146 -145 -148 c 1,0,1
EndSplineSet
Fore
SplineSet
-145 -148 m 1
 -177.666666667 -146 -200.5 -136 -213.5 -118 c 128
 -226.5 -100 -233.666666667 -79 -235 -55 c 0
 -235.666666667 -49.6666666667 -236 -44.3333333333 -236 -39 c 0
 -236 -20.3333333333 -233.666666667 -1 -229 19 c 0
 -223 43.6666666667 -217.333333333 64.6666666667 -212 82 c 0
 -212 82.6666666667 -211.833333333 83.3333333333 -211.5 84 c 128
 -211.166666667 84.6666666667 -211 85.3333333333 -211 86 c 0
 -211 87.3333333333 -210.666666667 88.5 -210 89.5 c 128
 -209.333333333 90.5 -209 91.3333333333 -209 92 c 0
 -207 97.3333333333 -203.5 105.5 -198.5 116.5 c 128
 -193.5 127.5 -187 133 -179 133 c 1
 -179 131 l 2
 -179 128.333333333 -179.666666667 123 -181 115 c 1
 -183.666666667 105 -185.666666667 93.3333333333 -187 80 c 0
 -188.333333333 70 -189 60 -189 50 c 2
 -189 38 l 1
 -188.333333333 24 -184.5 12 -177.5 2 c 128
 -170.5 -8 -159.666666667 -14.6666666667 -145 -18 c 0
 -141.666666667 -18.6666666667 -137.333333333 -19 -132 -19 c 0
 -119.333333333 -19 -103.666666667 -16 -85 -10 c 0
 -73.6666666667 -6.66666666667 -64 0 -56 10 c 128
 -48 20 -41.3333333333 31.5 -36 44.5 c 128
 -30.6666666667 57.5 -26.1666666667 70.6666666667 -22.5 84 c 128
 -18.8333333333 97.3333333333 -16.6666666667 109 -16 119 c 1
 14 149 l 1
 14 148 l 2
 14 146 13.8333333333 144.5 13.5 143.5 c 128
 13.1666666667 142.5 13 141 13 139 c 0
 12.3333333333 131 12 122.666666667 12 114 c 0
 12 104.666666667 12.6666666667 95.3333333333 14 86 c 0
 16 68 22.6666666667 53.6666666667 34 43 c 1
 50.6666666667 25.6666666667 66 17 80 17 c 2
 84 17 l 1
 98.6666666667 19 111 26.3333333333 121 39 c 128
 131 51.6666666667 138.333333333 67.3333333333 143 86 c 0
 146.333333333 101.333333333 148 115.333333333 148 128 c 2
 148 136 l 1
 185 170 l 1
 183 147.333333333 180.5 118.166666667 177.5 82.5 c 128
 174.5 46.8333333333 167.833333333 13 157.5 -19 c 128
 147.166666667 -51 132.333333333 -76.3333333333 113 -95 c 0
 100.333333333 -107 85 -113 67 -113 c 0
 56.3333333333 -113 44.6666666667 -111 32 -107 c 1
 17.3333333333 -99 5.5 -89.5 -3.5 -78.5 c 128
 -12.5 -67.5 -19.6666666667 -56.6666666667 -25 -46 c 1
 -27 -58 -32 -70 -40 -82 c 128
 -48 -94 -57.6666666667 -104.666666667 -69 -114 c 128
 -80.3333333333 -123.333333333 -92.8333333333 -131 -106.5 -137 c 128
 -120.166666667 -143 -133 -146.666666667 -145 -148 c 1
EndSplineSet
EndChar
StartChar: sukun-ar
Encoding: 1618 1618 22
AltUni2: 0006e1.ffffffff.0
Width: 0
GlyphClass: 4
AnchorPoint: "Mark Mark Above" 0 0 mark 0
AnchorPoint: "Tashkil Above" 0 0 mark 0
LayerCount: 2
Back
SplineSet
62.01171875 10.7421875 m 1,0,-1
 62.5 13.18359375 l 1,1,2
 54.19921875 20.5078125 54.19921875 20.5078125 0.48828125 25.87890625 c 0,3,4
 -15.13671875 27.34375 -15.13671875 27.34375 -27.83203125 27.34375 c 0,5,6
 -59.08203125 27.34375 -59.08203125 27.34375 -71.77734375 18.06640625 c 0,7,8
 -77.1484375 14.16015625 -77.1484375 14.16015625 -85.693359375 6.103515625 c 128,-1,9
 -94.23828125 -1.953125 -94.23828125 -1.953125 -96.6796875 -3.41796875 c 1,10,-1
 -97.65625 -2.9296875 l 1,11,12
 -97.65625 4.39453125 -97.65625 4.39453125 -84.716796875 35.15625 c 128,-1,13
 -71.77734375 65.91796875 -71.77734375 65.91796875 -47.8515625 95.703125 c 0,14,15
 -35.15625 110.83984375 -35.15625 110.83984375 13.18359375 110.83984375 c 2,16,-1
 31.25 110.83984375 l 1,17,18
 95.21484375 107.421875 95.21484375 107.421875 110.3515625 92.28515625 c 0,19,20
 119.62890625 83.0078125 119.62890625 83.0078125 119.62890625 67.3828125 c 0,21,22
 119.62890625 48.828125 119.62890625 48.828125 105.95703125 21.97265625 c 0,23,24
 80.56640625 -27.83203125 80.56640625 -27.83203125 28.80859375 -51.7578125 c 0,25,26
 4.8828125 -62.98828125 4.8828125 -62.98828125 -17.333984375 -67.626953125 c 128,-1,27
 -39.55078125 -72.265625 -39.55078125 -72.265625 -65.4296875 -74.21875 c 1,28,-1
 -75.1953125 -73.2421875 l 1,29,30
 -71.77734375 -65.4296875 -71.77734375 -65.4296875 -12.6953125 -36.62109375 c 128,-1,31
 46.38671875 -7.8125 46.38671875 -7.8125 62.01171875 10.7421875 c 1,0,-1
EndSplineSet
Fore
SplineSet
62 11 m 1
 62 13 l 1
 56 18 36 22 0 26 c 0
 -10 27 -20 27 -28 27 c 0
 -62 27 -70 21 -86 6 c 128
 -92 1 -95 -2 -97 -3 c 1
 -98 -3 l 1
 -98 2 -94 14 -85 35 c 128
 -76 56 -64 76 -48 96 c 0
 -40 106 -19 111 13 111 c 2
 31 111 l 1
 74 109 100 102 110 92 c 0
 116 86 120 77 120 67 c 0
 120 55 115 40 106 22 c 0
 76 -37 18 -68 -65 -74 c 1
 -75 -73 l 1
 -73 -68 -52 -56 -13 -37 c 128
 26 -18 52 -1 62 11 c 1
EndSplineSet
EndChar
StartChar: uni0652
Encoding: 1618 1618 22
AltUni2: 0006e1.ffffffff.0
Width: 0
GlyphClass: 4
AnchorPoint: "Mark Mark Above" 0 0 mark 0
AnchorPoint: "Tashkil Above" 0 0 mark 0
LayerCount: 2
Back
SplineSet
127 22 m 1,0,-1
 128 27 l 1,1,2
 111 42 111 42 1 53 c 0,3,4
 -31 56 -31 56 -57 56 c 0,5,6
 -121 56 -121 56 -147 37 c 0,7,8
 -158 29 -158 29 -175.5 12.5 c 128,-1,9
 -193 -4 -193 -4 -198 -7 c 1,10,-1
 -200 -6 l 1,11,12
 -200 9 -200 9 -173.5 72 c 128,-1,13
 -147 135 -147 135 -98 196 c 0,14,15
 -72 227 -72 227 27 227 c 2,16,-1
 64 227 l 1,17,18
 195 220 195 220 226 189 c 0,19,20
 245 170 245 170 245 138 c 0,21,22
 245 100 245 100 217 45 c 0,23,24
 165 -57 165 -57 59 -106 c 0,25,26
 10 -129 10 -129 -35.5 -138.5 c 128,-1,27
 -81 -148 -81 -148 -134 -152 c 1,28,-1
 -154 -150 l 1,29,30
 -147 -134 -147 -134 -26 -75 c 128,-1,31
 95 -16 95 -16 127 22 c 1,0,-1
EndSplineSet
Fore
SplineSet
127 22 m 1
 128 27 l 1
 116.666666667 37 74.3333333333 45.6666666667 1 53 c 0
 -20.3333333333 55 -39.6666666667 56 -57 56 c 0
 -99.6666666667 56 -129.666666667 49.6666666667 -147 37 c 0
 -154.333333333 31.6666666667 -163.833333333 23.5 -175.5 12.5 c 128
 -187.166666667 1.5 -194.666666667 -5 -198 -7 c 1
 -200 -6 l 1
 -200 4 -191.166666667 30 -173.5 72 c 128
 -155.833333333 114 -130.666666667 155.333333333 -98 196 c 0
 -80.6666666667 216.666666667 -39 227 27 227 c 2
 64 227 l 1
 151.333333333 222.333333333 205.333333333 209.666666667 226 189 c 0
 238.666666667 176.333333333 245 159.333333333 245 138 c 0
 245 112.666666667 235.666666667 81.6666666667 217 45 c 0
 182.333333333 -23 129.666666667 -73.3333333333 59 -106 c 0
 26.3333333333 -121.333333333 -5.16666666667 -132.166666667 -35.5 -138.5 c 128
 -65.8333333333 -144.833333333 -98.6666666667 -149.333333333 -134 -152 c 1
 -154 -150 l 1
 -149.333333333 -139.333333333 -106.666666667 -114.333333333 -26 -75 c 128
 54.6666666667 -35.6666666667 105.666666667 -3.33333333333 127 22 c 1
EndSplineSet
EndChar
StartChar: madda-ar
Encoding: 1619 1619 23
Width: 0
GlyphClass: 4
AnchorPoint: "top.mkmk" 0 0 mark 0
AnchorPoint: "top" 0 0 mark 0
LayerCount: 2
Back
SplineSet
172.36328125 53.7109375 m 1,0,-1
 128.41796875 -2.44140625 l 1,1,2
 91.796875 -25.87890625 91.796875 -25.87890625 30.76171875 -38.0859375 c 0,3,4
 12.20703125 -41.9921875 12.20703125 -41.9921875 -5.859375 -41.9921875 c 0,5,6
 -46.875 -41.9921875 -46.875 -41.9921875 -83.984375 -22.4609375 c 0,7,8
 -88.37890625 -20.5078125 -88.37890625 -20.5078125 -92.28515625 -20.5078125 c 0,9,10
 -97.16796875 -20.5078125 -97.16796875 -20.5078125 -101.07421875 -22.94921875 c 0,11,12
 -109.375 -28.3203125 -109.375 -28.3203125 -116.2109375 -32.2265625 c 0,13,14
 -130.859375 -41.015625 -130.859375 -41.015625 -155.76171875 -67.3828125 c 0,15,16
 -164.0625 -76.171875 -164.0625 -76.171875 -166.50390625 -76.171875 c 0,17,18
 -166.9921875 -76.171875 -166.9921875 -76.171875 -166.9921875 -75.1953125 c 0,19,20
 -166.9921875 -69.82421875 -166.9921875 -69.82421875 -150.390625 -41.015625 c 0,21,22
 -124.0234375 4.8828125 -124.0234375 4.8828125 -71.77734375 31.25 c 0,23,24
 -69.3359375 32.2265625 -69.3359375 32.2265625 -66.89453125 32.2265625 c 0,25,26
 -61.5234375 32.2265625 -61.5234375 32.2265625 -54.19921875 28.80859375 c 0,27,28
 -14.6484375 8.7890625 -14.6484375 8.7890625 28.80859375 8.7890625 c 0,29,30
 48.33984375 8.7890625 48.33984375 8.7890625 68.84765625 12.6953125 c 0,31,32
 134.27734375 25.87890625 134.27734375 25.87890625 168.45703125 56.15234375 c 0,33,34
 169.921875 57.6171875 169.921875 57.6171875 170.8984375 57.6171875 c 0,35,36
 172.36328125 57.6171875 172.36328125 57.6171875 172.36328125 53.7109375 c 1,0,-1
EndSplineSet
Fore
SplineSet
172 54 m 2
 128 -3 l 1
 79 -35 -13 -60 -85 -23 c 0
 -97 -17 -108 -28 -117 -33 c 0
 -136 -44 -191 -112 -151 -42 c 0
 -131 -7 -109 13 -73 31 c 0
 -63 36 -65 33 -55 28 c 0
 21 -11 122 16 168 56 c 0
 170 58 172 55 172 54 c 2
EndSplineSet
EndChar
StartChar: uni0653
Encoding: 1619 1619 23
Width: 0
GlyphClass: 4
AnchorPoint: "Mark Mark Above" 0 0 mark 0
AnchorPoint: "Dots Above" 0 0 mark 0
LayerCount: 2
Fore
SplineSet
353 110 m 1,0,-1
 263 -5 l 1,1,2
 188 -53 188 -53 63 -78 c 0,3,4
 25 -86 25 -86 -12 -86 c 0,5,6
 -96 -86 -96 -86 -172 -46 c 0,7,8
 -181 -42 -181 -42 -189 -42 c 0,9,10
 -199 -42 -199 -42 -207 -47 c 0,11,12
 -224 -58 -224 -58 -238 -66 c 0,13,14
 -268 -84 -268 -84 -319 -138 c 0,15,16
 -336 -156 -336 -156 -341 -156 c 0,17,18
 -342 -156 -342 -156 -342 -154 c 0,19,20
 -342 -143 -342 -143 -308 -84 c 0,21,22
 -254 10 -254 10 -147 64 c 0,23,24
 -142 66 -142 66 -137 66 c 0,25,26
 -126 66 -126 66 -111 59 c 0,27,28
 -30 18 -30 18 59 18 c 0,29,30
 99 18 99 18 141 26 c 0,31,32
 275 53 275 53 345 115 c 0,33,34
 348 118 348 118 350 118 c 0,35,36
 353 118 353 118 353 110 c 1,0,-1
EndSplineSet
EndChar
StartChar: hamzaabove-ar
Encoding: 1620 1620 25
Width: 0
GlyphClass: 4
AnchorPoint: "Mark Mark Above" 0 239 basemark 0
AnchorPoint: "Dots Above" 0 0 mark 0
LayerCount: 2
Back
SplineSet
36.62109375 106.93359375 m 2,0,1
 30.2734375 93.26171875 30.2734375 93.26171875 15.13671875 86.9140625 c 128,-1,2
 0 80.56640625 0 80.56640625 -11.23046875 64.94140625 c 1,3,4
 -2.44140625 54.6875 -2.44140625 54.6875 12.6953125 50.78125 c 128,-1,5
 27.83203125 46.875 27.83203125 46.875 39.55078125 39.55078125 c 0,6,7
 52.734375 30.76171875 52.734375 30.76171875 52.734375 16.6015625 c 0,8,9
 52.734375 8.30078125 52.734375 8.30078125 48.828125 -0.9765625 c 0,10,11
 37.59765625 -27.83203125 37.59765625 -27.83203125 10.25390625 -47.36328125 c 0,12,13
 -13.18359375 -64.453125 -13.18359375 -64.453125 -38.818359375 -68.359375 c 128,-1,14
 -64.453125 -72.265625 -64.453125 -72.265625 -91.30859375 -76.66015625 c 1,15,16
 -68.359375 -66.40625 -68.359375 -66.40625 -44.43359375 -56.15234375 c 128,-1,17
 -20.5078125 -45.8984375 -20.5078125 -45.8984375 1.46484375 -33.69140625 c 1,18,19
 8.30078125 -29.296875 8.30078125 -29.296875 8.30078125 -25.87890625 c 0,20,21
 8.30078125 -24.4140625 8.30078125 -24.4140625 6.34765625 -22.94921875 c 0,22,23
 -2.44140625 -18.06640625 -2.44140625 -18.06640625 -12.939453125 -13.427734375 c 128,-1,24
 -23.4375 -8.7890625 -23.4375 -8.7890625 -31.73828125 -3.90625 c 0,25,26
 -50.29296875 5.859375 -50.29296875 5.859375 -50.29296875 23.4375 c 0,27,28
 -50.29296875 41.9921875 -50.29296875 41.9921875 -28.80859375 69.82421875 c 0,29,30
 12.20703125 123.046875 12.20703125 123.046875 32.2265625 138.18359375 c 0,31,32
 40.52734375 144.53125 40.52734375 144.53125 58.10546875 152.34375 c 1,33,-1
 36.62109375 106.93359375 l 2,0,1
EndSplineSet
Fore
SplineSet
37 107 m 2
 33 98 25 91 15 87 c 128
 5 83 -4 75 -11 65 c 1
 5 47 53 49 53 17 c 0
 53 11 52 5 49 -1 c 0
 36 -32 -1 -62 -39 -68 c 128
 -56 -71 -73 -74 -91 -77 c 1
 -60 -63 -28 -50 1 -34 c 0
 6 -31 8 -28 8 -26 c 0
 8 -21 -8 -15 -13 -13 c 128
 -30 -6 -50 3 -50 23 c 0
 -50 35 -43 51 -29 70 c 0
 -2 105 19 128 32 138 c 0
 38 142 46 147 58 152 c 1
 37 107 l 2
EndSplineSet
EndChar
StartChar: uni0654
Encoding: 1620 1620 25
Width: 0
GlyphClass: 4
AnchorPoint: "Mark Mark Above" 0 490 basemark 0
AnchorPoint: "Dots Above" 0 0 mark 0
LayerCount: 2
Back
SplineSet
75 219 m 2,0,1
 62 191 62 191 31 178 c 128,-1,2
 0 165 0 165 -23 133 c 1,3,4
 -5 112 -5 112 26 104 c 128,-1,5
 57 96 57 96 81 81 c 0,6,7
 108 63 108 63 108 34 c 0,8,9
 108 17 108 17 100 -2 c 0,10,11
 77 -57 77 -57 21 -97 c 0,12,13
 -27 -132 -27 -132 -79.5 -140 c 128,-1,14
 -132 -148 -132 -148 -187 -157 c 1,15,16
 -140 -136 -140 -136 -91 -115 c 128,-1,17
 -42 -94 -42 -94 3 -69 c 1,18,19
 17 -60 17 -60 17 -53 c 0,20,21
 17 -50 17 -50 13 -47 c 0,22,23
 -5 -37 -5 -37 -26.5 -27.5 c 128,-1,24
 -48 -18 -48 -18 -65 -8 c 0,25,26
 -103 12 -103 12 -103 48 c 0,27,28
 -103 86 -103 86 -59 143 c 0,29,30
 25 252 25 252 66 283 c 0,31,32
 83 296 83 296 119 312 c 1,33,-1
 75 219 l 2,0,1
EndSplineSet
Fore
SplineSet
75 219 m 2
 66.3333333333 200.333333333 51.6666666667 186.666666667 31 178 c 128
 10.3333333333 169.333333333 -7.66666666667 154.333333333 -23 133 c 1
 -11 119 5.33333333333 109.333333333 26 104 c 128
 46.6666666667 98.6666666667 65 91 81 81 c 0
 99 69 108 53.3333333333 108 34 c 0
 108 22.6666666667 105.333333333 10.6666666667 100 -2 c 0
 84.6666666667 -38.6666666667 58.3333333333 -70.3333333333 21 -97 c 0
 -11 -120.333333333 -44.5 -134.666666667 -79.5 -140 c 128
 -114.5 -145.333333333 -150.333333333 -151 -187 -157 c 1
 -155.666666667 -143 -123.666666667 -129 -91 -115 c 128
 -58.3333333333 -101 -27 -85.6666666667 3 -69 c 1
 12.3333333333 -63 17 -57.6666666667 17 -53 c 0
 17 -51 15.6666666667 -49 13 -47 c 0
 1 -40.3333333333 -12.1666666667 -33.8333333333 -26.5 -27.5 c 128
 -40.8333333333 -21.1666666667 -53.6666666667 -14.6666666667 -65 -8 c 0
 -90.3333333333 5.33333333333 -103 24 -103 48 c 0
 -103 73.3333333333 -88.3333333333 105 -59 143 c 0
 -3 215.666666667 38.6666666667 262.333333333 66 283 c 0
 77.3333333333 291.666666667 95 301.333333333 119 312 c 1
 75 219 l 2
EndSplineSet
EndChar
StartChar: noonghunnaabove-ar
Encoding: 1624 1624 383
Width: 0
GlyphClass: 4
AnchorPoint: "Mark Mark Above" 0 0 mark 0
AnchorPoint: "Tashkil Above" 0 0 mark 0
LayerCount: 2
Back
SplineSet
2.9296875 -71.77734375 m 1,0,1
 -24.90234375 -69.3359375 -24.90234375 -69.3359375 -37.109375 -55.17578125 c 0,2,3
 -48.33984375 -41.50390625 -48.33984375 -41.50390625 -49.8046875 -20.01953125 c 1,4,5
 -51.7578125 -1.953125 -51.7578125 -1.953125 -45.8984375 22.4609375 c 1,6,7
 -37.59765625 49.31640625 -37.59765625 49.31640625 -30.2734375 64.94140625 c 0,8,9
 -20.99609375 83.984375 -20.99609375 83.984375 -12.20703125 96.6796875 c 0,10,11
 -3.90625 108.3984375 -3.90625 108.3984375 0.9765625 108.3984375 c 0,12,13
 2.9296875 108.3984375 2.9296875 108.3984375 3.41796875 107.421875 c 1,14,15
 3.41796875 105.46875 3.41796875 105.46875 2.9296875 104.4921875 c 0,16,17
 -15.625 78.61328125 -15.625 78.61328125 -19.53125 60.546875 c 1,18,19
 -24.4140625 41.015625 -24.4140625 41.015625 -18.5546875 26.85546875 c 1,20,21
 -13.18359375 12.20703125 -13.18359375 12.20703125 -1.46484375 4.8828125 c 1,22,23
 11.23046875 -4.8828125 11.23046875 -4.8828125 25.390625 -5.37109375 c 1,24,25
 39.55078125 -7.32421875 39.55078125 -7.32421875 53.7109375 -1.953125 c 1,26,27
 67.87109375 2.44140625 67.87109375 2.44140625 77.63671875 15.13671875 c 0,28,29
 80.56640625 19.53125 80.56640625 19.53125 82.03125 18.5546875 c 1,30,31
 83.984375 16.11328125 83.984375 16.11328125 81.54296875 10.25390625 c 0,32,33
 72.75390625 -10.25390625 72.75390625 -10.25390625 69.3359375 -17.08984375 c 0,34,35
 62.01171875 -32.2265625 62.01171875 -32.2265625 51.7578125 -43.9453125 c 0,36,37
 39.55078125 -58.10546875 39.55078125 -58.10546875 30.2734375 -63.96484375 c 0,38,39
 17.08984375 -72.75390625 17.08984375 -72.75390625 2.9296875 -71.77734375 c 1,40,-1
 2.9296875 -71.77734375 l 1,0,1
EndSplineSet
Fore
SplineSet
3 -72 m 0
 -31 -69 -48 -53 -50 -20 c 0
 -51 -8 -50 6 -46 22 c 1
 -36 54 -27 76 -12 97 c 0
 -6 105 -2 108 1 108 c 0
 2 108 3 108 3 107 c 0
 3 106 3 105 3 104 c 0
 -9 87 -17 73 -20 61 c 0
 -23 48 -23 36 -19 27 c 0
 -15 17 -9 10 -1 5 c 1
 7 -2 16 -5 25 -5 c 1
 34 -6 45 -6 54 -2 c 1
 63 1 71 7 78 15 c 0
 83 22 85 17 82 10 c 0
 68 -22 56 -48 30 -64 c 0
 21 -70 12 -73 3 -72 c 0
EndSplineSet
EndChar
StartChar: uni0658
Encoding: 1624 1624 383
Width: 0
GlyphClass: 4
AnchorPoint: "Mark Mark Above" 0 0 mark 0
AnchorPoint: "Tashkil Above" 0 0 mark 0
LayerCount: 2
Back
SplineSet
6 -147 m 1,0,1
 -51 -142 -51 -142 -76 -113 c 0,2,3
 -99 -85 -99 -85 -102 -41 c 1,4,5
 -106 -4 -106 -4 -94 46 c 1,6,7
 -77 101 -77 101 -62 133 c 0,8,9
 -43 172 -43 172 -25 198 c 0,10,11
 -8 222 -8 222 2 222 c 0,12,13
 6 222 6 222 7 220 c 1,14,15
 7 216 7 216 6 214 c 0,16,17
 -32 161 -32 161 -40 124 c 1,18,19
 -50 84 -50 84 -38 55 c 1,20,21
 -27 25 -27 25 -3 10 c 1,22,23
 23 -10 23 -10 52 -11 c 1,24,25
 81 -15 81 -15 110 -4 c 1,26,27
 139 5 139 5 159 31 c 0,28,29
 165 40 165 40 168 38 c 1,30,31
 172 33 172 33 167 21 c 0,32,33
 149 -21 149 -21 142 -35 c 0,34,35
 127 -66 127 -66 106 -90 c 0,36,37
 81 -119 81 -119 62 -131 c 0,38,39
 35 -149 35 -149 6 -147 c 1,40,-1
 6 -147 l 1,0,1
EndSplineSet
Fore
SplineSet
6 -147 m 0
 -63.2151417298 -140.92849634 -97.4537248661 -107.678701964 -102 -41 c 0
 -104.666666667 -16.3333333333 -102 12.6666666667 -94 46 c 1
 -73.8670820055 111.135911159 -55.1411173533 154.46283049 -25 198 c 0
 -13.6666666667 214 -4.66666666667 222 2 222 c 0
 4.66666666667 222 6.33333333333 221.333333333 7 220 c 0
 7 217.333333333 6.66666666667 215.333333333 6 214 c 0
 -19.3333333333 178.666666667 -34.6666666667 148.666666667 -40 124 c 0
 -46.6666666667 97.3333333333 -46 74.3333333333 -38 55 c 0
 -30.6666666667 35 -19 20 -3 10 c 1
 14.3333333333 -3.33333333333 32.6666666667 -10.3333333333 52 -11 c 1
 71.3333333333 -13.6666666667 90.6666666667 -11.3333333333 110 -4 c 1
 129.333333333 2 145.666666667 13.6666666667 159 31 c 0
 168.321798983 44.9826984741 173.170998903 35.8103973689 167 21 c 0
 138.660235525 -45.1261171074 114.685211922 -97.7251293124 62 -131 c 0
 44 -143 25.3333333333 -148.333333333 6 -147 c 0
EndSplineSet
EndChar
StartChar: uni065A
Encoding: 1626 1626 419
Width: 0
GlyphClass: 4
AnchorPoint: "Tashkil Above" 0 0 mark 0
LayerCount: 2
Back
SplineSet
190 211 m 1,0,1
 177 167 177 167 177 127 c 1,2,3
 135 79 135 79 105 24.5 c 128,-1,4
 75 -30 75 -30 49 -88 c 0,5,6
 42 -103 42 -103 37.5 -119 c 128,-1,7
 33 -135 33 -135 21 -148 c 0,8,9
 18 -151 18 -151 12 -153 c 0,10,11
 9 -154 9 -154 7 -154 c 0,12,13
 4 -154 4 -154 4 -152 c 0,14,15
 -22 -73 -22 -73 -70 -6.5 c 128,-1,16
 -118 60 -118 60 -171 125 c 1,17,18
 -161 146 -161 146 -149 167.5 c 128,-1,19
 -137 189 -137 189 -124 212 c 1,20,21
 -26 94 -26 94 37 -20 c 1,22,23
 67 43 67 43 104.5 99.5 c 128,-1,24
 142 156 142 156 184 210 c 0,25,26
 184 211 184 211 187 211 c 0,27,28
 188 211 188 211 190 211 c 1,0,1
EndSplineSet
Fore
SplineSet
190 211 m 1
 181.333333333 181.666666667 177 153.666666667 177 127 c 1
 149 95 125 60.8333333333 105 24.5 c 128
 85 -11.8333333333 66.3333333333 -49.3333333333 49 -88 c 0
 44.3333333333 -98 40.5 -108.333333333 37.5 -119 c 128
 34.5 -129.666666667 29 -139.333333333 21 -148 c 0
 19 -150 16 -151.666666667 12 -153 c 0
 10 -153.666666667 8.33333333333 -154 7 -154 c 0
 5 -154 4 -153.333333333 4 -152 c 0
 -13.3333333333 -99.3333333333 -38 -50.8333333333 -70 -6.5 c 128
 -102 37.8333333333 -135.666666667 81.6666666667 -171 125 c 1
 -164.333333333 139 -157 153.166666667 -149 167.5 c 128
 -141 181.833333333 -132.666666667 196.666666667 -124 212 c 1
 -58.6666666667 133.333333333 -5 56 37 -20 c 1
 57 22 79.5 61.8333333333 104.5 99.5 c 128
 129.5 137.166666667 156 174 184 210 c 0
 184 210.666666667 185 211 187 211 c 0
 188 211 188 211 190 211 c 1
EndSplineSet
EndChar
StartChar: vabove-ar
Encoding: 1626 1626 419
Width: 0
GlyphClass: 4
AnchorPoint: "Tashkil Above" 0 0 mark 0
LayerCount: 2
Back
SplineSet
92.7734375 103.02734375 m 1,0,1
 86.42578125 81.54296875 86.42578125 81.54296875 86.42578125 62.01171875 c 1,2,3
 65.91796875 38.57421875 65.91796875 38.57421875 51.26953125 11.962890625 c 128,-1,4
 36.62109375 -14.6484375 36.62109375 -14.6484375 23.92578125 -42.96875 c 0,5,6
 20.5078125 -50.29296875 20.5078125 -50.29296875 18.310546875 -58.10546875 c 128,-1,7
 16.11328125 -65.91796875 16.11328125 -65.91796875 10.25390625 -72.265625 c 0,8,9
 8.7890625 -73.73046875 8.7890625 -73.73046875 5.859375 -74.70703125 c 0,10,11
 4.39453125 -75.1953125 4.39453125 -75.1953125 3.41796875 -75.1953125 c 0,12,13
 1.953125 -75.1953125 1.953125 -75.1953125 1.953125 -74.21875 c 0,14,15
 -10.7421875 -35.64453125 -10.7421875 -35.64453125 -34.1796875 -3.173828125 c 128,-1,16
 -57.6171875 29.296875 -57.6171875 29.296875 -83.49609375 61.03515625 c 1,17,18
 -78.61328125 71.2890625 -78.61328125 71.2890625 -72.75390625 81.787109375 c 128,-1,19
 -66.89453125 92.28515625 -66.89453125 92.28515625 -60.546875 103.515625 c 1,20,21
 -12.6953125 45.8984375 -12.6953125 45.8984375 18.06640625 -9.765625 c 1,22,23
 32.71484375 20.99609375 32.71484375 20.99609375 51.025390625 48.583984375 c 128,-1,24
 69.3359375 76.171875 69.3359375 76.171875 89.84375 102.5390625 c 0,25,26
 89.84375 103.02734375 89.84375 103.02734375 91.30859375 103.02734375 c 0,27,28
 91.796875 103.02734375 91.796875 103.02734375 92.7734375 103.02734375 c 1,0,1
EndSplineSet
Fore
SplineSet
18 -10 m 1
 38 32 63 68 90 103 c 0
 90 103 90 103 91 103 c 0
 91 103 92 103 93 103 c 1
 89 89 86 75 86 62 c 1
 59 31 41 -4 24 -43 c 0
 20 -52 17 -75 3 -75 c 0
 2 -75 2 -75 2 -74 c 0
 -16 -20 -50 21 -83 61 c 1
 -76 76 -69 90 -61 104 c 1
 -29 66 -3 27 18 -10 c 1
EndSplineSet
EndChar
StartChar: uni0660
Encoding: 1632 1632 36
AltUni2: 0006f0.ffffffff.0
Width: 475
GlyphClass: 2
Flags: W
LayerCount: 2
Fore
SplineSet
61 539 m 2
 214 727 l 2
 219 733 219 733 225 733 c 0
 232 733 232 733 239 727 c 2
 410 583 l 2
 419 576 419 576 419 569 c 0
 419 564 419 564 414 558 c 2
 261 370 l 2
 255 363 255 363 249 363 c 256
 243 363 243 363 236 369 c 2
 65 513 l 2
 56 520 56 520 56 528 c 0
 56 533 56 533 61 539 c 2
EndSplineSet
EndChar
StartChar: zero-ar
Encoding: 1632 1632 36
AltUni2: 0006f0.ffffffff.0
Width: 475
GlyphClass: 2
LayerCount: 2
Back
SplineSet
61 539 m 2,0,-1
 214 727 l 2,1,2
 219 733 219 733 225 733 c 0,3,4
 232 733 232 733 239 727 c 2,5,-1
 410 583 l 2,6,7
 419 576 419 576 419 569 c 0,8,9
 419 564 419 564 414 558 c 2,10,-1
 261 370 l 2,11,12
 255 363 255 363 249 363 c 256,13,14
 243 363 243 363 236 369 c 2,15,-1
 65 513 l 2,16,17
 56 520 56 520 56 528 c 0,18,19
 56 533 56 533 61 539 c 2,0,-1
EndSplineSet
Fore
SplineSet
61 539 m 2
 214 727 l 2
 217.333333333 731 221 733 225 733 c 0
 229.666666667 733 234.333333333 731 239 727 c 2
 410 583 l 2
 416 578.333333333 419 573.666666667 419 569 c 0
 419 565.666666667 417.333333333 562 414 558 c 2
 261 370 l 2
 257 365.333333333 253 363 249 363 c 256
 245 363 240.666666667 365 236 369 c 2
 65 513 l 2
 59 517.666666667 56 522.666666667 56 528 c 0
 56 531.333333333 57.6666666667 535 61 539 c 2
EndSplineSet
EndChar
StartChar: one-ar
Encoding: 1633 1633 37
AltUni2: 0006f1.ffffffff.0
Width: 188
GlyphClass: 2
LayerCount: 2
Back
SplineSet
155.76171875 281.73828125 m 0,0,1
 158.69140625 252.9296875 158.69140625 252.9296875 158.69140625 225.5859375 c 0,2,3
 158.69140625 176.26953125 158.69140625 176.26953125 148.4375 132.8125 c 0,4,5
 132.32421875 65.91796875 132.32421875 65.91796875 107.91015625 14.16015625 c 0,6,7
 101.07421875 0 101.07421875 0 93.75 0 c 0,8,9
 92.7734375 0 92.7734375 0 91.30859375 0.48828125 c 1,10,11
 97.65625 55.17578125 97.65625 55.17578125 97.65625 107.421875 c 0,12,13
 97.65625 178.22265625 97.65625 178.22265625 85.9375 244.140625 c 0,14,15
 64.94140625 357.91015625 64.94140625 357.91015625 24.4140625 446.2890625 c 1,16,17
 36.1328125 479.4921875 36.1328125 479.4921875 49.072265625 515.380859375 c 128,-1,18
 62.01171875 551.26953125 62.01171875 551.26953125 76.66015625 585.9375 c 1,19,20
 102.05078125 521.484375 102.05078125 521.484375 123.046875 451.66015625 c 128,-1,21
 144.04296875 381.8359375 144.04296875 381.8359375 153.80859375 301.26953125 c 0,22,23
 155.76171875 285.64453125 155.76171875 285.64453125 155.76171875 281.73828125 c 0,0,1
EndSplineSet
Fore
SplineSet
156 281 m 1
 156 281 l 1
 167 172 141 83 108 14 c 0
 105 8 100 -3 92 0 c 1
 113 173 79 328 25 445 c 1
 40 489 58 539 77 585 c 1
 111 500 141 409 154 301 c 0
 154 297 156 285 156 281 c 1
EndSplineSet
EndChar
StartChar: uni0661
Encoding: 1633 1633 37
AltUni2: 0006f1.ffffffff.0
Width: 387
GlyphClass: 2
LayerCount: 2
Back
SplineSet
319 577 m 0,0,1
 325 518 325 518 325 462 c 0,2,3
 325 361 325 361 304 272 c 0,4,5
 271 135 271 135 221 29 c 0,6,7
 207 0 207 0 192 0 c 0,8,9
 190 0 190 0 187 1 c 1,10,11
 200 113 200 113 200 220 c 0,12,13
 200 365 200 365 176 500 c 0,14,15
 133 733 133 733 50 914 c 1,16,17
 74 982 74 982 100.5 1055.5 c 128,-1,18
 127 1129 127 1129 157 1200 c 1,19,20
 209 1068 209 1068 252 925 c 128,-1,21
 295 782 295 782 315 617 c 0,22,23
 319 585 319 585 319 577 c 0,0,1
EndSplineSet
Fore
SplineSet
200 220 m 0
 200 490.432889239 134.703532527 729.285067621 50 914 c 1
 82.9903697613 1007.47271432 118.715142864 1109.39250478 157 1200 c 1
 226.724295419 1023.00755779 288.299811093 837.276558492 315 617 c 0
 317.666666667 595.666666667 319 582.333333333 319 577 c 0
 323 537.666666667 325 499.333333333 325 462 c 0
 325 292.041582806 274.734207952 142.91652086 221 29 c 0
 211.666666667 9.66666666667 202 0 192 0 c 0
 190.666666667 0 189 0.333333333333 187 1 c 1
 195.666666667 75.6666666667 200 148.666666667 200 220 c 0
EndSplineSet
EndChar
StartChar: two-ar
Encoding: 1634 1634 38
Width: 286
GlyphClass: 2
LayerCount: 2
Back
SplineSet
261.71875 572.265625 m 2,0,-1
 232.421875 459.9609375 l 1,1,2
 228.02734375 446.2890625 228.02734375 446.2890625 221.19140625 446.2890625 c 0,3,4
 219.7265625 446.2890625 219.7265625 446.2890625 218.75 446.77734375 c 0,5,6
 187.98828125 455.56640625 187.98828125 455.56640625 151.3671875 460.44921875 c 0,7,8
 139.16015625 461.9140625 139.16015625 461.9140625 127.9296875 461.9140625 c 0,9,10
 103.515625 461.9140625 103.515625 461.9140625 81.0546875 455.078125 c 1,11,12
 103.02734375 400.390625 103.02734375 400.390625 135.986328125 339.111328125 c 128,-1,13
 168.9453125 277.83203125 168.9453125 277.83203125 185.546875 219.23828125 c 1,14,15
 187.5 203.125 187.5 203.125 187.5 187.5 c 0,16,17
 187.5 146.97265625 187.5 146.97265625 175.29296875 111.328125 c 0,18,19
 158.69140625 61.5234375 158.69140625 61.5234375 146.97265625 13.671875 c 1,20,21
 144.04296875 3.90625 144.04296875 3.90625 137.20703125 0 c 1,22,23
 139.16015625 18.5546875 139.16015625 18.5546875 139.16015625 37.109375 c 0,24,25
 139.16015625 97.16796875 139.16015625 97.16796875 117.1875 152.83203125 c 1,26,27
 87.890625 225.09765625 87.890625 225.09765625 59.08203125 274.90234375 c 0,28,29
 39.55078125 308.10546875 39.55078125 308.10546875 32.2265625 359.375 c 0,30,31
 28.3203125 385.25390625 28.3203125 385.25390625 28.3203125 411.1328125 c 0,32,33
 28.3203125 436.03515625 28.3203125 436.03515625 31.73828125 460.44921875 c 0,34,35
 39.0625 509.765625 39.0625 509.765625 62.5 546.875 c 128,-1,36
 85.9375 583.984375 85.9375 583.984375 128.41796875 588.8671875 c 0,37,38
 145.01953125 590.8203125 145.01953125 590.8203125 160.64453125 590.8203125 c 0,39,40
 179.19921875 590.8203125 179.19921875 590.8203125 196.77734375 588.37890625 c 0,41,42
 229.00390625 583.0078125 229.00390625 583.0078125 259.765625 575.68359375 c 1,43,-1
 260.7421875 574.70703125 l 2,44,45
 261.71875 573.73046875 261.71875 573.73046875 261.71875 572.265625 c 2,0,-1
EndSplineSet
Fore
SplineSet
262 571 m 2
 232 459 l 2
 230 452 224 445 219 446 c 0
 178 458 126 467 81 454 c 1
 110 382 164 298 186 219 c 1
 195 141 164 78 147 14 c 0
 146 9 143 4 137 -0 c 1
 149 107 98 208 59 274 c 0
 7 363 15 575 128 588 c 0
 176 594 219 584 260 574 c 1
 260 574 262 573 262 571 c 2
EndSplineSet
EndChar
StartChar: uni0662
Encoding: 1634 1634 38
Width: 586
GlyphClass: 2
LayerCount: 2
Back
SplineSet
536 1172 m 2,0,-1
 476 942 l 1,1,2
 467 914 467 914 453 914 c 0,3,4
 450 914 450 914 448 915 c 0,5,6
 385 933 385 933 310 943 c 0,7,8
 285 946 285 946 262 946 c 0,9,10
 212 946 212 946 166 932 c 1,11,12
 211 820 211 820 278.5 694.5 c 128,-1,13
 346 569 346 569 380 449 c 1,14,15
 384 416 384 416 384 384 c 0,16,17
 384 301 384 301 359 228 c 0,18,19
 325 126 325 126 301 28 c 1,20,21
 295 8 295 8 281 0 c 1,22,23
 285 38 285 38 285 76 c 0,24,25
 285 199 285 199 240 313 c 1,26,27
 180 461 180 461 121 563 c 0,28,29
 81 631 81 631 66 736 c 0,30,31
 58 789 58 789 58 842 c 0,32,33
 58 893 58 893 65 943 c 0,34,35
 80 1044 80 1044 128 1120 c 128,-1,36
 176 1196 176 1196 263 1206 c 0,37,38
 297 1210 297 1210 329 1210 c 0,39,40
 367 1210 367 1210 403 1205 c 0,41,42
 469 1194 469 1194 532 1179 c 1,43,-1
 534 1177 l 2,44,45
 536 1175 536 1175 536 1172 c 2,0,-1
EndSplineSet
Fore
SplineSet
536 1172 m 2
 476 942 l 1
 470 923.333333333 462.333333333 914 453 914 c 0
 451 914 449.333333333 914.333333333 448 915 c 0
 406 927 360 936.333333333 310 943 c 0
 293.333333333 945 277.333333333 946 262 946 c 0
 228.666666667 946 196.666666667 941.333333333 166 932 c 1
 196 857.333333333 233.5 778.166666667 278.5 694.5 c 128
 323.5 610.833333333 357.333333333 529 380 449 c 1
 382.666666667 427 384 405.333333333 384 384 c 0
 384 328.666666667 375.666666667 276.666666667 359 228 c 0
 336.333333333 160 317 93.3333333333 301 28 c 1
 297 14.6666666667 290.333333333 5.33333333333 281 0 c 1
 283.666666667 25.3333333333 285 50.6666666667 285 76 c 0
 285 158 270 237 240 313 c 1
 200 411.666666667 160.333333333 495 121 563 c 0
 94.3333333333 608.333333333 76 666 66 736 c 0
 60.6666666667 771.333333333 58 806.666666667 58 842 c 0
 58 876 60.3333333333 909.666666667 65 943 c 0
 75 1010.33333333 96 1069.33333333 128 1120 c 128
 160 1170.66666667 205 1199.33333333 263 1206 c 0
 285.666666667 1208.66666667 307.666666667 1210 329 1210 c 0
 354.333333333 1210 379 1208.33333333 403 1205 c 0
 447 1197.66666667 490 1189 532 1179 c 1
 534 1177 l 2
 535.333333333 1175.66666667 536 1174 536 1172 c 2
EndSplineSet
EndChar
StartChar: three-ar
Encoding: 1635 1635 39
AltUni2: 0006f3.ffffffff.0
Width: 414
GlyphClass: 2
LayerCount: 2
Back
SplineSet
389.6484375 583.49609375 m 0,0,1
 384.765625 527.83203125 384.765625 527.83203125 373.53515625 478.759765625 c 128,-1,2
 362.3046875 429.6875 362.3046875 429.6875 331.54296875 401.85546875 c 0,3,4
 318.84765625 390.13671875 318.84765625 390.13671875 295.41015625 380.859375 c 0,5,6
 285.64453125 376.953125 285.64453125 376.953125 276.3671875 376.953125 c 0,7,8
 263.18359375 376.953125 263.18359375 376.953125 250.9765625 384.765625 c 0,9,10
 244.62890625 388.671875 244.62890625 388.671875 234.86328125 401.3671875 c 1,11,12
 227.5390625 395.01953125 227.5390625 395.01953125 217.28515625 385.7421875 c 0,13,14
 208.984375 378.41796875 208.984375 378.41796875 208.984375 373.53515625 c 0,15,16
 208.984375 372.0703125 208.984375 372.0703125 209.9609375 370.60546875 c 0,17,18
 257.32421875 287.59765625 257.32421875 287.59765625 265.13671875 188.96484375 c 0,19,20
 265.625 176.7578125 265.625 176.7578125 265.625 164.55078125 c 0,21,22
 265.625 80.078125 265.625 80.078125 219.23828125 6.8359375 c 0,23,24
 217.28515625 3.90625 217.28515625 3.90625 212.890625 1.953125 c 0,25,26
 209.47265625 0 209.47265625 0 208.49609375 0 c 1,27,-1
 208.49609375 0.48828125 l 1,28,29
 210.9375 24.4140625 210.9375 24.4140625 210.9375 47.36328125 c 0,30,31
 210.9375 125 210.9375 125 182.6171875 185.05859375 c 0,32,33
 145.5078125 262.6953125 145.5078125 262.6953125 106.93359375 326.66015625 c 1,34,35
 85.9375 359.86328125 85.9375 359.86328125 62.98828125 392.08984375 c 128,-1,36
 40.0390625 424.31640625 40.0390625 424.31640625 24.4140625 463.8671875 c 1,37,38
 35.15625 494.62890625 35.15625 494.62890625 47.119140625 525.87890625 c 128,-1,39
 59.08203125 557.12890625 59.08203125 557.12890625 73.73046875 587.890625 c 1,40,41
 85.44921875 564.453125 85.44921875 564.453125 97.900390625 539.0625 c 128,-1,42
 110.3515625 513.671875 110.3515625 513.671875 130.859375 499.0234375 c 0,43,44
 149.4140625 485.83984375 149.4140625 485.83984375 172.8515625 485.83984375 c 0,45,46
 184.08203125 485.83984375 184.08203125 485.83984375 196.2890625 489.2578125 c 0,47,48
 233.88671875 498.53515625 233.88671875 498.53515625 250 520.5078125 c 0,49,50
 253.90625 525.87890625 253.90625 525.87890625 258.7890625 541.015625 c 128,-1,51
 263.671875 556.15234375 263.671875 556.15234375 267.08984375 562.5 c 0,52,53
 268.5546875 564.94140625 268.5546875 564.94140625 269.53125 564.94140625 c 0,54,55
 270.99609375 564.94140625 270.99609375 564.94140625 271.97265625 562.5 c 0,56,57
 273.92578125 559.08203125 273.92578125 559.08203125 273.92578125 556.640625 c 2,58,-1
 273.92578125 555.6640625 l 1,59,60
 272.94921875 549.8046875 272.94921875 549.8046875 272.94921875 544.921875 c 0,61,62
 272.94921875 519.53125 272.94921875 519.53125 297.36328125 514.16015625 c 0,63,64
 306.640625 512.20703125 306.640625 512.20703125 315.4296875 512.20703125 c 0,65,66
 335.9375 512.20703125 335.9375 512.20703125 352.05078125 524.4140625 c 1,67,68
 374.0234375 541.9921875 374.0234375 541.9921875 379.8828125 569.3359375 c 0,69,70
 380.37109375 572.265625 380.37109375 572.265625 385.25390625 581.0546875 c 0,71,72
 387.6953125 585.9375 387.6953125 585.9375 388.671875 585.9375 c 256,73,74
 389.6484375 585.9375 389.6484375 585.9375 389.6484375 583.49609375 c 0,0,1
EndSplineSet
Fore
SplineSet
389 580 m 1
 389 580 l 1
 383 506 372 437 331 399 c 0
 314 384 279 365 251 382 c 0
 244 386 240 392 235 398 c 1
 225 390 206 375 210 368 c 0
 274 258 290 115 219 4 c 0
 217 0 208 -4 208 -2 c 0
 222 140 159 239 107 324 c 0
 80 369 46 409 25 461 c 1
 40 502 55 545 74 585 c 1
 89 554 104 515 131 496 c 0
 168 470 229 489 250 518 c 0
 255 525 262 551 267 559 c 0
 270 565 275 555 274 552 c 0
 271 531 283 514 297 511 c 0
 340 501 373 530 380 566 c 0
 381 570 390 588 389 580 c 1
EndSplineSet
EndChar
StartChar: uni0663
Encoding: 1635 1635 39
AltUni2: 0006f3.ffffffff.0
Width: 848
GlyphClass: 2
LayerCount: 2
Back
SplineSet
798 1195 m 0,0,1
 788 1081 788 1081 765 980.5 c 128,-1,2
 742 880 742 880 679 823 c 0,3,4
 653 799 653 799 605 780 c 0,5,6
 585 772 585 772 566 772 c 0,7,8
 539 772 539 772 514 788 c 0,9,10
 501 796 501 796 481 822 c 1,11,12
 466 809 466 809 445 790 c 0,13,14
 428 775 428 775 428 765 c 0,15,16
 428 762 428 762 430 759 c 0,17,18
 527 589 527 589 543 387 c 0,19,20
 544 362 544 362 544 337 c 0,21,22
 544 164 544 164 449 14 c 0,23,24
 445 8 445 8 436 4 c 0,25,26
 429 0 429 0 427 0 c 1,27,-1
 427 1 l 1,28,29
 432 50 432 50 432 97 c 0,30,31
 432 256 432 256 374 379 c 0,32,33
 298 538 298 538 219 669 c 1,34,35
 176 737 176 737 129 803 c 128,-1,36
 82 869 82 869 50 950 c 1,37,38
 72 1013 72 1013 96.5 1077 c 128,-1,39
 121 1141 121 1141 151 1204 c 1,40,41
 175 1156 175 1156 200.5 1104 c 128,-1,42
 226 1052 226 1052 268 1022 c 0,43,44
 306 995 306 995 354 995 c 0,45,46
 377 995 377 995 402 1002 c 0,47,48
 479 1021 479 1021 512 1066 c 0,49,50
 520 1077 520 1077 530 1108 c 128,-1,51
 540 1139 540 1139 547 1152 c 0,52,53
 550 1157 550 1157 552 1157 c 0,54,55
 555 1157 555 1157 557 1152 c 0,56,57
 561 1145 561 1145 561 1140 c 2,58,-1
 561 1138 l 1,59,60
 559 1126 559 1126 559 1116 c 0,61,62
 559 1064 559 1064 609 1053 c 0,63,64
 628 1049 628 1049 646 1049 c 0,65,66
 688 1049 688 1049 721 1074 c 1,67,68
 766 1110 766 1110 778 1166 c 0,69,70
 779 1172 779 1172 789 1190 c 0,71,72
 794 1200 794 1200 796 1200 c 256,73,74
 798 1200 798 1200 798 1195 c 0,0,1
EndSplineSet
Fore
SplineSet
559 1116 m 0
 559 1067.62060794 593.951899545 1049 646 1049 c 0
 674 1049 699 1057.33333333 721 1074 c 0
 751 1098 770 1128.66666667 778 1166 c 1
 778 1166 790.318211443 1200 796 1200 c 256
 797.333333333 1200 798 1198.33333333 798 1195 c 0
 784.958951787 1046.33205037 763.504194759 899.45617621 679 823 c 0
 658.832631734 804.383967754 610.67139468 772 566 772 c 0
 525.213232227 772 503.950866667 792.163873332 481 822 c 1
 471.301484171 813.594619615 428 782.49778856 428 765 c 0
 428 763 428.666666667 761 430 759 c 0
 501.719467622 633.306087674 544 501.349352653 544 337 c 0
 544 221.666666667 512.333333333 114 449 14 c 0
 446.305596878 9.95839531789 433.08571891 0 427 0 c 1
 427 1 l 1
 430.333333333 33.6666666667 432 65.6666666667 432 97 c 0
 432 203 412.666666667 297 374 379 c 0
 323.333333333 485 271.666666667 581.666666667 219 669 c 1
 160.918864814 760.849237036 92.651831987 842.037550283 50 950 c 1
 80.3922461244 1037.03234117 112.390576244 1122.92021011 151 1204 c 1
 193.224942267 1119.55011547 230.405289927 995 354 995 c 0
 422.579309929 995 486.240645777 1030.87360788 512 1066 c 0
 517.686795464 1073.81934376 542.963659338 1157 552 1157 c 0
 556.917605353 1157 561 1143.44840048 561 1140 c 2
 561 1138 l 1
 559.666666667 1130 559 1122.66666667 559 1116 c 0
EndSplineSet
EndChar
StartChar: four-ar
Encoding: 1636 1636 40
Width: 358
GlyphClass: 2
LayerCount: 2
Back
SplineSet
333.984375 149.4140625 m 1,0,1
 317.3828125 122.55859375 317.3828125 122.55859375 302.001953125 93.505859375 c 128,-1,2
 286.62109375 64.453125 286.62109375 64.453125 269.53125 38.0859375 c 1,3,4
 232.91015625 4.39453125 232.91015625 4.39453125 160.64453125 0.9765625 c 0,5,6
 153.80859375 0.48828125 153.80859375 0.48828125 146.97265625 0.48828125 c 0,7,8
 84.47265625 0.48828125 84.47265625 0.48828125 48.828125 31.25 c 0,9,10
 34.66796875 42.96875 34.66796875 42.96875 29.78515625 66.40625 c 1,11,12
 27.83203125 73.2421875 27.83203125 73.2421875 27.83203125 80.078125 c 0,13,14
 27.83203125 95.21484375 27.83203125 95.21484375 35.64453125 107.91015625 c 1,15,16
 52.24609375 137.20703125 52.24609375 137.20703125 69.82421875 166.50390625 c 128,-1,17
 87.40234375 195.80078125 87.40234375 195.80078125 100.09765625 232.91015625 c 1,18,19
 89.84375 259.27734375 89.84375 259.27734375 71.2890625 268.5546875 c 128,-1,20
 52.734375 277.83203125 52.734375 277.83203125 40.0390625 288.818359375 c 128,-1,21
 27.34375 299.8046875 27.34375 299.8046875 27.34375 321.77734375 c 0,22,23
 27.34375 343.26171875 27.34375 343.26171875 54.6875 394.53125 c 0,24,25
 80.078125 442.87109375 80.078125 442.87109375 115.478515625 493.896484375 c 128,-1,26
 150.87890625 544.921875 150.87890625 544.921875 199.21875 575.68359375 c 0,27,28
 208.49609375 581.54296875 208.49609375 581.54296875 222.65625 585.9375 c 1,29,30
 208.0078125 563.96484375 208.0078125 563.96484375 197.509765625 538.818359375 c 128,-1,31
 187.01171875 513.671875 187.01171875 513.671875 175.78125 488.28125 c 1,32,33
 157.2265625 475.09765625 157.2265625 475.09765625 134.27734375 462.646484375 c 128,-1,34
 111.328125 450.1953125 111.328125 450.1953125 103.02734375 426.26953125 c 0,35,36
 101.5625 422.36328125 101.5625 422.36328125 101.5625 418.45703125 c 0,37,38
 101.5625 408.69140625 101.5625 408.69140625 112.79296875 402.83203125 c 1,39,40
 175.29296875 363.76953125 175.29296875 363.76953125 175.29296875 324.70703125 c 0,41,42
 175.29296875 312.5 175.29296875 312.5 169.43359375 300.29296875 c 0,43,44
 144.04296875 249.0234375 144.04296875 249.0234375 100.5859375 179.19921875 c 1,45,46
 105.46875 152.34375 105.46875 152.34375 130.37109375 139.16015625 c 128,-1,47
 155.2734375 125.9765625 155.2734375 125.9765625 184.5703125 121.58203125 c 0,48,49
 202.1484375 118.65234375 202.1484375 118.65234375 218.75 118.65234375 c 0,50,51
 241.2109375 118.65234375 241.2109375 118.65234375 262.20703125 124.51171875 c 0,52,53
 298.33984375 134.27734375 298.33984375 134.27734375 326.66015625 151.3671875 c 1,54,-1
 328.61328125 151.3671875 l 2,55,56
 330.078125 151.3671875 330.078125 151.3671875 333.984375 149.4140625 c 1,0,1
EndSplineSet
Fore
SplineSet
333 149 m 1
 333 149 l 1
 311 113 292 74 269 38 c 1
 221 -7 101 -16 48 31 c 0
 30 47 21 83 35 108 c 0
 58 147 83 183 99 232 c 1
 72 303 -18 257 54 394 c 0
 88 459 135 534 199 574 c 0
 206 578 212 582 222 585 c 1
 203 556 190 521 175 487 c 1
 151 469 114 458 103 426 c 0
 100 417 104 407 112 402 c 0
 221 334 158 272 100 179 c 1
 107 143 146 128 184 121 c 0
 240 112 289 128 326 151 c 1
 326 151 328 152 333 149 c 1
EndSplineSet
EndChar
StartChar: uni0664
Encoding: 1636 1636 40
Width: 734
GlyphClass: 2
LayerCount: 2
Back
SplineSet
684 306 m 1,0,1
 650 251 650 251 618.5 191.5 c 128,-1,2
 587 132 587 132 552 78 c 1,3,4
 477 9 477 9 329 2 c 0,5,6
 315 1 315 1 301 1 c 0,7,8
 173 1 173 1 100 64 c 0,9,10
 71 88 71 88 61 136 c 1,11,12
 57 150 57 150 57 164 c 0,13,14
 57 195 57 195 73 221 c 1,15,16
 107 281 107 281 143 341 c 128,-1,17
 179 401 179 401 205 477 c 1,18,19
 184 531 184 531 146 550 c 128,-1,20
 108 569 108 569 82 591.5 c 128,-1,21
 56 614 56 614 56 659 c 0,22,23
 56 703 56 703 112 808 c 0,24,25
 164 907 164 907 236.5 1011.5 c 128,-1,26
 309 1116 309 1116 408 1179 c 0,27,28
 427 1191 427 1191 456 1200 c 1,29,30
 426 1155 426 1155 404.5 1103.5 c 128,-1,31
 383 1052 383 1052 360 1000 c 1,32,33
 322 973 322 973 275 947.5 c 128,-1,34
 228 922 228 922 211 873 c 0,35,36
 208 865 208 865 208 857 c 0,37,38
 208 837 208 837 231 825 c 1,39,40
 359 745 359 745 359 665 c 0,41,42
 359 640 359 640 347 615 c 0,43,44
 295 510 295 510 206 367 c 1,45,46
 216 312 216 312 267 285 c 128,-1,47
 318 258 318 258 378 249 c 0,48,49
 414 243 414 243 448 243 c 0,50,51
 494 243 494 243 537 255 c 0,52,53
 611 275 611 275 669 310 c 1,54,-1
 673 310 l 2,55,56
 676 310 676 310 684 306 c 1,0,1
EndSplineSet
Fore
SplineSet
448 243 m 0
 536.254429243 243 612.297975326 275.783260973 669 310 c 1
 673 310 l 2
 675 310 678.666666667 308.666666667 684 306 c 1
 638.958307545 233.138438675 598.36526812 149.534985101 552 78 c 1
 497.993540131 28.3140569205 411.288655171 1 301 1 c 0
 186.511936007 1 81.5672087221 37.2773981345 61 136 c 0
 58.3333333333 145.333333333 57 154.666666667 57 164 c 0
 57 184.666666667 62.3333333333 203.666666667 73 221 c 0
 120.328484668 304.520855297 170.99081737 377.588543079 205 477 c 1
 191 513 171.333333333 537.333333333 146 550 c 128
 100.71328346 572.643358271 56 594.633781671 56 659 c 0
 56 688.333333333 74.6666666667 738 112 808 c 0
 146.666666667 874 188.166666667 941.833333333 236.5 1011.5 c 128
 284.833333333 1081.16666667 342 1137 408 1179 c 0
 420.666666667 1187 436.666666667 1194 456 1200 c 1
 416.016553661 1140.02483049 390.642404652 1069.27848009 360 1000 c 1
 334.666666667 982 306.333333333 964.5 275 947.5 c 128
 243.666666667 930.5 222.333333333 905.666666667 211 873 c 0
 209 867.666666667 208 862.333333333 208 857 c 0
 208 843.666666667 215.666666667 833 231 825 c 1
 316.333333333 771.666666667 359 718.333333333 359 665 c 0
 359 648.333333333 355 631.666666667 347 615 c 0
 312.333333333 545 265.333333333 462.333333333 206 367 c 1
 222.619119776 275.594841237 341.471132662 243 448 243 c 0
EndSplineSet
EndChar
StartChar: five-ar
Encoding: 1637 1637 41
Width: 338
GlyphClass: 2
LayerCount: 2
Back
SplineSet
256.34765625 177.734375 m 0,0,1
 248.53515625 206.0546875 248.53515625 206.0546875 225.341796875 259.521484375 c 128,-1,2
 202.1484375 312.98828125 202.1484375 312.98828125 178.7109375 330.56640625 c 0,3,4
 167.96875 338.37890625 167.96875 338.37890625 157.71484375 338.37890625 c 0,5,6
 145.99609375 338.37890625 145.99609375 338.37890625 135.25390625 328.125 c 0,7,8
 114.2578125 308.10546875 114.2578125 308.10546875 83.0078125 240.72265625 c 0,9,10
 66.89453125 206.54296875 66.89453125 206.54296875 66.89453125 184.5703125 c 0,11,12
 66.89453125 163.57421875 66.89453125 163.57421875 82.03125 154.296875 c 1,13,14
 107.91015625 137.20703125 107.91015625 137.20703125 145.01953125 137.20703125 c 0,15,16
 166.50390625 137.20703125 166.50390625 137.20703125 192.3828125 143.06640625 c 0,17,18
 256.8359375 157.71484375 256.8359375 157.71484375 256.8359375 175.29296875 c 0,19,20
 256.8359375 176.26953125 256.8359375 176.26953125 256.34765625 177.734375 c 0,0,1
223.6328125 42.96875 m 0,21,22
 196.2890625 14.16015625 196.2890625 14.16015625 138.18359375 2.44140625 c 0,23,24
 122.55859375 -0.48828125 122.55859375 -0.48828125 108.88671875 -0.48828125 c 0,25,26
 70.3125 -0.48828125 70.3125 -0.48828125 44.43359375 23.4375 c 0,27,28
 28.3203125 38.0859375 28.3203125 38.0859375 28.3203125 77.63671875 c 0,29,30
 28.3203125 87.40234375 28.3203125 87.40234375 29.296875 98.6328125 c 0,31,32
 34.1796875 155.2734375 34.1796875 155.2734375 50.048828125 220.458984375 c 128,-1,33
 65.91796875 285.64453125 65.91796875 285.64453125 86.181640625 344.970703125 c 128,-1,34
 106.4453125 404.296875 106.4453125 404.296875 117.67578125 427.734375 c 0,35,36
 145.01953125 487.3046875 145.01953125 487.3046875 174.8046875 487.3046875 c 0,37,38
 189.94140625 487.3046875 189.94140625 487.3046875 206.0546875 471.19140625 c 0,39,40
 252.44140625 423.33984375 252.44140625 423.33984375 281.73828125 351.5625 c 1,41,42
 304.6875 293.9453125 304.6875 293.9453125 304.6875 237.3046875 c 0,43,44
 304.6875 212.890625 304.6875 212.890625 300.78125 188.96484375 c 0,45,46
 286.62109375 108.3984375 286.62109375 108.3984375 223.6328125 42.96875 c 0,21,22
EndSplineSet
Fore
SplineSet
255 177 m 0
 245 215 209 307 178 330 c 0
 164 340 146 338 134 327 c 0
 106 301 41 180 81 154 c 0
 136 118 262 152 255 177 c 0
223 43 m 0
 187 5 91 -21 44 23 c 0
 -9 72 88 364 117 427 c 0
 173 548 241 446 280 351 c 0
 324 242 307 130 223 43 c 0
EndSplineSet
EndChar
StartChar: uni0665
Encoding: 1637 1637 41
Width: 694
GlyphClass: 2
LayerCount: 2
Back
SplineSet
525 364 m 0,0,1
 509 422 509 422 461.5 531.5 c 128,-1,2
 414 641 414 641 366 677 c 0,3,4
 344 693 344 693 323 693 c 0,5,6
 299 693 299 693 277 672 c 0,7,8
 234 631 234 631 170 493 c 0,9,10
 137 423 137 423 137 378 c 0,11,12
 137 335 137 335 168 316 c 1,13,14
 221 281 221 281 297 281 c 0,15,16
 341 281 341 281 394 293 c 0,17,18
 526 323 526 323 526 359 c 0,19,20
 526 361 526 361 525 364 c 0,0,1
458 88 m 0,21,22
 402 29 402 29 283 5 c 0,23,24
 251 -1 251 -1 223 -1 c 0,25,26
 144 -1 144 -1 91 48 c 0,27,28
 58 78 58 78 58 159 c 0,29,30
 58 179 58 179 60 202 c 0,31,32
 70 318 70 318 102.5 451.5 c 128,-1,33
 135 585 135 585 176.5 706.5 c 128,-1,34
 218 828 218 828 241 876 c 0,35,36
 297 998 297 998 358 998 c 0,37,38
 389 998 389 998 422 965 c 0,39,40
 517 867 517 867 577 720 c 1,41,42
 624 602 624 602 624 486 c 0,43,44
 624 436 624 436 616 387 c 0,45,46
 587 222 587 222 458 88 c 0,21,22
EndSplineSet
Fore
SplineSet
137 378 m 0
 137 303.224455462 226.331797491 281 297 281 c 0
 326.333333333 281 358.666666667 285 394 293 c 0
 482 313 526 335 526 359 c 0
 526 360.333333333 525.666666667 362 525 364 c 0
 514.333333333 402.666666667 493.166666667 458.5 461.5 531.5 c 128
 429.833333333 604.5 398 653 366 677 c 0
 351.333333333 687.666666667 337 693 323 693 c 0
 307 693 291.666666667 686 277 672 c 0
 249.994339975 646.250417186 137 472.221194902 137 378 c 0
458 88 m 0
 415.421555869 43.1405677901 324.051608593 -1 223 -1 c 0
 170.333333333 -1 126.333333333 15.3333333333 91 48 c 0
 69 68 58 105 58 159 c 0
 58 172.333333333 58.6666666667 186.666666667 60 202 c 0
 74.5876966663 371.217281327 127.236842667 562.271720099 176.5 706.5 c 128
 204.166666667 787.5 225.666666667 844 241 876 c 0
 278.333333333 957.333333333 317.333333333 998 358 998 c 0
 378.666666667 998 400 987 422 965 c 0
 485.333333333 899.666666667 537 818 577 720 c 0
 608.333333333 641.333333333 624 563.333333333 624 486 c 0
 624 452.666666667 621.333333333 419.666666667 616 387 c 0
 596.666666667 277 544 177.333333333 458 88 c 0
EndSplineSet
EndChar
StartChar: six-ar
Encoding: 1638 1638 42
Width: 379
GlyphClass: 2
LayerCount: 2
Back
SplineSet
354.98046875 125 m 1,0,1
 334.47265625 59.08203125 334.47265625 59.08203125 309.08203125 3.90625 c 0,2,3
 307.6171875 0.9765625 307.6171875 0.9765625 302.734375 0.48828125 c 1,4,-1
 301.26953125 0.48828125 l 2,5,6
 297.36328125 0.48828125 297.36328125 0.48828125 295.8984375 3.41796875 c 0,7,8
 265.625 78.125 265.625 78.125 250.9765625 170.8984375 c 1,9,10
 241.69921875 226.07421875 241.69921875 226.07421875 241.69921875 285.64453125 c 0,11,12
 241.69921875 326.66015625 241.69921875 326.66015625 246.09375 369.62890625 c 0,13,14
 246.09375 374.0234375 246.09375 374.0234375 247.314453125 384.033203125 c 128,-1,15
 248.53515625 394.04296875 248.53515625 394.04296875 249.0234375 400.390625 c 1,16,17
 183.10546875 401.85546875 183.10546875 401.85546875 131.103515625 416.748046875 c 128,-1,18
 79.1015625 431.640625 79.1015625 431.640625 35.64453125 455.078125 c 0,19,20
 28.80859375 458.49609375 28.80859375 458.49609375 28.80859375 466.796875 c 0,21,22
 28.80859375 472.65625 28.80859375 472.65625 31.73828125 479.98046875 c 0,23,24
 41.50390625 505.859375 41.50390625 505.859375 52.734375 532.71484375 c 128,-1,25
 63.96484375 559.5703125 63.96484375 559.5703125 72.75390625 585.9375 c 1,26,27
 119.62890625 559.5703125 119.62890625 559.5703125 178.7109375 543.45703125 c 0,28,29
 228.02734375 529.78515625 228.02734375 529.78515625 289.55078125 529.78515625 c 0,30,31
 300.29296875 529.78515625 300.29296875 529.78515625 312.01171875 530.2734375 c 1,32,33
 301.26953125 462.890625 301.26953125 462.890625 301.26953125 393.06640625 c 0,34,35
 301.26953125 354.98046875 301.26953125 354.98046875 304.6875 316.40625 c 0,36,37
 313.4765625 206.0546875 313.4765625 206.0546875 350.09765625 132.32421875 c 1,38,-1
 354.98046875 125 l 1,0,1
EndSplineSet
Fore
SplineSet
355 124 m 1
 355 124 l 1
 342 83 326 42 309 4 c 0
 307 0 297 -2 295 3 c 0
 255 102 232 228 246 369 c 0
 247 375 248 392 249 400 c 1
 161 402 94 423 36 454 c 0
 27 459 29 471 32 479 c 0
 45 513 62 551 73 585 c 1
 136 550 213 525 312 529 c 1
 290 391 301 230 350 132 c 0
 351 131 355 125 355 124 c 1
EndSplineSet
EndChar
StartChar: uni0666
Encoding: 1638 1638 42
Width: 777
GlyphClass: 2
LayerCount: 2
Back
SplineSet
727 256 m 1,0,1
 685 121 685 121 633 8 c 0,2,3
 630 2 630 2 620 1 c 1,4,-1
 617 1 l 2,5,6
 609 1 609 1 606 7 c 0,7,8
 544 160 544 160 514 350 c 1,9,10
 495 463 495 463 495 585 c 0,11,12
 495 669 495 669 504 757 c 0,13,14
 504 766 504 766 506.5 786.5 c 128,-1,15
 509 807 509 807 510 820 c 1,16,17
 375 823 375 823 268.5 853.5 c 128,-1,18
 162 884 162 884 73 932 c 0,19,20
 59 939 59 939 59 956 c 0,21,22
 59 968 59 968 65 983 c 0,23,24
 85 1036 85 1036 108 1091 c 128,-1,25
 131 1146 131 1146 149 1200 c 1,26,27
 245 1146 245 1146 366 1113 c 0,28,29
 467 1085 467 1085 593 1085 c 0,30,31
 615 1085 615 1085 639 1086 c 1,32,33
 617 948 617 948 617 805 c 0,34,35
 617 727 617 727 624 648 c 0,36,37
 642 422 642 422 717 271 c 1,38,-1
 727 256 l 1,0,1
EndSplineSet
Fore
SplineSet
727 256 m 1
 699 166 667.666666667 83.3333333333 633 8 c 0
 631 4 626.666666667 1.66666666667 620 1 c 1
 617 1 l 2
 611.666666667 1 608 3 606 7 c 0
 564.666666667 109 534 223.333333333 514 350 c 1
 501.333333333 425.333333333 495 503.666666667 495 585 c 0
 495 641 498 698.333333333 504 757 c 0
 504 763 504.833333333 772.833333333 506.5 786.5 c 128
 508.166666667 800.166666667 509.333333333 811.333333333 510 820 c 1
 420 822 339.5 833.166666667 268.5 853.5 c 128
 197.5 873.833333333 132.333333333 900 73 932 c 0
 63.6666666667 936.666666667 59 944.666666667 59 956 c 0
 59 964 61 973 65 983 c 0
 78.3333333333 1018.33333333 92.6666666667 1054.33333333 108 1091 c 128
 123.333333333 1127.66666667 137 1164 149 1200 c 1
 213 1164 285.333333333 1135 366 1113 c 0
 433.333333333 1094.33333333 509 1085 593 1085 c 0
 607.666666667 1085 623 1085.33333333 639 1086 c 1
 624.333333333 994 617 900.333333333 617 805 c 0
 617 753 619.333333333 700.666666667 624 648 c 0
 636 497.333333333 667 371.666666667 717 271 c 1
 727 256 l 1
EndSplineSet
EndChar
StartChar: seven-ar
Encoding: 1639 1639 43
Width: 376
GlyphClass: 2
LayerCount: 2
Back
SplineSet
352.05078125 584.47265625 m 1,0,1
 340.33203125 514.6484375 340.33203125 514.6484375 340.33203125 450.1953125 c 1,2,3
 302.24609375 372.55859375 302.24609375 372.55859375 274.90234375 285.64453125 c 128,-1,4
 247.55859375 198.73046875 247.55859375 198.73046875 224.12109375 106.4453125 c 1,5,6
 217.28515625 82.03125 217.28515625 82.03125 213.37890625 56.15234375 c 128,-1,7
 209.47265625 30.2734375 209.47265625 30.2734375 198.73046875 9.765625 c 0,8,9
 196.2890625 5.37109375 196.2890625 5.37109375 190.4296875 1.46484375 c 0,10,11
 187.98828125 0 187.98828125 0 186.03515625 0 c 0,12,13
 183.59375 0 183.59375 0 183.10546875 3.41796875 c 0,14,15
 159.66796875 130.37109375 159.66796875 130.37109375 116.2109375 236.572265625 c 128,-1,16
 72.75390625 342.7734375 72.75390625 342.7734375 24.4140625 446.77734375 c 1,17,18
 33.203125 479.4921875 33.203125 479.4921875 44.43359375 514.6484375 c 128,-1,19
 55.6640625 549.8046875 55.6640625 549.8046875 67.3828125 585.9375 c 1,20,21
 156.25 397.4609375 156.25 397.4609375 213.37890625 214.35546875 c 1,22,23
 240.234375 315.4296875 240.234375 315.4296875 274.169921875 406.25 c 128,-1,24
 308.10546875 497.0703125 308.10546875 497.0703125 346.19140625 583.0078125 c 0,25,26
 346.6796875 584.9609375 346.6796875 584.9609375 349.609375 584.9609375 c 0,27,28
 350.5859375 584.9609375 350.5859375 584.9609375 352.05078125 584.47265625 c 1,0,1
EndSplineSet
Fore
SplineSet
352 584 m 1
 352 584 l 1
 345 543 340 497 340 449 c 1
 290 346 256 229 224 106 c 0
 216 74 214 37 199 10 c 0
 196 5 185 -5 183 3 c 0
 153 172 90 308 25 446 c 1
 37 490 53 538 68 585 c 1
 126 464 177 331 213 214 c 1
 249 348 296 468 346 582 c 0
 347 585 349 585 352 584 c 1
EndSplineSet
EndChar
StartChar: uni0667
Encoding: 1639 1639 43
Width: 771
GlyphClass: 2
LayerCount: 2
Back
SplineSet
721 1197 m 1,0,1
 697 1054 697 1054 697 922 c 1,2,3
 619 763 619 763 563 585 c 128,-1,4
 507 407 507 407 459 218 c 1,5,6
 445 168 445 168 437 115 c 128,-1,7
 429 62 429 62 407 20 c 0,8,9
 402 11 402 11 390 3 c 0,10,11
 385 0 385 0 381 0 c 0,12,13
 376 0 376 0 375 7 c 0,14,15
 327 267 327 267 238 484.5 c 128,-1,16
 149 702 149 702 50 915 c 1,17,18
 68 982 68 982 91 1054 c 128,-1,19
 114 1126 114 1126 138 1200 c 1,20,21
 320 814 320 814 437 439 c 1,22,23
 492 646 492 646 561.5 832 c 128,-1,24
 631 1018 631 1018 709 1194 c 0,25,26
 710 1198 710 1198 716 1198 c 0,27,28
 718 1198 718 1198 721 1197 c 1,0,1
EndSplineSet
Fore
SplineSet
721 1197 m 1
 705 1101.66666667 697 1010 697 922 c 1
 593.105287126 710.214623757 522.92865419 469.719075873 459 218 c 0
 440.493043397 151.903726417 436.091806196 75.538902736 407 20 c 0
 403.749663854 14.1493949369 392.336507323 0 381 0 c 0
 377.666666667 0 375.666666667 2.33333333333 375 7 c 0
 310.224854958 357.865368976 182.367594076 630.209115775 50 915 c 1
 75.3131512357 1009.22117404 107.810972601 1106.91716552 138 1200 c 1
 259.333333333 942.666666667 359 689 437 439 c 1
 509.702385051 712.6253401 603.360021458 955.632868937 709 1194 c 0
 709.666666667 1196.66666667 712 1198 716 1198 c 0
 717.333333333 1198 719 1197.66666667 721 1197 c 1
EndSplineSet
EndChar
StartChar: eight-ar
Encoding: 1640 1640 44
AltUni2: 0006f8.ffffffff.0
Width: 376
GlyphClass: 2
LayerCount: 2
Back
SplineSet
24.4140625 0.9765625 m 1,0,1
 36.1328125 71.2890625 36.1328125 71.2890625 36.1328125 135.7421875 c 1,2,3
 73.73046875 212.890625 73.73046875 212.890625 101.07421875 299.8046875 c 128,-1,4
 128.41796875 386.71875 128.41796875 386.71875 152.83203125 479.00390625 c 1,5,6
 158.69140625 503.41796875 158.69140625 503.41796875 162.59765625 529.541015625 c 128,-1,7
 166.50390625 555.6640625 166.50390625 555.6640625 177.734375 576.171875 c 0,8,9
 179.6875 580.078125 179.6875 580.078125 186.03515625 584.47265625 c 0,10,11
 188.4765625 585.9375 188.4765625 585.9375 189.94140625 585.9375 c 0,12,13
 192.3828125 585.9375 192.3828125 585.9375 193.359375 582.51953125 c 0,14,15
 216.30859375 455.078125 216.30859375 455.078125 259.765625 349.12109375 c 128,-1,16
 303.22265625 243.1640625 303.22265625 243.1640625 352.05078125 139.16015625 c 1,17,18
 342.7734375 105.46875 342.7734375 105.46875 331.787109375 70.3125 c 128,-1,19
 320.80078125 35.15625 320.80078125 35.15625 309.08203125 0 c 1,20,21
 219.7265625 187.98828125 219.7265625 187.98828125 163.0859375 371.58203125 c 1,22,23
 136.23046875 270.5078125 136.23046875 270.5078125 102.294921875 179.443359375 c 128,-1,24
 68.359375 88.37890625 68.359375 88.37890625 30.76171875 2.9296875 c 0,25,26
 29.78515625 0.9765625 29.78515625 0.9765625 26.85546875 0.9765625 c 2,27,-1
 24.4140625 0.9765625 l 1,0,1
EndSplineSet
Fore
SplineSet
24 1 m 1
 24 1 l 1
 31 42 36 87 36 135 c 1
 86 238 120 355 152 478 c 0
 160 510 162 548 177 575 c 0
 180 580 191 589 193 581 c 0
 223 412 286 277 351 139 c 1
 339 95 324 47 309 -0 c 1
 251 121 199 254 163 371 c 1
 127 237 80 117 30 3 c 0
 29 0 27 0 24 1 c 1
EndSplineSet
EndChar
StartChar: uni0668
Encoding: 1640 1640 44
AltUni2: 0006f8.ffffffff.0
Width: 771
GlyphClass: 2
LayerCount: 2
Back
SplineSet
50 2 m 1,0,1
 74 146 74 146 74 278 c 1,2,3
 151 436 151 436 207 614 c 128,-1,4
 263 792 263 792 313 981 c 1,5,6
 325 1031 325 1031 333 1084.5 c 128,-1,7
 341 1138 341 1138 364 1180 c 0,8,9
 368 1188 368 1188 381 1197 c 0,10,11
 386 1200 386 1200 389 1200 c 0,12,13
 394 1200 394 1200 396 1193 c 0,14,15
 443 932 443 932 532 715 c 128,-1,16
 621 498 621 498 721 285 c 1,17,18
 702 216 702 216 679.5 144 c 128,-1,19
 657 72 657 72 633 0 c 1,20,21
 450 385 450 385 334 761 c 1,22,23
 279 554 279 554 209.5 367.5 c 128,-1,24
 140 181 140 181 63 6 c 0,25,26
 61 2 61 2 55 2 c 2,27,-1
 50 2 l 1,0,1
EndSplineSet
Fore
SplineSet
50 2 m 1
 66 98 74 190 74 278 c 1
 177.21657961 489.79505946 246.873307211 731.041101256 313 981 c 0
 329.188324068 1048.45135028 334.159273697 1125.50823892 364 1180 c 0
 366.07533862 1184.15067724 378.520252631 1200 389 1200 c 0
 392.333333333 1200 394.666666667 1197.66666667 396 1193 c 0
 427.333333333 1019 472.666666667 859.666666667 532 715 c 128
 591.333333333 570.333333333 654.333333333 427 721 285 c 1
 694.866738988 190.094999486 663.826976595 92.4809297848 633 0 c 1
 511 256.666666667 411.333333333 510.333333333 334 761 c 1
 261.568845188 488.395471891 167.532826429 243.574605522 63 6 c 0
 61.6666666667 3.33333333333 59 2 55 2 c 2
 50 2 l 1
EndSplineSet
EndChar
StartChar: nine-ar
Encoding: 1641 1641 45
AltUni2: 0006f9.ffffffff.0
Width: 317
GlyphClass: 2
LayerCount: 2
Back
SplineSet
182.6171875 413.57421875 m 1,0,1
 178.7109375 425.29296875 178.7109375 425.29296875 168.9453125 439.94140625 c 128,-1,2
 159.1796875 454.58984375 159.1796875 454.58984375 145.01953125 457.03125 c 0,3,4
 140.625 457.51953125 140.625 457.51953125 136.23046875 457.51953125 c 0,5,6
 118.1640625 457.51953125 118.1640625 457.51953125 108.88671875 445.3125 c 0,7,8
 97.65625 430.17578125 97.65625 430.17578125 89.84375 415.0390625 c 0,9,10
 87.40234375 410.64453125 87.40234375 410.64453125 87.40234375 406.73828125 c 0,11,12
 87.40234375 400.390625 87.40234375 400.390625 93.75 395.01953125 c 0,13,14
 107.421875 383.7890625 107.421875 383.7890625 128.90625 383.7890625 c 0,15,16
 133.7890625 383.7890625 133.7890625 383.7890625 139.6484375 384.765625 c 0,17,18
 167.96875 387.6953125 167.96875 387.6953125 185.546875 399.90234375 c 0,19,20
 186.03515625 400.390625 186.03515625 400.390625 186.03515625 400.87890625 c 0,21,22
 186.03515625 402.83203125 186.03515625 402.83203125 184.08203125 407.2265625 c 0,23,24
 182.12890625 411.1328125 182.12890625 411.1328125 182.12890625 412.59765625 c 0,25,26
 182.12890625 413.57421875 182.12890625 413.57421875 182.6171875 413.57421875 c 1,0,1
293.45703125 135.7421875 m 1,27,-1
 235.83984375 0 l 1,28,29
 213.8671875 75.1953125 213.8671875 75.1953125 202.1484375 144.287109375 c 128,-1,30
 190.4296875 213.37890625 190.4296875 213.37890625 189.453125 307.6171875 c 1,31,32
 171.875 281.25 171.875 281.25 135.7421875 261.71875 c 0,33,34
 116.69921875 251.46484375 116.69921875 251.46484375 97.16796875 251.46484375 c 0,35,36
 78.125 251.46484375 78.125 251.46484375 58.10546875 260.7421875 c 0,37,38
 27.34375 274.4140625 27.34375 274.4140625 27.34375 312.01171875 c 0,39,40
 27.34375 315.4296875 27.34375 315.4296875 27.83203125 319.3359375 c 0,41,42
 30.76171875 362.79296875 30.76171875 362.79296875 51.26953125 412.109375 c 128,-1,43
 71.77734375 461.42578125 71.77734375 461.42578125 99.365234375 505.37109375 c 128,-1,44
 126.953125 549.31640625 126.953125 549.31640625 142.08984375 565.4296875 c 0,45,46
 152.34375 576.66015625 152.34375 576.66015625 171.875 584.47265625 c 0,47,48
 180.17578125 587.40234375 180.17578125 587.40234375 188.4765625 587.40234375 c 0,49,50
 199.70703125 587.40234375 199.70703125 587.40234375 211.42578125 581.54296875 c 1,51,52
 252.44140625 559.08203125 252.44140625 559.08203125 254.39453125 508.30078125 c 0,53,54
 257.8125 399.90234375 257.8125 399.90234375 260.986328125 312.255859375 c 128,-1,55
 264.16015625 224.609375 264.16015625 224.609375 290.0390625 141.11328125 c 1,56,-1
 293.45703125 135.7421875 l 1,27,-1
EndSplineSet
Fore
SplineSet
183 411 m 1
 183 411 l 1
 178 427 164 452 145 455 c 0
 112 460 101 434 90 413 c 0
 86 406 88 398 94 393 c 0
 117 375 163 382 186 398 c 0
 188 399 181 411 183 411 c 1
293 134 m 1
 236 -2 l 1
 207 98 191 181 190 306 c 1
 166 271 112 234 58 259 c 0
 -33 300 103 521 142 563 c 0
 156 578 185 593 211 579 c 0
 237 565 253 538 254 506 c 0
 259 362 256 250 290 139 c 1
 293 134 l 1
EndSplineSet
EndChar
StartChar: uni0669
Encoding: 1641 1641 45
AltUni2: 0006f9.ffffffff.0
Width: 651
GlyphClass: 2
LayerCount: 2
Back
SplineSet
374 847 m 1,0,1
 366 871 366 871 346 901 c 128,-1,2
 326 931 326 931 297 936 c 0,3,4
 288 937 288 937 279 937 c 0,5,6
 242 937 242 937 223 912 c 0,7,8
 200 881 200 881 184 850 c 0,9,10
 179 841 179 841 179 833 c 0,11,12
 179 820 179 820 192 809 c 0,13,14
 220 786 220 786 264 786 c 0,15,16
 274 786 274 786 286 788 c 0,17,18
 344 794 344 794 380 819 c 0,19,20
 381 820 381 820 381 821 c 0,21,22
 381 825 381 825 377 834 c 0,23,24
 373 842 373 842 373 845 c 0,25,26
 373 847 373 847 374 847 c 1,0,1
601 278 m 1,27,-1
 483 0 l 1,28,29
 438 154 438 154 414 295.5 c 128,-1,30
 390 437 390 437 388 630 c 1,31,32
 352 576 352 576 278 536 c 0,33,34
 239 515 239 515 199 515 c 0,35,36
 160 515 160 515 119 534 c 0,37,38
 56 562 56 562 56 639 c 0,39,40
 56 646 56 646 57 654 c 0,41,42
 63 743 63 743 105 844 c 128,-1,43
 147 945 147 945 203.5 1035 c 128,-1,44
 260 1125 260 1125 291 1158 c 0,45,46
 312 1181 312 1181 352 1197 c 0,47,48
 369 1203 369 1203 386 1203 c 0,49,50
 409 1203 409 1203 433 1191 c 1,51,52
 517 1145 517 1145 521 1041 c 0,53,54
 528 819 528 819 534.5 639.5 c 128,-1,55
 541 460 541 460 594 289 c 1,56,-1
 601 278 l 1,27,-1
EndSplineSet
Fore
SplineSet
374 847 m 1
 368.666666667 863 359.333333333 881 346 901 c 128
 332.666666667 921 316.333333333 932.666666667 297 936 c 0
 291 936.666666667 285 937 279 937 c 0
 254.333333333 937 235.666666667 928.666666667 223 912 c 0
 207.666666667 891.333333333 194.666666667 870.666666667 184 850 c 0
 180.666666667 844 179 838.333333333 179 833 c 0
 179 824.333333333 183.333333333 816.333333333 192 809 c 0
 210.666666667 793.666666667 234.666666667 786 264 786 c 0
 270.666666667 786 278 786.666666667 286 788 c 0
 324.666666667 792 356 802.333333333 380 819 c 0
 380.666666667 819.666666667 381 820.333333333 381 821 c 0
 381 823.666666667 379.666666667 828 377 834 c 0
 374.333333333 839.333333333 373 843 373 845 c 0
 373 846.333333333 373.333333333 847 374 847 c 1
601 278 m 1
 483 0 l 1
 453 102.666666667 430 201.166666667 414 295.5 c 128
 398 389.833333333 389.333333333 501.333333333 388 630 c 1
 364 594 327.333333333 562.666666667 278 536 c 0
 252 522 225.666666667 515 199 515 c 0
 173 515 146.333333333 521.333333333 119 534 c 0
 77 552.666666667 56 587.666666667 56 639 c 0
 56 643.666666667 56.3333333333 648.666666667 57 654 c 0
 61 713.333333333 77 776.666666667 105 844 c 128
 133 911.333333333 165.833333333 975 203.5 1035 c 128
 241.166666667 1095 270.333333333 1136 291 1158 c 0
 305 1173.33333333 325.333333333 1186.33333333 352 1197 c 0
 363.333333333 1201 374.666666667 1203 386 1203 c 0
 401.333333333 1203 417 1199 433 1191 c 1
 489 1160.33333333 518.333333333 1110.33333333 521 1041 c 0
 525.666666667 893 530.166666667 759.166666667 534.5 639.5 c 128
 538.833333333 519.833333333 558.666666667 403 594 289 c 1
 601 278 l 1
EndSplineSet
EndChar
StartChar: percent-ar
Encoding: 1642 1642 53
Width: 440
GlyphClass: 2
LayerCount: 2
Back
SplineSet
24.4140625 429.19921875 m 1,0,-1
 92.28515625 542.48046875 l 1,1,-1
 174.8046875 494.140625 l 1,2,-1
 107.421875 378.90625 l 1,3,-1
 24.4140625 429.19921875 l 1,0,-1
266.11328125 9.765625 m 1,4,-1
 333.984375 123.046875 l 1,5,-1
 416.50390625 74.21875 l 1,6,-1
 349.12109375 -41.015625 l 1,7,-1
 266.11328125 9.765625 l 1,4,-1
62.5 -62.5 m 1,8,-1
 324.70703125 480.46875 l 1,9,-1
 396.484375 513.671875 l 1,10,-1
 132.32421875 -29.78515625 l 1,11,-1
 62.5 -62.5 l 1,8,-1
EndSplineSet
Fore
SplineSet
24 429 m 1
 92 542 l 1
 175 494 l 1
 107 379 l 1
 24 429 l 1
266 10 m 1
 334 123 l 1
 417 74 l 1
 349 -41 l 1
 266 10 l 1
62 -62 m 1
 325 480 l 1
 396 514 l 1
 132 -30 l 1
 62 -62 l 1
EndSplineSet
EndChar
StartChar: behDotless-ar
Encoding: 1646 1646 57
Width: 801
GlyphClass: 2
AnchorPoint: "bottom" 308 -136 basechar 0
AnchorPoint: "bottom.mark" 330 -185 basechar 0
AnchorPoint: "top.mark" 347 532 basechar 0
AnchorPoint: "top" 397 505 basechar 0
LayerCount: 2
Back
SplineSet
698.73046875 214.84375 m 0,0,1
 666.9921875 148.4375 666.9921875 148.4375 577.63671875 93.505859375 c 128,-1,2
 488.28125 38.57421875 488.28125 38.57421875 388.18359375 15.13671875 c 0,3,4
 329.1015625 0.9765625 329.1015625 0.9765625 274.90234375 0.9765625 c 0,5,6
 236.328125 0.9765625 236.328125 0.9765625 199.70703125 8.30078125 c 0,7,8
 111.81640625 24.90234375 111.81640625 24.90234375 83.0078125 103.02734375 c 0,9,10
 73.2421875 129.39453125 73.2421875 129.39453125 73.2421875 158.203125 c 0,11,12
 73.2421875 198.73046875 73.2421875 198.73046875 93.26171875 244.140625 c 0,13,14
 127.44140625 320.3125 127.44140625 320.3125 164.0625 377.9296875 c 1,15,16
 170.41015625 386.71875 170.41015625 386.71875 177.24609375 386.71875 c 0,17,18
 179.6875 386.71875 179.6875 386.71875 182.12890625 385.7421875 c 0,19,20
 187.5 383.30078125 187.5 383.30078125 187.5 376.953125 c 0,21,22
 187.5 372.55859375 187.5 372.55859375 184.5703125 365.72265625 c 1,23,24
 143.5546875 289.0625 143.5546875 289.0625 143.5546875 239.74609375 c 0,25,26
 143.5546875 230.46875 143.5546875 230.46875 145.01953125 222.65625 c 0,27,28
 153.80859375 169.921875 153.80859375 169.921875 198.73046875 146.484375 c 1,29,30
 241.2109375 123.53515625 241.2109375 123.53515625 305.6640625 123.53515625 c 0,31,32
 309.08203125 123.53515625 309.08203125 123.53515625 312.5 124.0234375 c 0,33,34
 381.34765625 125 381.34765625 125 453.125 142.578125 c 0,35,36
 524.4140625 159.66796875 524.4140625 159.66796875 587.40234375 190.4296875 c 2,37,-1
 649.90234375 221.19140625 l 1,38,-1
 649.90234375 223.14453125 l 2,39,40
 649.90234375 241.69921875 649.90234375 241.69921875 640.13671875 276.3671875 c 1,41,42
 629.39453125 312.01171875 629.39453125 312.01171875 619.140625 342.28515625 c 1,43,-1
 695.80078125 455.56640625 l 1,44,-1
 719.7265625 382.32421875 l 2,45,46
 728.02734375 356.4453125 728.02734375 356.4453125 728.02734375 328.61328125 c 0,47,48
 728.02734375 275.87890625 728.02734375 275.87890625 698.73046875 214.84375 c 0,0,1
EndSplineSet
Fore
SplineSet
619 342 m 1
 696 456 l 1
 696 456 759 335 699 215 c 0
 646 107 441 1 275 1 c 0
 264 1 86 -13 86 152 c 0
 86 207 123 288 177 369 c 0
 188 385 196 380 192 372 c 0
 184 357 147 300 144 240 c 0
 140 155 219 124 306 124 c 0
 456 124 650 221 650 221 c 1
 651 244 632 308 619 342 c 1
EndSplineSet
EndChar
StartChar: qafDotless-ar
Encoding: 1647 1647 379
Width: 488
GlyphClass: 2
AnchorPoint: "Tashkil Below" 174 -180 basechar 0
AnchorPoint: "Dots Below" 188 -167 basechar 0
AnchorPoint: "Dots Above" 218 637 basechar 0
AnchorPoint: "Tashkil Above" 297 655 basechar 0
LayerCount: 2
Back
SplineSet
119.140625 0.9765625 m 24,0,1
 176.7578125 -4.39453125 176.7578125 -4.39453125 242.919921875 28.076171875 c 128,-1,2
 309.08203125 60.546875 309.08203125 60.546875 354.00390625 125 c 0,3,4
 404.78515625 198.73046875 404.78515625 198.73046875 431.640625 323.2421875 c 128,-1,5
 458.49609375 447.75390625 458.49609375 447.75390625 389.16015625 518.5546875 c 0,6,7
 379.8828125 527.34375 379.8828125 527.34375 363.037109375 533.69140625 c 128,-1,8
 346.19140625 540.0390625 346.19140625 540.0390625 334.47265625 526.85546875 c 0,9,10
 310.546875 500 310.546875 500 295.41015625 465.33203125 c 128,-1,11
 280.2734375 430.6640625 280.2734375 430.6640625 264.16015625 398.4375 c 1,12,13
 244.140625 360.83984375 244.140625 360.83984375 265.625 337.40234375 c 1,14,15
 278.3203125 322.75390625 278.3203125 322.75390625 305.908203125 320.556640625 c 128,-1,16
 333.49609375 318.359375 333.49609375 318.359375 358.3984375 324.21875 c 1,17,18
 368.1640625 310.05859375 368.1640625 310.05859375 370.361328125 281.25 c 128,-1,19
 372.55859375 252.44140625 372.55859375 252.44140625 372.55859375 232.421875 c 1,20,21
 345.21484375 207.03125 345.21484375 207.03125 293.9453125 180.17578125 c 128,-1,22
 242.67578125 153.3203125 242.67578125 153.3203125 185.546875 144.04296875 c 128,-1,23
 128.41796875 134.765625 128.41796875 134.765625 87.40234375 151.3671875 c 0,24,25
 47.36328125 167.48046875 47.36328125 167.48046875 40.0390625 199.70703125 c 0,26,27
 36.62109375 213.8671875 36.62109375 213.8671875 36.62109375 228.515625 c 0,28,29
 36.62109375 247.0703125 36.62109375 247.0703125 41.50390625 267.08984375 c 0,30,31
 49.8046875 300.78125 49.8046875 300.78125 69.3359375 338.37890625 c 0,32,33
 87.890625 374.0234375 87.890625 374.0234375 99.12109375 399.90234375 c 1,34,35
 102.5390625 408.69140625 102.5390625 408.69140625 102.5390625 414.0625 c 0,36,37
 102.5390625 418.9453125 102.5390625 418.9453125 99.609375 420.41015625 c 0,38,39
 98.14453125 420.8984375 98.14453125 420.8984375 96.6796875 420.8984375 c 0,40,41
 92.28515625 420.8984375 92.28515625 420.8984375 87.40234375 411.62109375 c 0,42,43
 -0.48828125 244.62890625 -0.48828125 244.62890625 -0.48828125 157.2265625 c 0,44,45
 -0.48828125 149.4140625 -0.48828125 149.4140625 0 141.6015625 c 0,46,47
 7.8125 11.23046875 7.8125 11.23046875 119.140625 0.9765625 c 24,0,1
EndSplineSet
Fore
SplineSet
103 414 m 0
 103 418 101 421 97 421 c 0
 94 421 90 418 87 412 c 0
 28 301 0 215 -0 157 c 0
 0 61 41 8 119 1 c 24
 157 -3 199 6 243 28 c 128
 350 81 402 182 432 323 c 128
 450 406 435 472 389 519 c 0
 378 530 350 545 334 527 c 0
 303 492 286 442 264 398 c 1
 251 373 252 353 266 337 c 1
 283 318 326 316 358 324 c 1
 369 307 373 260 373 232 c 1
 334 195 255 155 186 144 c 128
 120 133 51 151 40 200 c 0
 38 209 37 219 37 229 c 0
 37 241 39 254 42 267 c 0
 52 308 84 365 99 400 c 0
 101 406 103 410 103 414 c 0
EndSplineSet
EndChar
StartChar: alefabove-ar
Encoding: 1648 1648 24
Width: 0
GlyphClass: 4
AnchorPoint: "top.mkmk" 0 0 mark 0
AnchorPoint: "top.mark" 0 0 mark 0
LayerCount: 2
Back
SplineSet
4.39453125 -67.87109375 m 0,0,1
 1.953125 -70.80078125 1.953125 -70.80078125 -0.48828125 -70.80078125 c 2,2,-1
 -0.9765625 -70.80078125 l 1,3,4
 -2.9296875 -70.3125 -2.9296875 -70.3125 -2.9296875 -68.359375 c 0,5,6
 -2.9296875 -67.87109375 -2.9296875 -67.87109375 -2.44140625 -66.89453125 c 0,7,8
 0.9765625 -47.8515625 0.9765625 -47.8515625 0.9765625 -30.76171875 c 2,9,-1
 0.9765625 -22.94921875 l 1,10,11
 0 -2.9296875 0 -2.9296875 -4.39453125 15.13671875 c 128,-1,12
 -8.7890625 33.203125 -8.7890625 33.203125 -15.380859375 49.560546875 c 128,-1,13
 -21.97265625 65.91796875 -21.97265625 65.91796875 -28.80859375 82.03125 c 0,14,15
 -32.2265625 90.33203125 -32.2265625 90.33203125 -35.15625 98.388671875 c 128,-1,16
 -38.0859375 106.4453125 -38.0859375 106.4453125 -39.55078125 115.72265625 c 1,17,18
 -36.1328125 124.0234375 -36.1328125 124.0234375 -32.2265625 132.8125 c 128,-1,19
 -28.3203125 141.6015625 -28.3203125 141.6015625 -24.4140625 149.90234375 c 1,20,21
 -24.4140625 152.34375 -24.4140625 152.34375 -22.94921875 153.564453125 c 128,-1,22
 -21.484375 154.78515625 -21.484375 154.78515625 -19.53125 155.2734375 c 1,23,-1
 -19.04296875 155.2734375 l 2,24,25
 -17.578125 155.2734375 -17.578125 155.2734375 -16.6015625 154.78515625 c 0,26,27
 -15.625 153.80859375 -15.625 153.80859375 -15.13671875 152.34375 c 0,28,29
 -9.27734375 136.23046875 -9.27734375 136.23046875 -1.46484375 118.408203125 c 128,-1,30
 6.34765625 100.5859375 6.34765625 100.5859375 13.427734375 81.787109375 c 128,-1,31
 20.5078125 62.98828125 20.5078125 62.98828125 25.634765625 43.9453125 c 128,-1,32
 30.76171875 24.90234375 30.76171875 24.90234375 31.25 5.859375 c 1,33,-1
 31.25 4.39453125 l 2,34,35
 31.25 -14.16015625 31.25 -14.16015625 25.390625 -31.73828125 c 0,36,37
 19.53125 -50.78125 19.53125 -50.78125 4.39453125 -67.87109375 c 0,0,1
EndSplineSet
Fore
SplineSet
-24 150 m 1
 -24 153 -23 154 -20 155 c 1
 -19 155 l 2
 -17 155 -16 154 -15 152 c 0
 -2 117 16 82 26 44 c 128
 29 31 31 19 31 6 c 2
 31 4 l 2
 31 -27 21 -49 4 -68 c 0
 2 -70 2 -71 -0 -71 c 2
 -1 -71 l 2
 -2 -71 -3 -69 -3 -68 c 0
 -3 -68 -2 -68 -2 -67 c 0
 0 -54 1 -42 1 -31 c 2
 1 -23 l 1
 -1 27 -21 60 -35 98 c 128
 -37 103 -39 110 -40 116 c 1
 -35 127 -29 139 -24 150 c 1
EndSplineSet
EndChar
StartChar: uni0670
Encoding: 1648 1648 24
Width: 0
GlyphClass: 4
AnchorPoint: "Mark Mark Above" 0 0 mark 0
AnchorPoint: "Tashkil Above" 0 0 mark 0
LayerCount: 2
Back
SplineSet
9 -139 m 0,0,1
 4 -145 4 -145 -1 -145 c 2,2,-1
 -2 -145 l 1,3,4
 -6 -144 -6 -144 -6 -140 c 0,5,6
 -6 -139 -6 -139 -5 -137 c 0,7,8
 2 -98 2 -98 2 -63 c 2,9,-1
 2 -47 l 1,10,11
 0 -6 0 -6 -9 31 c 128,-1,12
 -18 68 -18 68 -31.5 101.5 c 128,-1,13
 -45 135 -45 135 -59 168 c 0,14,15
 -66 185 -66 185 -72 201.5 c 128,-1,16
 -78 218 -78 218 -81 237 c 1,17,18
 -74 254 -74 254 -66 272 c 128,-1,19
 -58 290 -58 290 -50 307 c 1,20,21
 -50 312 -50 312 -47 314.5 c 128,-1,22
 -44 317 -44 317 -40 318 c 1,23,-1
 -39 318 l 2,24,25
 -36 318 -36 318 -34 317 c 0,26,27
 -32 315 -32 315 -31 312 c 0,28,29
 -19 279 -19 279 -3 242.5 c 128,-1,30
 13 206 13 206 27.5 167.5 c 128,-1,31
 42 129 42 129 52.5 90 c 128,-1,32
 63 51 63 51 64 12 c 1,33,-1
 64 9 l 2,34,35
 64 -29 64 -29 52 -65 c 0,36,37
 40 -104 40 -104 9 -139 c 0,0,1
EndSplineSet
Fore
SplineSet
9 -139 m 0
 5.66666666667 -143 2.33333333333 -145 -1 -145 c 2
 -2 -145 l 1
 -4.66666666667 -144.333333333 -6 -142.666666667 -6 -140 c 0
 -6 -139.333333333 -5.66666666667 -138.333333333 -5 -137 c 0
 -0.333333333333 -111 2 -86.3333333333 2 -63 c 2
 2 -47 l 1
 0.666666666667 -19.6666666667 -3 6.33333333333 -9 31 c 128
 -15 55.6666666667 -22.5 79.1666666667 -31.5 101.5 c 128
 -40.5 123.833333333 -49.6666666667 146 -59 168 c 0
 -63.6666666667 179.333333333 -68 190.5 -72 201.5 c 128
 -76 212.5 -79 224.333333333 -81 237 c 1
 -76.3333333333 248.333333333 -71.3333333333 260 -66 272 c 128
 -60.6666666667 284 -55.3333333333 295.666666667 -50 307 c 1
 -50 310.333333333 -49 312.833333333 -47 314.5 c 128
 -45 316.166666667 -42.6666666667 317.333333333 -40 318 c 1
 -39 318 l 2
 -37 318 -35.3333333333 317.666666667 -34 317 c 0
 -32.6666666667 315.666666667 -31.6666666667 314 -31 312 c 0
 -23 290 -13.6666666667 266.833333333 -3 242.5 c 128
 7.66666666667 218.166666667 17.8333333333 193.166666667 27.5 167.5 c 128
 37.1666666667 141.833333333 45.5 116 52.5 90 c 128
 59.5 64 63.3333333333 38 64 12 c 1
 64 9 l 2
 64 -16.3333333333 60 -41 52 -65 c 0
 44 -91 29.6666666667 -115.666666667 9 -139 c 0
EndSplineSet
EndChar
StartChar: fehDotless-ar
Encoding: 1697 1697 85
Width: 679
GlyphClass: 2
AnchorPoint: "bottom.mark" 290 -171 basechar 0
AnchorPoint: "bottom" 334 -171 basechar 0
AnchorPoint: "top" 483 650 basechar 0
AnchorPoint: "top.mark" 532 606 basechar 0
LayerCount: 2
Back
SplineSet
579.1015625 134.765625 m 0,0,1
 542.96875 95.21484375 542.96875 95.21484375 496.826171875 69.3359375 c 128,-1,2
 450.68359375 43.45703125 450.68359375 43.45703125 399.90234375 27.83203125 c 0,3,4
 334.47265625 8.30078125 334.47265625 8.30078125 246.09375 0.9765625 c 0,5,6
 230.46875 -0.48828125 230.46875 -0.48828125 215.8203125 -0.48828125 c 0,7,8
 146.97265625 -0.48828125 146.97265625 -0.48828125 95.703125 28.3203125 c 1,9,10
 49.8046875 54.6875 49.8046875 54.6875 32.71484375 102.5390625 c 0,11,12
 22.94921875 129.39453125 22.94921875 129.39453125 22.94921875 157.71484375 c 0,13,14
 22.94921875 198.73046875 22.94921875 198.73046875 42.96875 243.65234375 c 0,15,16
 77.1484375 319.82421875 77.1484375 319.82421875 113.76953125 377.44140625 c 1,17,18
 120.1171875 386.23046875 120.1171875 386.23046875 126.953125 386.23046875 c 0,19,20
 129.39453125 386.23046875 129.39453125 386.23046875 131.8359375 385.7421875 c 1,21,22
 137.20703125 383.30078125 137.20703125 383.30078125 137.20703125 376.953125 c 0,23,24
 137.20703125 372.55859375 137.20703125 372.55859375 134.27734375 365.72265625 c 1,25,26
 90.33203125 284.66796875 90.33203125 284.66796875 90.33203125 232.91015625 c 0,27,28
 90.33203125 193.359375 90.33203125 193.359375 116.2109375 170.8984375 c 0,29,30
 169.43359375 124.0234375 169.43359375 124.0234375 262.6953125 124.0234375 c 0,31,32
 272.4609375 124.0234375 272.4609375 124.0234375 282.71484375 124.51171875 c 1,33,-1
 283.203125 124.51171875 l 1,34,35
 336.42578125 128.41796875 336.42578125 128.41796875 445.556640625 155.517578125 c 128,-1,36
 554.6875 182.6171875 554.6875 182.6171875 600.5859375 223.6328125 c 1,37,-1
 588.37890625 259.765625 l 2,38,39
 578.125 289.0625 578.125 289.0625 571.2890625 289.0625 c 0,40,41
 569.3359375 289.0625 569.3359375 289.0625 567.87109375 287.109375 c 1,42,43
 551.7578125 273.4375 551.7578125 273.4375 526.3671875 265.625 c 0,44,45
 516.11328125 262.6953125 516.11328125 262.6953125 506.34765625 262.6953125 c 0,46,47
 491.69921875 262.6953125 491.69921875 262.6953125 477.5390625 269.53125 c 256,48,49
 463.37890625 276.3671875 463.37890625 276.3671875 462.890625 296.875 c 0,50,51
 462.40234375 298.828125 462.40234375 298.828125 462.40234375 300.29296875 c 0,52,53
 462.40234375 318.359375 462.40234375 318.359375 469.7265625 331.54296875 c 0,54,55
 485.83984375 362.3046875 485.83984375 362.3046875 501.220703125 394.775390625 c 128,-1,56
 516.6015625 427.24609375 516.6015625 427.24609375 537.109375 455.078125 c 0,57,58
 552.24609375 475.5859375 552.24609375 475.5859375 569.3359375 475.5859375 c 0,59,60
 580.078125 475.5859375 580.078125 475.5859375 591.796875 467.28515625 c 0,61,62
 621.58203125 445.80078125 621.58203125 445.80078125 640.625 409.1796875 c 0,63,64
 660.15625 370.60546875 660.15625 370.60546875 660.15625 327.63671875 c 0,65,66
 660.15625 297.36328125 660.15625 297.36328125 650.390625 264.6484375 c 0,67,68
 625.9765625 186.5234375 625.9765625 186.5234375 579.1015625 134.765625 c 0,0,1
EndSplineSet
Fore
SplineSet
88 34 m 0
 19 80 4 178 118 352 c 0
 123 360 127 369 138 372 c 1
 118 336 94 294 90 241 c 0
 73 41 528 152 600 224 c 1
 600 224 579 299 568 287 c 0
 547 269 509 254 477 270 c 0
 458 279 459 313 469 332 c 0
 491 373 510 418 537 455 c 0
 570 500 616 458 641 409 c 0
 686 320 646 214 579 135 c 0
 476 13 199 -40 88 34 c 0
EndSplineSet
EndChar
StartChar: keheh-ar
Encoding: 1705 1705 116
Width: 944
GlyphClass: 2
AnchorPoint: "top.gaf" 694 914 basechar 0
AnchorPoint: "bottom" 250 -92 basechar 0
AnchorPoint: "bottom.mark" 272 -158 basechar 0
AnchorPoint: "top.mark" 677 967 basechar 0
AnchorPoint: "top" 694 914 basechar 0
LayerCount: 2
Back
SplineSet
488.28125 217.7734375 m 1,0,1
 491.69921875 220.703125 491.69921875 220.703125 491.69921875 232.91015625 c 2,2,-1
 491.69921875 239.2578125 l 1,3,-1
 470.703125 522.94921875 l 1,4,-1
 532.71484375 625.48828125 l 1,5,-1
 562.98828125 734.86328125 l 1,6,7
 643.5546875 782.2265625 643.5546875 782.2265625 724.609375 829.58984375 c 128,-1,8
 805.6640625 876.953125 805.6640625 876.953125 886.71875 924.31640625 c 1,9,10
 891.11328125 926.26953125 891.11328125 926.26953125 893.5546875 926.26953125 c 0,11,12
 897.4609375 926.26953125 897.4609375 926.26953125 897.4609375 921.38671875 c 0,13,14
 897.4609375 919.921875 897.4609375 919.921875 896.97265625 917.48046875 c 2,15,-1
 864.74609375 800.78125 l 1,16,17
 785.15625 753.90625 785.15625 753.90625 705.56640625 707.51953125 c 128,-1,18
 625.9765625 661.1328125 625.9765625 661.1328125 546.875 614.74609375 c 1,19,-1
 566.89453125 344.23828125 l 2,20,21
 567.3828125 338.8671875 567.3828125 338.8671875 567.3828125 333.49609375 c 0,22,23
 567.3828125 293.45703125 567.3828125 293.45703125 550.78125 255.859375 c 0,24,25
 531.73828125 213.37890625 531.73828125 213.37890625 507.8125 176.26953125 c 1,26,27
 470.703125 120.1171875 470.703125 120.1171875 398.193359375 74.21875 c 128,-1,28
 325.68359375 28.3203125 325.68359375 28.3203125 248.046875 10.25390625 c 0,29,30
 208.984375 0.9765625 208.984375 0.9765625 172.36328125 0.9765625 c 0,31,32
 136.71875 0.9765625 136.71875 0.9765625 103.02734375 10.25390625 c 0,33,34
 35.64453125 27.83203125 35.64453125 27.83203125 8.7890625 99.609375 c 0,35,36
 -1.46484375 126.46484375 -1.46484375 126.46484375 -1.46484375 155.2734375 c 0,37,38
 -1.46484375 197.75390625 -1.46484375 197.75390625 20.5078125 243.65234375 c 1,39,40
 56.640625 321.2890625 56.640625 321.2890625 90.33203125 374.0234375 c 1,41,42
 96.6796875 382.8125 96.6796875 382.8125 103.515625 382.8125 c 0,43,44
 105.95703125 382.8125 105.95703125 382.8125 108.3984375 382.32421875 c 1,45,46
 113.76953125 379.8828125 113.76953125 379.8828125 113.76953125 373.53515625 c 0,47,48
 113.76953125 369.140625 113.76953125 369.140625 110.83984375 362.3046875 c 1,49,50
 81.54296875 308.59375 81.54296875 308.59375 62.5 260.7421875 c 0,51,52
 58.10546875 249.0234375 58.10546875 249.0234375 58.10546875 237.3046875 c 0,53,54
 58.10546875 201.171875 58.10546875 201.171875 103.515625 165.52734375 c 0,55,56
 138.671875 137.6953125 138.671875 137.6953125 190.91796875 136.23046875 c 0,57,58
 197.265625 135.7421875 197.265625 135.7421875 203.61328125 135.7421875 c 0,59,60
 249.51171875 135.7421875 249.51171875 135.7421875 297.8515625 146.484375 c 0,61,62
 352.5390625 158.69140625 352.5390625 158.69140625 403.80859375 179.443359375 c 128,-1,63
 455.078125 200.1953125 455.078125 200.1953125 488.28125 217.7734375 c 1,0,1
EndSplineSet
Fore
SplineSet
487 148 m 0
 417 64 272 -11 142 2 c 0
 61 10 18 54 5 113 c 0
 -6 165 9 246 84 361 c 0
 89 369 100 377 111 380 c 1
 65 297 35 239 82 185 c 0
 154 101 309 130 491 222 c 1
 491 324 479 425 472 525 c 1
 532 620 l 1
 564 737 l 1
 672 800 780 863 888 926 c 0
 893 928 900 926 899 920 c 2
 866 803 l 1
 760 741 653 678 547 616 c 1
 563 359 l 2
 566 317 566 303 558 275 c 1
 558 275 527 196 487 148 c 0
EndSplineSet
EndChar
StartChar: yehbarree-ar
Encoding: 1746 1746 124
Width: 699
GlyphClass: 2
AnchorPoint: "Dots Above" 281 659 basechar 0
AnchorPoint: "Tashkil Above" 360 712 basechar 0
AnchorPoint: "Dots Below" 483 -119 basechar 0
AnchorPoint: "Tashkil Below" 549 -185 basechar 0
LayerCount: 2
Back
SplineSet
344.23828125 462.890625 m 1,0,1
 351.5625 432.12890625 351.5625 432.12890625 352.783203125 392.333984375 c 128,-1,2
 354.00390625 352.5390625 354.00390625 352.5390625 340.33203125 318.359375 c 0,3,4
 337.890625 312.5 337.890625 312.5 328.61328125 306.396484375 c 128,-1,5
 319.3359375 300.29296875 319.3359375 300.29296875 319.3359375 309.5703125 c 1,6,7
 317.87109375 331.0546875 317.87109375 331.0546875 307.861328125 350.09765625 c 128,-1,8
 297.8515625 369.140625 297.8515625 369.140625 275.87890625 372.0703125 c 1,9,10
 251.953125 366.2109375 251.953125 366.2109375 237.79296875 350.09765625 c 128,-1,11
 223.6328125 333.984375 223.6328125 333.984375 213.37890625 314.94140625 c 0,12,13
 158.69140625 209.47265625 158.69140625 209.47265625 74.70703125 165.0390625 c 1,14,15
 64.94140625 158.69140625 64.94140625 158.69140625 64.94140625 153.3203125 c 1,16,17
 140.625 128.41796875 140.625 128.41796875 223.14453125 133.30078125 c 128,-1,18
 305.6640625 138.18359375 305.6640625 138.18359375 368.65234375 153.3203125 c 0,19,20
 449.21875 172.36328125 449.21875 172.36328125 521.728515625 203.61328125 c 128,-1,21
 594.23828125 234.86328125 594.23828125 234.86328125 660.64453125 272.4609375 c 1,22,23
 652.34375 238.76953125 652.34375 238.76953125 632.080078125 217.041015625 c 128,-1,24
 611.81640625 195.3125 611.81640625 195.3125 590.33203125 176.26953125 c 0,25,26
 464.84375 64.94140625 464.84375 64.94140625 268.06640625 18.06640625 c 0,27,28
 244.62890625 12.20703125 244.62890625 12.20703125 202.1484375 5.615234375 c 128,-1,29
 159.66796875 -0.9765625 159.66796875 -0.9765625 116.943359375 0.244140625 c 128,-1,30
 74.21875 1.46484375 74.21875 1.46484375 41.259765625 14.892578125 c 128,-1,31
 8.30078125 28.3203125 8.30078125 28.3203125 4.39453125 63.4765625 c 1,32,33
 0 94.7265625 0 94.7265625 6.103515625 132.568359375 c 128,-1,34
 12.20703125 170.41015625 12.20703125 170.41015625 19.53125 188.4765625 c 0,35,36
 33.69140625 225.5859375 33.69140625 225.5859375 59.5703125 251.220703125 c 128,-1,37
 85.44921875 276.85546875 85.44921875 276.85546875 115.72265625 294.43359375 c 0,38,39
 162.59765625 320.80078125 162.59765625 320.80078125 193.603515625 366.2109375 c 128,-1,40
 224.609375 411.62109375 224.609375 411.62109375 253.41796875 460.44921875 c 0,41,42
 268.06640625 485.3515625 268.06640625 485.3515625 295.8984375 497.802734375 c 128,-1,43
 323.73046875 510.25390625 323.73046875 510.25390625 344.23828125 462.890625 c 1,0,1
EndSplineSet
Fore
SplineSet
344 463 m 1
 355 419 357 359 340 318 c 0
 338 314 335 310 329 306 c 128
 323 302 319 304 319 310 c 0
 317 339 305 368 276 372 c 1
 244 364 227 341 213 315 c 0
 177 245 131 195 75 165 c 1
 68 161 65 157 65 153 c 1
 115 136 168 130 223 133 c 128
 407 144 536 201 661 272 c 1
 650 227 619 202 590 176 c 0
 493 90 364 31 202 6 c 128
 147 -3 85 -3 41 15 c 128
 19 24 7 40 4 63 c 1
 -1 100 10 164 20 188 c 0
 38 236 75 270 116 294 c 0
 147 312 173 336 194 366 c 128
 215 396 234 427 253 460 c 0
 263 477 277 490 296 498 c 128
 315 506 330 495 344 463 c 1
EndSplineSet
EndChar
StartChar: fullstop-ar
Encoding: 1748 1748 418
Width: 253
GlyphClass: 2
LayerCount: 2
Back
SplineSet
62.5 98.6328125 m 1,0,-1
 231.93359375 118.65234375 l 1,1,-1
 186.5234375 19.53125 l 1,2,-1
 21.97265625 0 l 1,3,-1
 62.5 98.6328125 l 1,0,-1
EndSplineSet
Fore
SplineSet
62 99 m 1
 232 119 l 1
 187 20 l 1
 22 0 l 1
 62 99 l 1
EndSplineSet
EndChar
StartChar: two-persian
Encoding: 1778 1778 46
Width: 392
GlyphClass: 2
LayerCount: 2
Back
SplineSet
209.9609375 372.0703125 m 1,0,1
 257.32421875 288.57421875 257.32421875 288.57421875 264.892578125 189.94140625 c 128,-1,2
 272.4609375 91.30859375 272.4609375 91.30859375 219.23828125 7.8125 c 0,3,4
 217.28515625 4.8828125 217.28515625 4.8828125 212.646484375 2.44140625 c 128,-1,5
 208.0078125 0 208.0078125 0 208.49609375 1.953125 c 0,6,7
 218.75 108.3984375 218.75 108.3984375 182.12890625 186.279296875 c 128,-1,8
 145.5078125 264.16015625 145.5078125 264.16015625 106.93359375 327.63671875 c 0,9,10
 85.9375 361.328125 85.9375 361.328125 63.232421875 393.310546875 c 128,-1,11
 40.52734375 425.29296875 40.52734375 425.29296875 24.4140625 464.84375 c 1,12,13
 35.15625 495.60546875 35.15625 495.60546875 47.119140625 527.099609375 c 128,-1,14
 59.08203125 558.59375 59.08203125 558.59375 73.73046875 588.8671875 c 1,15,16
 123.53515625 486.81640625 123.53515625 486.81640625 210.205078125 475.5859375 c 128,-1,17
 296.875 464.35546875 296.875 464.35546875 356.93359375 566.89453125 c 1,18,19
 357.421875 569.82421875 357.421875 569.82421875 362.060546875 578.369140625 c 128,-1,20
 366.69921875 586.9140625 366.69921875 586.9140625 366.69921875 581.0546875 c 1,21,-1
 366.69921875 581.0546875 l 1,22,23
 374.0234375 497.55859375 374.0234375 497.55859375 334.9609375 421.630859375 c 128,-1,24
 295.8984375 345.703125 295.8984375 345.703125 209.9609375 372.0703125 c 1,0,1
EndSplineSet
Fore
SplineSet
210 372 m 1
 242 316 260 256 265 190 c 128
 270 124 254 64 219 8 c 0
 219 8 207 -1 208 2 c 0
 215 73 206 134 182 186 c 128
 145 265 109 328 63 393 c 128
 48 414 35 439 24 465 c 1
 39 507 55 550 74 589 c 1
 107 521 152 483 210 476 c 128
 268 469 317 499 357 567 c 1
 357 569 359 572 362 578 c 128
 365 584 367 585 367 581 c 0
 372 525 361 473 335 422 c 128
 309 371 267 354 210 372 c 1
EndSplineSet
EndChar
StartChar: uni06F2
Encoding: 1778 1778 46
Width: 803
GlyphClass: 2
LayerCount: 2
Back
SplineSet
430 762 m 1,0,1
 527 591 527 591 542.5 389 c 128,-1,2
 558 187 558 187 449 16 c 0,3,4
 445 10 445 10 435.5 5 c 128,-1,5
 426 0 426 0 427 4 c 0,6,7
 448 222 448 222 373 381.5 c 128,-1,8
 298 541 298 541 219 671 c 0,9,10
 176 740 176 740 129.5 805.5 c 128,-1,11
 83 871 83 871 50 952 c 1,12,13
 72 1015 72 1015 96.5 1079.5 c 128,-1,14
 121 1144 121 1144 151 1206 c 1,15,16
 253 997 253 997 430.5 974 c 128,-1,17
 608 951 608 951 731 1161 c 1,18,19
 732 1167 732 1167 741.5 1184.5 c 128,-1,20
 751 1202 751 1202 751 1190 c 1,21,-1
 751 1190 l 1,22,23
 766 1019 766 1019 686 863.5 c 128,-1,24
 606 708 606 708 430 762 c 1,0,1
EndSplineSet
Fore
SplineSet
430 762 m 1
 494.666666667 648 532.166666667 523.666666667 542.5 389 c 128
 552.833333333 254.333333333 521.666666667 130 449 16 c 0
 448.559361454 15.3390421816 425.595644417 -1.61742232773 427 4 c 0
 441 149.333333333 423 275.166666667 373 381.5 c 128
 296.735820781 543.688487805 223.826523517 672.63145612 129.5 805.5 c 128
 98.5 849.166666667 72 898 50 952 c 1
 80.1990518805 1038.47910311 112.319802499 1126.06092517 151 1206 c 1
 219 1066.66666667 312.166666667 989.333333333 430.5 974 c 128
 548.833333333 958.666666667 649 1021 731 1161 c 1
 731.666666667 1165 735.166666667 1172.83333333 741.5 1184.5 c 128
 747.833333333 1196.16666667 751 1198 751 1190 c 0
 761 1076 739.333333333 967.166666667 686 863.5 c 128
 632.666666667 759.833333333 547.333333333 726 430 762 c 1
EndSplineSet
EndChar
StartChar: four-persian
Encoding: 1780 1780 47
Width: 414
GlyphClass: 2
LayerCount: 2
Back
SplineSet
389.16015625 554.6875 m 1,0,1
 380.37109375 457.51953125 380.37109375 457.51953125 346.19140625 401.3671875 c 0,2,3
 318.359375 355.46875 318.359375 355.46875 260.25390625 355.46875 c 0,4,5
 246.58203125 355.46875 246.58203125 355.46875 231.4453125 357.91015625 c 0,6,7
 223.14453125 359.375 223.14453125 359.375 217.7734375 359.375 c 0,8,9
 208.49609375 359.375 208.49609375 359.375 208.49609375 355.46875 c 0,10,11
 208.49609375 354.00390625 208.49609375 354.00390625 209.47265625 352.5390625 c 0,12,13
 257.32421875 273.4375 257.32421875 273.4375 264.6484375 179.6875 c 0,14,15
 265.625 167.96875 265.625 167.96875 265.625 156.73828125 c 0,16,17
 265.625 75.68359375 265.625 75.68359375 218.75 6.34765625 c 0,18,19
 216.796875 3.41796875 216.796875 3.41796875 212.40234375 1.46484375 c 0,20,21
 209.47265625 0 209.47265625 0 208.49609375 0 c 0,22,23
 208.0078125 0 208.0078125 0 208.0078125 0.48828125 c 0,24,25
 210.44921875 23.4375 210.44921875 23.4375 210.44921875 44.921875 c 0,26,27
 210.44921875 118.1640625 210.44921875 118.1640625 182.12890625 175.78125 c 0,28,29
 145.5078125 250 145.5078125 250 106.4453125 310.546875 c 0,30,31
 85.9375 342.28515625 85.9375 342.28515625 62.98828125 372.802734375 c 128,-1,32
 40.0390625 403.3203125 40.0390625 403.3203125 24.4140625 440.91796875 c 1,33,34
 35.15625 470.21484375 35.15625 470.21484375 47.119140625 500 c 128,-1,35
 59.08203125 529.78515625 59.08203125 529.78515625 73.73046875 559.08203125 c 1,36,37
 97.16796875 512.20703125 97.16796875 512.20703125 108.88671875 492.431640625 c 128,-1,38
 120.60546875 472.65625 120.60546875 472.65625 176.7578125 462.40234375 c 1,39,-1
 176.7578125 467.28515625 l 2,40,41
 176.7578125 510.7421875 176.7578125 510.7421875 224.12109375 555.17578125 c 0,42,43
 273.92578125 602.05078125 273.92578125 602.05078125 300.29296875 604.00390625 c 1,44,-1
 307.6171875 604.00390625 l 2,45,46
 346.19140625 604.00390625 346.19140625 604.00390625 346.19140625 576.66015625 c 0,47,48
 346.19140625 573.73046875 346.19140625 573.73046875 345.703125 570.3125 c 0,49,50
 341.796875 543.45703125 341.796875 543.45703125 325.68359375 543.45703125 c 0,51,52
 319.3359375 543.45703125 319.3359375 543.45703125 311.03515625 547.36328125 c 0,53,54
 288.57421875 557.6171875 288.57421875 557.6171875 271.97265625 557.6171875 c 0,55,56
 252.9296875 557.6171875 252.9296875 557.6171875 241.69921875 543.9453125 c 0,57,58
 225.5859375 523.92578125 225.5859375 523.92578125 225.5859375 513.18359375 c 0,59,60
 225.5859375 509.765625 225.5859375 509.765625 227.05078125 507.32421875 c 0,61,62
 246.58203125 471.19140625 246.58203125 471.19140625 277.34375 471.19140625 c 0,63,64
 294.921875 471.19140625 294.921875 471.19140625 315.91796875 482.91015625 c 0,65,66
 374.0234375 515.625 374.0234375 515.625 379.8828125 541.50390625 c 0,67,68
 380.37109375 544.43359375 380.37109375 544.43359375 385.25390625 552.734375 c 0,69,70
 387.6953125 557.12890625 387.6953125 557.12890625 388.671875 557.12890625 c 0,71,72
 389.16015625 557.12890625 389.16015625 557.12890625 389.16015625 555.6640625 c 2,73,-1
 389.16015625 554.6875 l 1,0,1
EndSplineSet
Fore
SplineSet
390 551 m 1
 390 551 l 1
 379 422 339 337 232 355 c 0
 218 357 208 353 210 350 c 0
 274 245 290 110 219 4 c 0
 217 0 209 -4 209 -2 c 0
 223 133 159 227 107 307 c 0
 80 349 46 388 25 438 c 1
 40 477 55 518 74 556 c 1
 106 494 103 473 177 459 c 1
 174 521 266 599 301 601 c 0
 369 605 351 526 312 544 c 0
 248 574 220 519 228 504 c 0
 270 428 373 504 380 538 c 0
 381 542 391 559 390 551 c 1
EndSplineSet
EndChar
StartChar: uni06F4
Encoding: 1780 1780 47
Width: 848
GlyphClass: 2
LayerCount: 2
Back
SplineSet
797 1136 m 1,0,1
 779 937 779 937 709 822 c 0,2,3
 652 728 652 728 533 728 c 0,4,5
 505 728 505 728 474 733 c 0,6,7
 457 736 457 736 446 736 c 0,8,9
 427 736 427 736 427 728 c 0,10,11
 427 725 427 725 429 722 c 0,12,13
 527 560 527 560 542 368 c 0,14,15
 544 344 544 344 544 321 c 0,16,17
 544 155 544 155 448 13 c 0,18,19
 444 7 444 7 435 3 c 0,20,21
 429 0 429 0 427 0 c 0,22,23
 426 0 426 0 426 1 c 0,24,25
 431 48 431 48 431 92 c 0,26,27
 431 242 431 242 373 360 c 0,28,29
 298 512 298 512 218 636 c 0,30,31
 176 701 176 701 129 763.5 c 128,-1,32
 82 826 82 826 50 903 c 1,33,34
 72 963 72 963 96.5 1024 c 128,-1,35
 121 1085 121 1085 151 1145 c 1,36,37
 199 1049 199 1049 223 1008.5 c 128,-1,38
 247 968 247 968 362 947 c 1,39,-1
 362 957 l 2,40,41
 362 1046 362 1046 459 1137 c 0,42,43
 561 1233 561 1233 615 1237 c 1,44,-1
 630 1237 l 2,45,46
 709 1237 709 1237 709 1181 c 0,47,48
 709 1175 709 1175 708 1168 c 0,49,50
 700 1113 700 1113 667 1113 c 0,51,52
 654 1113 654 1113 637 1121 c 0,53,54
 591 1142 591 1142 557 1142 c 0,55,56
 518 1142 518 1142 495 1114 c 0,57,58
 462 1073 462 1073 462 1051 c 0,59,60
 462 1044 462 1044 465 1039 c 0,61,62
 505 965 505 965 568 965 c 0,63,64
 604 965 604 965 647 989 c 0,65,66
 766 1056 766 1056 778 1109 c 0,67,68
 779 1115 779 1115 789 1132 c 0,69,70
 794 1141 794 1141 796 1141 c 0,71,72
 797 1141 797 1141 797 1138 c 2,73,-1
 797 1136 l 1,0,1
EndSplineSet
Fore
SplineSet
797.913085938 1129.16015625 m 1
 797.913085938 1129.16015625 l 1
 774.616210938 864.565429688 695.659179688 690.57421875 475.573242188 726.755859375 c 0
 446.493164062 731.538085938 427.151367188 721.555664062 430.6015625 715.865234375 c 0
 560.98046875 500.875976562 595.37109375 224.47265625 449.483398438 7.6396484375 c 0
 444.5078125 0.2431640625 427.084960938 -8.37890625 427.567382812 -3.9248046875 c 0
 457.25390625 272.72265625 325.951171875 465.143554688 219.701171875 629.75 c 0
 163.55859375 716.75 94.86328125 794.522460938 51.630859375 896.452148438 c 1
 81.5537109375 976.928710938 112.685546875 1059.37988281 152.486328125 1137.95703125 c 1
 217.928710938 1011.43554688 210.46875 968.00390625 362.9765625 940.03125 c 1
 356.581054688 1066.06933594 544.78125 1225.59472656 615.603515625 1230.06835938 c 0
 755.19921875 1238.87988281 718.950195312 1076.51757812 638.459960938 1114.40234375 c 0
 506.907226562 1176.32519531 449.233398438 1062.109375 465.94921875 1031.6875 c 0
 550.952148438 876.971679688 763.793945312 1031.79882812 778.642578125 1101.87988281 c 0
 780.29296875 1109.640625 799.310546875 1145.05175781 797.913085938 1129.16015625 c 1
EndSplineSet
EndChar
StartChar: five-persian
Encoding: 1781 1781 48
Width: 444
GlyphClass: 2
LayerCount: 2
Back
SplineSet
400.87890625 312.5 m 1,0,1
 414.0625 273.4375 414.0625 273.4375 414.0625 234.375 c 0,2,3
 414.0625 216.796875 414.0625 216.796875 411.62109375 199.21875 c 0,4,5
 402.83203125 142.578125 402.83203125 142.578125 379.39453125 101.07421875 c 128,-1,6
 355.95703125 59.5703125 355.95703125 59.5703125 323.73046875 41.50390625 c 0,7,8
 308.59375 32.71484375 308.59375 32.71484375 294.43359375 32.71484375 c 0,9,10
 278.3203125 32.71484375 278.3203125 32.71484375 263.18359375 43.9453125 c 0,11,12
 250 53.7109375 250 53.7109375 234.86328125 53.7109375 c 0,13,14
 220.703125 53.7109375 220.703125 53.7109375 205.56640625 45.8984375 c 0,15,16
 172.8515625 28.80859375 172.8515625 28.80859375 140.625 13.671875 c 0,17,18
 115.234375 1.46484375 115.234375 1.46484375 92.28515625 1.46484375 c 0,19,20
 85.9375 1.46484375 85.9375 1.46484375 80.078125 2.44140625 c 0,21,22
 51.26953125 6.34765625 51.26953125 6.34765625 33.69140625 67.87109375 c 0,23,24
 29.78515625 81.54296875 29.78515625 81.54296875 29.78515625 98.6328125 c 0,25,26
 29.78515625 120.60546875 29.78515625 120.60546875 36.1328125 148.92578125 c 0,27,28
 47.8515625 198.73046875 47.8515625 198.73046875 68.603515625 251.46484375 c 128,-1,29
 89.35546875 304.19921875 89.35546875 304.19921875 113.76953125 351.5625 c 128,-1,30
 138.18359375 398.92578125 138.18359375 398.92578125 154.296875 425.29296875 c 1,31,32
 146.97265625 430.17578125 146.97265625 430.17578125 144.287109375 432.861328125 c 128,-1,33
 141.6015625 435.546875 141.6015625 435.546875 135.7421875 440.91796875 c 1,34,35
 141.6015625 476.5625 141.6015625 476.5625 147.705078125 500 c 128,-1,36
 153.80859375 523.4375 153.80859375 523.4375 164.0625 558.59375 c 1,37,38
 224.609375 506.34765625 224.609375 506.34765625 296.142578125 445.80078125 c 128,-1,39
 367.67578125 385.25390625 367.67578125 385.25390625 400.87890625 312.5 c 1,0,1
375.9765625 178.7109375 m 1,40,41
 348.14453125 256.34765625 348.14453125 256.34765625 290.0390625 307.861328125 c 128,-1,42
 231.93359375 359.375 231.93359375 359.375 171.38671875 412.109375 c 1,43,44
 155.2734375 389.16015625 155.2734375 389.16015625 129.150390625 337.158203125 c 128,-1,45
 103.02734375 285.15625 103.02734375 285.15625 89.84375 233.3984375 c 0,46,47
 82.03125 203.61328125 82.03125 203.61328125 82.03125 178.7109375 c 0,48,49
 82.03125 160.64453125 82.03125 160.64453125 86.42578125 145.01953125 c 0,50,51
 94.7265625 114.2578125 94.7265625 114.2578125 134.765625 114.2578125 c 0,52,53
 143.06640625 114.2578125 143.06640625 114.2578125 152.34375 115.234375 c 0,54,55
 212.890625 122.55859375 212.890625 122.55859375 229.00390625 148.92578125 c 0,56,57
 237.3046875 162.109375 237.3046875 162.109375 259.765625 162.109375 c 256,58,59
 282.2265625 162.109375 282.2265625 162.109375 319.3359375 148.92578125 c 0,60,61
 324.21875 146.97265625 324.21875 146.97265625 329.58984375 146.97265625 c 0,62,63
 339.84375 146.97265625 339.84375 146.97265625 351.07421875 154.78515625 c 0,64,65
 367.67578125 166.015625 367.67578125 166.015625 375.9765625 178.7109375 c 1,40,41
EndSplineSet
Fore
SplineSet
401 310 m 1
 452 161 339 -14 263 42 c 0
 196 92 81 -97 34 66 c 0
 10 148 112 354 155 423 c 1
 146 430 144 432 136 439 c 1
 144 487 151 510 165 556 c 1
 246 487 357 407 401 310 c 1
376 177 m 1
 339 281 253 340 172 410 c 1
 130 350 4 94 153 113 c 0
 234 123 221 182 319 147 c 0
 339 140 365 161 376 177 c 1
EndSplineSet
EndChar
StartChar: uni06F5
Encoding: 1781 1781 48
Width: 910
GlyphClass: 2
LayerCount: 2
Back
SplineSet
821 640 m 1,0,1
 848 560 848 560 848 480 c 0,2,3
 848 444 848 444 843 408 c 0,4,5
 825 292 825 292 777 207 c 128,-1,6
 729 122 729 122 663 85 c 0,7,8
 632 67 632 67 603 67 c 0,9,10
 570 67 570 67 539 90 c 0,11,12
 512 110 512 110 481 110 c 0,13,14
 452 110 452 110 421 94 c 0,15,16
 354 59 354 59 288 28 c 0,17,18
 236 3 236 3 189 3 c 0,19,20
 176 3 176 3 164 5 c 0,21,22
 105 13 105 13 69 139 c 0,23,24
 61 167 61 167 61 202 c 0,25,26
 61 247 61 247 74 305 c 0,27,28
 98 407 98 407 140.5 515 c 128,-1,29
 183 623 183 623 233 720 c 128,-1,30
 283 817 283 817 316 871 c 1,31,32
 301 881 301 881 295.5 886.5 c 128,-1,33
 290 892 290 892 278 903 c 1,34,35
 290 976 290 976 302.5 1024 c 128,-1,36
 315 1072 315 1072 336 1144 c 1,37,38
 460 1037 460 1037 606.5 913 c 128,-1,39
 753 789 753 789 821 640 c 1,0,1
770 366 m 1,40,41
 713 525 713 525 594 630.5 c 128,-1,42
 475 736 475 736 351 844 c 1,43,44
 318 797 318 797 264.5 690.5 c 128,-1,45
 211 584 211 584 184 478 c 0,46,47
 168 417 168 417 168 366 c 0,48,49
 168 329 168 329 177 297 c 0,50,51
 194 234 194 234 276 234 c 0,52,53
 293 234 293 234 312 236 c 0,54,55
 436 251 436 251 469 305 c 0,56,57
 486 332 486 332 532 332 c 256,58,59
 578 332 578 332 654 305 c 0,60,61
 664 301 664 301 675 301 c 0,62,63
 696 301 696 301 719 317 c 0,64,65
 753 340 753 340 770 366 c 1,40,41
EndSplineSet
Fore
SplineSet
316 871 m 1
 294.92657823 885.048947847 295.874758863 886.614804376 278 903 c 1
 295.358943117 1008.6002373 307.426598624 1046.03405243 336 1144 c 1
 418.666666667 1072.66666667 508.833333333 995.666666667 606.5 913 c 128
 704.166666667 830.333333333 775.666666667 739.333333333 821 640 c 1
 839 586.666666667 848 533.333333333 848 480 c 0
 848 370.393539254 817.127378316 278.058899101 777 207 c 128
 745 150.333333333 707 109.666666667 663 85 c 0
 642.333333333 73 622.333333333 67 603 67 c 0
 560.266884954 67 524.838173652 110 481 110 c 0
 461.666666667 110 441.666666667 104.666666667 421 94 c 0
 376.333333333 70.6666666667 332 48.6666666667 288 28 c 0
 253.333333333 11.3333333333 220.333333333 3 189 3 c 0
 123.390347109 3 96.440054637 42.9598087706 69 139 c 0
 63.6666666667 157.666666667 61 178.666666667 61 202 c 0
 61 232 65.3333333333 266.333333333 74 305 c 0
 121.011549921 504.799087166 223.752888111 720.050180545 316 871 c 1
168 366 m 0
 168 284.370153696 192.401965628 234 276 234 c 0
 368.273060207 234 445.463770588 266.486170052 469 305 c 0
 480.333333333 323 501.333333333 332 532 332 c 256
 562.666666667 332 603.333333333 323 654 305 c 0
 660.666666667 302.333333333 667.666666667 301 675 301 c 0
 713.679689805 301 755.460465225 343.763064462 770 366 c 1
 732 472 673.333333333 560.166666667 594 630.5 c 128
 514.666666667 700.833333333 433.666666667 772 351 844 c 1
 297.34340413 767.579999822 212.839169649 591.220443808 184 478 c 0
 173.333333333 437.333333333 168 400 168 366 c 0
EndSplineSet
EndChar
StartChar: six-persian
Encoding: 1782 1782 49
Width: 476
GlyphClass: 2
LayerCount: 2
Back
SplineSet
377.44140625 337.40234375 m 1,0,1
 303.22265625 291.015625 303.22265625 291.015625 260.009765625 262.20703125 c 128,-1,2
 216.796875 233.3984375 216.796875 233.3984375 184.326171875 202.63671875 c 128,-1,3
 151.85546875 171.875 151.85546875 171.875 119.873046875 128.90625 c 128,-1,4
 87.890625 85.9375 87.890625 85.9375 36.62109375 11.71875 c 0,5,6
 28.80859375 0 28.80859375 0 25.390625 0 c 1,7,-1
 24.4140625 0.9765625 l 1,8,9
 24.4140625 69.3359375 24.4140625 69.3359375 86.9140625 154.296875 c 128,-1,10
 149.4140625 239.2578125 149.4140625 239.2578125 193.84765625 286.1328125 c 1,11,12
 124.0234375 313.96484375 124.0234375 313.96484375 121.09375 363.76953125 c 0,13,14
 120.60546875 368.1640625 120.60546875 368.1640625 120.60546875 372.55859375 c 0,15,16
 120.60546875 417.96875 120.60546875 417.96875 147.94921875 462.890625 c 0,17,18
 177.734375 511.71875 177.734375 511.71875 222.412109375 548.33984375 c 128,-1,19
 267.08984375 584.9609375 267.08984375 584.9609375 291.9921875 586.9140625 c 1,20,-1
 298.828125 586.9140625 l 2,21,22
 328.61328125 586.9140625 328.61328125 586.9140625 341.796875 572.265625 c 1,23,24
 355.46875 556.15234375 355.46875 556.15234375 355.46875 538.57421875 c 2,25,-1
 355.46875 536.1328125 l 1,26,27
 354.4921875 517.08984375 354.4921875 517.08984375 341.30859375 504.39453125 c 0,28,29
 333.49609375 497.0703125 333.49609375 497.0703125 324.21875 497.0703125 c 0,30,31
 316.40625 497.0703125 316.40625 497.0703125 307.12890625 501.953125 c 0,32,33
 276.3671875 517.578125 276.3671875 517.578125 253.41796875 517.578125 c 0,34,35
 226.5625 517.578125 226.5625 517.578125 210.9375 496.58203125 c 0,36,37
 188.4765625 466.30859375 188.4765625 466.30859375 188.4765625 449.70703125 c 0,38,39
 188.4765625 444.82421875 188.4765625 444.82421875 190.4296875 440.91796875 c 0,40,41
 207.51953125 407.2265625 207.51953125 407.2265625 252.9296875 391.11328125 c 0,42,43
 269.53125 385.25390625 269.53125 385.25390625 286.62109375 385.25390625 c 0,44,45
 316.40625 385.25390625 316.40625 385.25390625 348.6328125 403.3203125 c 0,46,47
 375.9765625 418.45703125 375.9765625 418.45703125 399.4140625 433.837890625 c 128,-1,48
 422.8515625 449.21875 422.8515625 449.21875 451.66015625 459.47265625 c 1,49,50
 442.87109375 421.38671875 442.87109375 421.38671875 422.8515625 393.310546875 c 128,-1,51
 402.83203125 365.234375 402.83203125 365.234375 377.44140625 337.40234375 c 1,0,1
EndSplineSet
Fore
SplineSet
377 335 m 1
 180 212 174 208 37 10 c 0
 35 7 29 -2 25 -2 c 2
 24 -1 l 1
 24 90 134 221 193 284 c 1
 7 359 225 579 291 584 c 0
 386 590 362 471 307 499 c 0
 218 544 179 461 190 439 c 0
 213 394 281 363 348 401 c 0
 384 421 413 444 451 457 c 1
 440 406 411 373 377 335 c 1
EndSplineSet
EndChar
StartChar: uni06F6
Encoding: 1782 1782 49
Width: 975
GlyphClass: 2
LayerCount: 2
Back
SplineSet
773 691 m 1,0,1
 621 596 621 596 532.5 537 c 128,-1,2
 444 478 444 478 377.5 415 c 128,-1,3
 311 352 311 352 245.5 264 c 128,-1,4
 180 176 180 176 75 24 c 0,5,6
 59 0 59 0 52 0 c 1,7,-1
 50 2 l 1,8,9
 50 142 50 142 178 316 c 128,-1,10
 306 490 306 490 397 586 c 1,11,12
 254 643 254 643 248 745 c 0,13,14
 247 754 247 754 247 763 c 0,15,16
 247 856 247 856 303 948 c 0,17,18
 364 1048 364 1048 455.5 1123 c 128,-1,19
 547 1198 547 1198 598 1202 c 1,20,-1
 612 1202 l 2,21,22
 673 1202 673 1202 700 1172 c 1,23,24
 728 1139 728 1139 728 1103 c 2,25,-1
 728 1098 l 1,26,27
 726 1059 726 1059 699 1033 c 0,28,29
 683 1018 683 1018 664 1018 c 0,30,31
 648 1018 648 1018 629 1028 c 0,32,33
 566 1060 566 1060 519 1060 c 0,34,35
 464 1060 464 1060 432 1017 c 0,36,37
 386 955 386 955 386 921 c 0,38,39
 386 911 386 911 390 903 c 0,40,41
 425 834 425 834 518 801 c 0,42,43
 552 789 552 789 587 789 c 0,44,45
 648 789 648 789 714 826 c 0,46,47
 770 857 770 857 818 888.5 c 128,-1,48
 866 920 866 920 925 941 c 1,49,50
 907 863 907 863 866 805.5 c 128,-1,51
 825 748 825 748 773 691 c 1,0,1
EndSplineSet
Fore
SplineSet
773 691 m 1
 671.666666667 627.666666667 591.5 576.333333333 532.5 537 c 128
 473.5 497.666666667 421.833333333 457 377.5 415 c 128
 333.166666667 373 289.166666667 322.666666667 245.5 264 c 128
 201.833333333 205.333333333 145 125.333333333 75 24 c 0
 64.3333333333 8 56.6666666667 0 52 0 c 1
 50 2 l 1
 50 95.3333333333 92.6666666667 200 178 316 c 128
 263.333333333 432 336.333333333 522 397 586 c 1
 301.666666667 624 252 677 248 745 c 0
 247.333333333 751 247 757 247 763 c 0
 247 825 265.666666667 886.666666667 303 948 c 0
 343.666666667 1014.66666667 394.5 1073 455.5 1123 c 128
 516.5 1173 564 1199.33333333 598 1202 c 1
 612 1202 l 2
 652.666666667 1202 682 1192 700 1172 c 1
 718.666666667 1150 728 1127 728 1103 c 2
 728 1098 l 1
 726.666666667 1072 717 1050.33333333 699 1033 c 0
 688.333333333 1023 676.666666667 1018 664 1018 c 0
 653.333333333 1018 641.666666667 1021.33333333 629 1028 c 0
 587 1049.33333333 550.333333333 1060 519 1060 c 0
 482.333333333 1060 453.333333333 1045.66666667 432 1017 c 0
 401.333333333 975.666666667 386 943.666666667 386 921 c 0
 386 914.333333333 387.333333333 908.333333333 390 903 c 0
 413.333333333 857 456 823 518 801 c 0
 540.666666667 793 563.666666667 789 587 789 c 0
 627.666666667 789 670 801.333333333 714 826 c 0
 751.333333333 846.666666667 786 867.5 818 888.5 c 128
 850 909.5 885.666666667 927 925 941 c 1
 913 889 893.333333333 843.833333333 866 805.5 c 128
 838.666666667 767.166666667 807.666666667 729 773 691 c 1
EndSplineSet
EndChar
StartChar: opendammatan-ar
Encoding: 2289 2289 16
Width: 0
GlyphClass: 4
AnchorPoint: "Mark Mark Above" 0 0 mark 0
AnchorPoint: "Tashkil Above" 0 0 mark 0
LayerCount: 2
Back
SplineSet
75.68359375 16.11328125 m 1,0,1
 64.453125 21.97265625 64.453125 21.97265625 55.6640625 28.564453125 c 128,-1,2
 46.875 35.15625 46.875 35.15625 42.96875 44.43359375 c 0,3,4
 40.52734375 49.8046875 40.52734375 49.8046875 40.52734375 56.15234375 c 0,5,6
 40.52734375 60.05859375 40.52734375 60.05859375 41.50390625 64.453125 c 0,7,8
 43.9453125 75.1953125 43.9453125 75.1953125 56.640625 90.33203125 c 0,9,10
 68.359375 104.4921875 68.359375 104.4921875 81.0546875 109.86328125 c 0,11,12
 86.9140625 112.3046875 86.9140625 112.3046875 91.796875 112.3046875 c 0,13,14
 97.65625 112.3046875 97.65625 112.3046875 102.05078125 109.375 c 0,15,16
 110.3515625 104.00390625 110.3515625 104.00390625 112.3046875 87.40234375 c 1,17,-1
 112.3046875 82.03125 l 2,18,19
 112.3046875 66.40625 112.3046875 66.40625 104.00390625 41.015625 c 1,20,21
 107.421875 38.57421875 107.421875 38.57421875 110.107421875 35.400390625 c 128,-1,22
 112.79296875 32.2265625 112.79296875 32.2265625 113.28125 27.83203125 c 1,23,-1
 113.28125 26.85546875 l 2,24,25
 113.28125 22.4609375 113.28125 22.4609375 111.328125 16.11328125 c 0,26,27
 108.88671875 9.27734375 108.88671875 9.27734375 102.5390625 -0.48828125 c 1,28,29
 99.609375 2.9296875 99.609375 2.9296875 96.435546875 4.8828125 c 128,-1,30
 93.26171875 6.8359375 93.26171875 6.8359375 89.35546875 9.27734375 c 1,31,32
 75.68359375 -8.7890625 75.68359375 -8.7890625 62.01171875 -20.751953125 c 128,-1,33
 48.33984375 -32.71484375 48.33984375 -32.71484375 32.470703125 -41.50390625 c 128,-1,34
 16.6015625 -50.29296875 16.6015625 -50.29296875 -2.44140625 -56.640625 c 128,-1,35
 -21.484375 -62.98828125 -21.484375 -62.98828125 -44.43359375 -69.3359375 c 1,36,-1
 -49.8046875 -69.82421875 l 1,37,38
 -49.8046875 -68.84765625 -49.8046875 -68.84765625 -42.48046875 -64.453125 c 0,39,40
 -35.15625 -59.5703125 -35.15625 -59.5703125 -23.193359375 -52.001953125 c 128,-1,41
 -11.23046875 -44.43359375 -11.23046875 -44.43359375 3.173828125 -35.15625 c 128,-1,42
 17.578125 -25.87890625 17.578125 -25.87890625 31.494140625 -16.6015625 c 128,-1,43
 45.41015625 -7.32421875 45.41015625 -7.32421875 57.6171875 1.220703125 c 128,-1,44
 69.82421875 9.765625 69.82421875 9.765625 75.68359375 16.11328125 c 1,0,1
89.84375 48.33984375 m 1,45,46
 91.796875 58.10546875 91.796875 58.10546875 91.796875 64.453125 c 0,47,48
 91.796875 72.265625 91.796875 72.265625 89.35546875 75.68359375 c 0,49,50
 84.9609375 82.03125 84.9609375 82.03125 79.1015625 82.03125 c 2,51,-1
 77.63671875 82.03125 l 1,52,53
 70.80078125 81.0546875 70.80078125 81.0546875 65.91796875 75.68359375 c 0,54,55
 62.98828125 72.265625 62.98828125 72.265625 62.98828125 69.3359375 c 0,56,57
 62.98828125 66.89453125 62.98828125 66.89453125 64.453125 64.453125 c 1,58,59
 69.82421875 59.08203125 69.82421875 59.08203125 76.416015625 55.419921875 c 128,-1,60
 83.0078125 51.7578125 83.0078125 51.7578125 89.84375 48.33984375 c 1,45,46
-9.765625 16.11328125 m 1,61,62
 -20.5078125 21.97265625 -20.5078125 21.97265625 -29.541015625 28.564453125 c 128,-1,63
 -38.57421875 35.15625 -38.57421875 35.15625 -42.48046875 44.43359375 c 0,64,65
 -44.921875 49.8046875 -44.921875 49.8046875 -44.921875 56.15234375 c 0,66,67
 -44.921875 60.05859375 -44.921875 60.05859375 -43.9453125 64.453125 c 0,68,69
 -41.50390625 75.1953125 -41.50390625 75.1953125 -29.296875 90.33203125 c 1,70,71
 -17.08984375 104.4921875 -17.08984375 104.4921875 -4.39453125 109.86328125 c 0,72,73
 1.953125 112.3046875 1.953125 112.3046875 6.8359375 112.3046875 c 0,74,75
 12.20703125 112.3046875 12.20703125 112.3046875 16.6015625 109.375 c 0,76,77
 24.90234375 104.00390625 24.90234375 104.00390625 26.85546875 87.40234375 c 0,78,79
 27.34375 84.47265625 27.34375 84.47265625 27.34375 81.54296875 c 0,80,81
 27.34375 65.91796875 27.34375 65.91796875 19.04296875 41.015625 c 1,82,83
 22.4609375 38.57421875 22.4609375 38.57421875 25.146484375 35.400390625 c 128,-1,84
 27.83203125 32.2265625 27.83203125 32.2265625 28.3203125 27.83203125 c 1,85,-1
 28.3203125 26.85546875 l 2,86,87
 28.3203125 22.4609375 28.3203125 22.4609375 25.87890625 16.11328125 c 0,88,89
 22.94921875 9.27734375 22.94921875 9.27734375 17.08984375 -0.48828125 c 1,90,91
 13.671875 2.9296875 13.671875 2.9296875 10.7421875 4.8828125 c 128,-1,92
 7.8125 6.8359375 7.8125 6.8359375 3.41796875 9.27734375 c 1,93,94
 -9.765625 -8.7890625 -9.765625 -8.7890625 -23.193359375 -20.751953125 c 128,-1,95
 -36.62109375 -32.71484375 -36.62109375 -32.71484375 -52.978515625 -41.50390625 c 128,-1,96
 -69.3359375 -50.29296875 -69.3359375 -50.29296875 -87.890625 -56.640625 c 128,-1,97
 -106.4453125 -62.98828125 -106.4453125 -62.98828125 -129.39453125 -69.3359375 c 1,98,-1
 -134.765625 -69.82421875 l 1,99,100
 -134.765625 -68.84765625 -134.765625 -68.84765625 -127.9296875 -64.453125 c 0,101,102
 -120.60546875 -59.5703125 -120.60546875 -59.5703125 -108.642578125 -52.001953125 c 128,-1,103
 -96.6796875 -44.43359375 -96.6796875 -44.43359375 -82.03125 -35.15625 c 128,-1,104
 -67.3828125 -25.87890625 -67.3828125 -25.87890625 -53.466796875 -16.6015625 c 128,-1,105
 -39.55078125 -7.32421875 -39.55078125 -7.32421875 -27.587890625 1.220703125 c 128,-1,106
 -15.625 9.765625 -15.625 9.765625 -9.765625 16.11328125 c 1,61,62
4.8828125 48.33984375 m 1,107,108
 6.8359375 57.12890625 6.8359375 57.12890625 6.8359375 63.4765625 c 0,109,110
 6.8359375 66.40625 6.8359375 66.40625 6.34765625 68.84765625 c 0,111,112
 4.8828125 76.171875 4.8828125 76.171875 0.9765625 79.58984375 c 0,113,114
 -1.953125 82.03125 -1.953125 82.03125 -5.859375 82.03125 c 2,115,-1
 -7.8125 82.03125 l 1,116,117
 -12.6953125 81.0546875 -12.6953125 81.0546875 -16.6015625 78.369140625 c 128,-1,118
 -20.5078125 75.68359375 -20.5078125 75.68359375 -21.97265625 72.265625 c 0,119,120
 -22.4609375 70.80078125 -22.4609375 70.80078125 -22.4609375 69.82421875 c 0,121,122
 -22.4609375 66.89453125 -22.4609375 66.89453125 -20.5078125 64.453125 c 0,123,124
 -15.13671875 59.08203125 -15.13671875 59.08203125 -8.7890625 55.419921875 c 128,-1,125
 -2.44140625 51.7578125 -2.44140625 51.7578125 4.8828125 48.33984375 c 1,107,108
EndSplineSet
Fore
SplineSet
104 41 m 1
 108 38 112 34 113 28 c 1
 113 27 l 2
 113 16 109 9 103 -0 c 1
 99 5 94 6 89 9 c 1
 65 -23 39 -43 -2 -57 c 128
 -16 -62 -32 -68 -50 -70 c 1
 -50 -69 -47 -67 -42 -64 c 0
 -11 -43 27 -21 58 1 c 128
 66 7 72 12 76 16 c 1
 61 24 41 34 41 56 c 0
 41 79 69 112 92 112 c 0
 106 112 110 102 112 87 c 1
 112 82 l 2
 112 72 110 58 104 41 c 1
78 82 m 1
 72 81 63 76 63 69 c 0
 63 67 63 66 64 64 c 0
 71 57 81 53 90 48 c 1
 91 55 92 60 92 64 c 0
 92 74 87 82 79 82 c 2
 78 82 l 1
19 41 m 1
 23 38 27 34 28 28 c 1
 28 27 l 2
 28 16 22 9 17 -0 c 1
 12 5 9 6 3 9 c 1
 -29 -35 -69 -52 -129 -69 c 1
 -135 -70 l 1
 -135 -69 -133 -67 -128 -64 c 0
 -97 -43 -59 -21 -28 1 c 128
 -20 7 -14 12 -10 16 c 1
 -25 24 -45 34 -45 56 c 0
 -45 79 -17 112 7 112 c 0
 21 112 27 99 27 82 c 0
 27 72 25 58 19 41 c 1
-8 82 m 1
 -14 81 -22 77 -22 70 c 0
 -22 59 -3 52 5 48 c 1
 6 54 7 59 7 63 c 0
 7 73 3 82 -6 82 c 2
 -8 82 l 1
EndSplineSet
EndChar
